<?xml version="1.0" encoding="UTF-8"?>
<svg width="48px" height="48px" viewBox="0 0 48 48" version="1.1" xmlns="http://www.w3.org/2000/svg" xmlns:xlink="http://www.w3.org/1999/xlink">
    <!-- Generator: Sketch 61.2 (89653) - https://sketch.com -->
    <title>互动直播</title>
    <desc>Created with Sketch.</desc>
    <defs>
        <linearGradient x1="50%" y1="0%" x2="50%" y2="100%" id="linearGradient-1">
            <stop stop-color="#006EFF" offset="0%"></stop>
            <stop stop-color="#006EFF" stop-opacity="0" offset="100%"></stop>
        </linearGradient>
    </defs>
    <g id="浅色版本" stroke="none" stroke-width="1" fill="none" fill-rule="evenodd">
        <g id="主页" transform="translate(-44.000000, -429.000000)">
            <g id="编组-11" transform="translate(44.000000, 429.000000)">
                <g id="编组-7备份">
                    <rect id="矩形备份-2" opacity="0.1" x="0" y="0" width="48" height="48"></rect>
                    <g id="编组-6" transform="translate(11.000000, 5.363961)">
                        <path d="M7,-1 C7.55228475,-1 8,-0.55228475 8,2.27373675e-13 L8,15 L8,15 L6,15 L6,2.27373675e-13 C6,-0.55228475 6.44771525,-1 7,-1 Z" id="矩形" fill="#006EFF" transform="translate(7.000000, 7.000000) rotate(-45.000000) translate(-7.000000, -7.000000) "></path>
                        <path d="M16,-1 C16.5522847,-1 17,-0.55228475 17,2.27373675e-13 L17,15 L17,15 L15,15 L15,2.27373675e-13 C15,-0.55228475 15.4477153,-1 16,-1 Z" id="矩形" fill="#006EFF" transform="translate(16.000000, 7.000000) scale(-1, 1) rotate(-45.000000) translate(-16.000000, -7.000000) "></path>
                        <rect id="矩形" fill="#FFFFFF" x="9" y="11.636039" width="8" height="4"></rect>
                    </g>
                    <rect id="矩形" fill="url(#linearGradient-1)" opacity="0.2" x="11" y="19" width="31" height="24" rx="2"></rect>
                    <rect id="矩形" stroke="#006EFF" stroke-width="2" x="7" y="16" width="31" height="23" rx="4"></rect>
                    <path d="M19.4197416,31.7396119 L22.5,30.1202243 L25.5802584,31.7396119 L24.9919814,28.3096938 L27.4839627,25.8806123 L24.0401292,25.380194 L22.5,22.2595515 L20.9598708,25.380194 L17.5160373,25.8806123 L20.0080186,28.3096938 L19.4197416,31.7396119 Z" id="星形" stroke="#00C8DC" stroke-width="2"></path>
                </g>
            </g>
        </g>
    </g>
</svg>