<?xml version="1.0" encoding="UTF-8"?>
<svg xmlns="http://www.w3.org/2000/svg" xmlns:xlink="http://www.w3.org/1999/xlink" width="128px" height="128px" viewBox="0 0 128 128" version="1.1">
  <title>编组 5</title>
  <defs>
    <filter color-interpolation-filters="auto" id="filter-1">
      <feColorMatrix in="SourceGraphic" type="matrix" values="0 0 0 0 0.360784 0 0 0 0 0.380392 0 0 0 0 0.407843 0 0 0 1.000000 0"></feColorMatrix>
    </filter>
  </defs>
  <g id="当前版" stroke="none" stroke-width="1" fill="none" fill-rule="evenodd">
    <g id="更多" transform="translate(-399.000000, -1355.000000)">
      <g id="编组-7" transform="translate(47.000000, 1147.000000)">
        <g id="编组-5" transform="translate(352.000000, 208.000000)">
          <rect id="矩形备份-45" fill="#FFFFFF" x="0" y="0" width="128" height="128" rx="20"></rect>
          <g filter="url(#filter-1)" id="编组">
            <g transform="translate(36.000000, 44.000000)">
              <path d="M46.610882,15.0017957 C46.610882,13.343954 48.0209607,12 49.7604883,12 L53.4612757,12 C55.2007507,12 56.610882,13.343954 56.610882,15.0017957 L56.610882,36.9982043 C56.610882,38.656046 55.2008032,40 53.4612757,40 L49.7604883,40 C48.0209607,40 46.610882,38.656046 46.610882,36.9982043 L46.610882,15.0017957 Z M43.5245661,11.9218889 C43.3949759,11.727146 43.247242,11.5454468 43.0833947,11.3792887 L32.9070895,1.0702949 C31.4985316,-0.356739232 29.2146926,-0.356790698 27.806033,1.0702949 C26.3973227,2.49727756 26.3973735,4.81090707 27.806033,6.23783827 L32.7009826,11.1965863 L31.7831796,11.1965863 C31.6756301,11.1965863 31.5694523,11.2024019 31.4647986,11.2134155 C31.3511036,11.2023772 31.2369592,11.1967612 31.1227434,11.1965863 L12.1225031,11.1965863 C10.1304244,11.1965863 8.5155056,12.8325702 8.5155056,14.8506336 C8.5155056,16.868697 10.1304244,18.5046809 12.1225031,18.5046809 L20.2255468,18.5046809 C18.1913526,18.5046809 16.5423451,20.1751981 16.5423451,22.2359263 C16.5423451,24.2966546 18.1913526,25.9671718 20.2255468,25.9671718 L21.9003621,25.9671718 C20.2604991,26.1373681 18.9808786,27.5547267 18.9808786,29.2781504 C18.9808786,31.1162391 20.4364799,32.6062155 22.2322566,32.6062155 L25.4178451,32.6062155 C23.4059025,32.6062155 21.7750316,34.2613445 21.7750316,36.303082 C21.7750316,38.3448195 23.4060041,40 25.4178451,40 L41.5627151,40 C43.2462176,40 44.610882,38.6174835 44.610882,36.9120727 L44.610882,14.2845136 C44.610882,13.336314 44.1885584,12.4883177 43.5245661,11.9218889 Z" id="形状" fill="#585657" fill-rule="nonzero"></path>
              <path d="M10.5070869,4 C12.4638099,4 14.3412114,4.55556613 16.1392916,5.6666984 C16.6091176,5.95702032 16.7546255,6.57324404 16.4642969,7.04306587 C16.4536698,7.06026313 16.4425236,7.07713418 16.4308737,7.09365577 L15.2817926,8.72326132 C14.9774029,9.15491057 14.3898096,9.27541984 13.9400949,8.99841643 C12.8594764,8.33280548 11.7151404,8 10.5070869,8 C6.91294908,8 4,10.9105224 4,14.5 C4,18.0894776 6.91294908,21 10.5070869,21 C10.8865705,21 11.3888876,20.9292077 12.0140383,20.787623 C12.4557813,20.6875959 12.9096057,20.8969487 13.1202177,21.2979285 L14.0970636,23.1577261 C14.3539328,23.6466701 14.165746,24.2512546 13.6767795,24.5080809 C13.6197979,24.5380102 13.5600599,24.5623685 13.4983969,24.5808169 C12.5643317,24.8602723 11.5672283,25 10.5070869,25 C4.70455599,25 0,20.2993632 0,14.5 C0,8.70063683 4.70455599,4 10.5070869,4 Z" id="路径" fill="#5C6168" fill-rule="nonzero"></path>
            </g>
          </g>
        </g>
      </g>
    </g>
  </g>
</svg>
