<?xml version="1.0" encoding="UTF-8"?>
<svg width="80px" height="80px" viewBox="0 0 80 80" version="1.1" xmlns="http://www.w3.org/2000/svg" xmlns:xlink="http://www.w3.org/1999/xlink">
    <!-- Generator: Sketch 61.2 (89653) - https://sketch.com -->
    <title>添加</title>
    <desc>Created with Sketch.</desc>
    <defs>
        <linearGradient x1="50%" y1="-14.2052797%" x2="50%" y2="108.940484%" id="linearGradient-1">
            <stop stop-color="#006EFF" offset="0%"></stop>
            <stop stop-color="#00C8DC" offset="100%"></stop>
        </linearGradient>
        <circle id="path-2" cx="24" cy="24" r="24"></circle>
        <filter x="-52.1%" y="-47.9%" width="204.2%" height="204.2%" filterUnits="objectBoundingBox" id="filter-3">
            <feOffset dx="0" dy="2" in="SourceAlpha" result="shadowOffsetOuter1"></feOffset>
            <feGaussianBlur stdDeviation="8" in="shadowOffsetOuter1" result="shadowBlurOuter1"></feGaussianBlur>
            <feColorMatrix values="0 0 0 0 0   0 0 0 0 0.431372549   0 0 0 0 1  0 0 0 0.2 0" type="matrix" in="shadowBlurOuter1"></feColorMatrix>
        </filter>
    </defs>
    <g id="浅色版本" stroke="none" stroke-width="1" fill="none" fill-rule="evenodd">
        <g id="消息列表" transform="translate(-148.000000, -664.000000)">
            <g id="编组-6" transform="translate(148.000000, 664.000000)">
                <g id="编组" transform="translate(16.000000, 16.000000)">
                    <g id="椭圆形">
                        <use fill="black" fill-opacity="1" filter="url(#filter-3)" xlink:href="#path-2"></use>
                        <use fill="url(#linearGradient-1)" fill-rule="evenodd" xlink:href="#path-2"></use>
                    </g>
                    <path d="M24,15 C24.5522847,15 25,15.4477153 25,16 L24.999,23 L32,23 C32.5522847,23 33,23.4477153 33,24 C33,24.5522847 32.5522847,25 32,25 L24.999,25 L25,32 C25,32.5522847 24.5522847,33 24,33 C23.4477153,33 23,32.5522847 23,32 L22.999,25 L16,25 C15.4477153,25 15,24.5522847 15,24 C15,23.4477153 15.4477153,23 16,23 L22.999,23 L23,16 C23,15.4477153 23.4477153,15 24,15 Z" id="形状结合" fill="#FFFFFF"></path>
                </g>
            </g>
        </g>
    </g>
</svg>