<?xml version="1.0" encoding="UTF-8"?>
<svg xmlns="http://www.w3.org/2000/svg" xmlns:xlink="http://www.w3.org/1999/xlink" width="16px" height="16px" viewBox="0 0 16 16" version="1.1">
  <title>编组 9备份 4</title>
  <defs>
    <rect id="path-1" x="1" y="1" width="14" height="14" rx="2.25"></rect>
    <mask id="mask-2" maskContentUnits="userSpaceOnUse" maskUnits="objectBoundingBox" x="0" y="0" width="14" height="14" fill="white">
      <use xlink:href="#path-1"></use>
    </mask>
  </defs>
  <g id="new" stroke="none" stroke-width="1" fill="none" fill-rule="evenodd" opacity="0.795168922">
    <g id="消息列表" transform="translate(-1040.000000, -700.000000)">
      <g id="输入框" transform="translate(796.000000, 686.000000)">
        <g id="编组-11" transform="translate(20.000000, 11.000000)">
          <g transform="translate(0.000000, 3.000000)" id="编组-9备份-4">
            <g transform="translate(224.000000, 0.000000)">
              <rect id="矩形" x="0" y="0" width="16" height="16"></rect>
              <use id="矩形" stroke="#232832" mask="url(#mask-2)" stroke-width="2" stroke-dasharray="0,0" transform="translate(8.000000, 8.000000) rotate(-90.000000) translate(-8.000000, -8.000000) " xlink:href="#path-1"></use>
              <path d="M7.90693177,10.0489289 L6.00755342,11.0474912 C5.9097845,11.0988913 5.78885907,11.061302 5.73745891,10.9635331 C5.7169911,10.924601 5.70992816,10.8800074 5.71736353,10.8366559 L6.08011252,8.72166698 C6.09124011,8.65678817 6.06973041,8.59058813 6.02259319,8.5446407 L4.48596383,7.04679726 C4.40686711,6.96969701 4.40524865,6.84307436 4.48234889,6.76397764 C4.51305061,6.73248092 4.55327909,6.71198348 4.5968065,6.70565858 L6.72037606,6.39708586 C6.78551809,6.38762017 6.84183121,6.34670629 6.87096361,6.2876776 L7.82065278,4.36339715 C7.86953724,4.26434642 7.98946241,4.22367862 8.08851314,4.27256308 C8.12795566,4.29202912 8.15988117,4.32395463 8.17934722,4.36339715 L9.12903639,6.2876776 C9.15816879,6.34670629 9.21448191,6.38762017 9.27962394,6.39708586 L11.4031935,6.70565858 C11.5125025,6.7215421 11.5882388,6.82303067 11.5723552,6.93233965 C11.5660303,6.97586705 11.5455329,7.01609553 11.5140362,7.04679726 L9.97740681,8.5446407 C9.93026959,8.59058813 9.90875989,8.65678817 9.91988748,8.72166698 L10.2826365,10.8366559 C10.3013087,10.9455231 10.2281911,11.0489143 10.1193238,11.0675865 C10.0759723,11.0750219 10.0313787,11.067959 9.99244658,11.0474912 L8.09306823,10.0489289 C8.03480342,10.0182972 7.96519658,10.0182972 7.90693177,10.0489289 Z" id="星形" stroke="#232832"></path>
            </g>
          </g>
        </g>
      </g>
    </g>
  </g>
</svg>
