<?xml version="1.0" encoding="UTF-8"?>
<svg xmlns="http://www.w3.org/2000/svg" xmlns:xlink="http://www.w3.org/1999/xlink" width="24px" height="24px" viewBox="0 0 24 24" version="1.1">
  <title>编组 8</title>
  <g id="页面-2备份" stroke="none" stroke-width="1" fill="none" fill-rule="evenodd">
    <g id="更多" transform="translate(-498.000000, -389.000000)">
      <g id="左侧边栏" transform="translate(480.000000, 220.000000)">
        <g id="编组-8" transform="translate(18.000000, 169.000000)">
          <rect id="矩形" x="0" y="0" width="24" height="24"></rect>
          <rect id="矩形" stroke="#999999" transform="translate(19.000000, 8.500000) scale(1, -1) translate(-19.000000, -8.500000) " x="16.5" y="8.5" width="5" height="1" rx="0.5"></rect>
          <rect id="矩形备份-2" stroke="#999999" x="16.5" y="11.5" width="5" height="1" rx="0.5"></rect>
          <rect id="矩形备份-3" stroke="#999999" x="18.5" y="14.5" width="3" height="1" rx="0.5"></rect>
          <path d="M9,3.5 C9.9652364,3.5 10.8385592,3.90102188 11.4709238,4.54775835 C12.1073095,5.19860738 12.5,6.09799921 12.5,7.09090909 C12.5,8.1638596 12.0512293,9.33155704 11.3410312,10.2031638 C10.7279048,10.9556371 9.91231344,11.5 9,11.5 C8.08768656,11.5 7.27209516,10.9556371 6.65896878,10.2031638 C5.94877068,9.33155704 5.5,8.1638596 5.5,7.09090909 C5.5,6.09799921 5.89269049,5.19860738 6.52907621,4.54775835 C7.16144075,3.90102188 8.0347636,3.5 9,3.5 L9,3.5 Z" id="椭圆形" stroke="#999999"></path>
          <path d="M12,13.5 C12.9664983,13.5 13.8414983,13.8917508 14.4748737,14.5251263 C15.1082492,15.1585017 15.5,16.0335017 15.5,17 L15.5,17 L15.5,20 L3,20.5 L2.5,17 C2.5,16.0335017 2.89175084,15.1585017 3.52512627,14.5251263 C4.15850169,13.8917508 5.03350169,13.5 6,13.5 L6,13.5 Z" id="矩形" stroke="#999999"></path>
        </g>
      </g>
    </g>
  </g>
</svg>
