<svg xmlns="http://www.w3.org/2000/svg" width="80" height="80" viewBox="0 0 80 80">
  <g fill="none" fill-rule="evenodd">
    <rect width="80" height="80" fill="#006EFF"/>
    <path fill="#FFF" fill-rule="nonzero" d="M48.8787513 22.0345886C54.5430264 22.4822957 59 27.2206569 59 33 59 39.0751322 54.0751322 44 48 44 46.5820136 44 45.2266929 43.7316959 43.9820357 43.2430855 45.3139077 42.3376321 46.5013838 41.2375692 47.5040817 39.9833365 47.667643 39.9941617 47.8331397 40 48 40 51.8659932 40 55 36.8659932 55 33 55 30.05928 53.1866356 27.542094 50.6171001 26.5056352 50.2752003 24.969467 49.7116482 23.51546 48.9620253 22.1799421zM49 46C57.1794071 46 63.8297302 52.5467864 63.9967822 60.6861718L64 61 60 61C60 55.8794955 56.5012848 51.5761598 51.7640307 50.3501693 50.5368955 48.7265682 49.0795833 47.286987 47.4405351 46.0798551 47.9535516 46.0271145 48.4736093 46 49 46z"/>
    <path fill="#FFF" fill-rule="nonzero" d="M35 17C27.8202983 17 22 22.8202983 22 30 22 37.1797017 27.8202983 43 35 43 42.1797017 43 48 37.1797017 48 30 48 22.8202983 42.1797017 17 35 17zM35 21C39.9705627 21 44 25.0294373 44 30 44 34.9705627 39.9705627 39 35 39 30.0294373 39 26 34.9705627 26 30 26 25.0294373 30.0294373 21 35 21zM35 45C44.8306685 45 52.8206815 52.8807833 52.9970237 62.6693348L53 63 49 63C49 55.2680135 42.7319865 49 35 49 27.3724998 49 21.1696731 55.0997524 21.003422 62.687355L21 63 17 63C17 53.0588745 25.0588745 45 35 45z"/>
  </g>
</svg>
