<?xml version="1.0" encoding="UTF-8"?>
<svg width="64px" height="64px" viewBox="0 0 64 64" version="1.1" xmlns="http://www.w3.org/2000/svg" xmlns:xlink="http://www.w3.org/1999/xlink">
    <!-- Generator: Sketch 61.2 (89653) - https://sketch.com -->
    <title>服务评价</title>
    <desc>Created with Sketch.</desc>
    <g id="浅色版本" stroke="none" stroke-width="1" fill="none" fill-rule="evenodd">
        <g id="在线客服-更多功能" transform="translate(-201.000000, -677.000000)">
            <g id="编组-22" transform="translate(201.000000, 677.000000)">
                <g id="编组-13">
                    <rect id="矩形备份-11" fill="#FFFFFF" x="0" y="0" width="64" height="64" rx="4"></rect>
                    <circle id="椭圆形" fill="#444444" cx="32" cy="32" r="14"></circle>
                    <path d="M32,35.5 L29.6789754,36.7202349 C29.1901308,36.9772357 28.5855036,36.7892891 28.3285028,36.3004446 C28.2261638,36.1057841 28.1908491,35.882816 28.2280259,35.6660584 L28.6713022,33.0815595 L28.6713022,33.0815595 L26.7935538,31.2512072 C26.3980703,30.865706 26.389978,30.2325927 26.7754792,29.8371091 C26.9289878,29.6796255 27.1301302,29.5771383 27.3477672,29.5455138 L29.9427516,29.1684405 L29.9427516,29.1684405 L31.1032639,26.8169858 C31.3476862,26.3217321 31.9473121,26.1183931 32.4425657,26.3628154 C32.6397783,26.4601456 32.7994058,26.6197731 32.8967361,26.8169858 L34.0572484,29.1684405 L34.0572484,29.1684405 L36.6522328,29.5455138 C37.1987777,29.6249314 37.5774591,30.1323743 37.4980415,30.6789192 C37.466417,30.8965562 37.3639298,31.0976986 37.2064462,31.2512072 L35.3286978,33.0815595 L35.3286978,33.0815595 L35.7719741,35.6660584 C35.8653351,36.2103948 35.4997472,36.7273507 34.9554108,36.8207118 C34.7386532,36.8578886 34.5156851,36.8225739 34.3210246,36.7202349 L32,35.5 L32,35.5 Z" id="星形" fill="#FFFFFF"></path>
                </g>
            </g>
        </g>
    </g>
</svg>
