<?xml version="1.0" encoding="UTF-8"?>
<svg width="64px" height="64px" viewBox="0 0 64 64" version="1.1" xmlns="http://www.w3.org/2000/svg" xmlns:xlink="http://www.w3.org/1999/xlink">
    <!-- Generator: Sketch 61.2 (89653) - https://sketch.com -->
    <title>视频通话</title>
    <desc>Created with Sketch.</desc>
    <g id="浅色版本" stroke="none" stroke-width="1" fill="none" fill-rule="evenodd">
        <g id="在线客服-更多功能" transform="translate(-110.000000, -677.000000)">
            <g id="编组-21" transform="translate(110.000000, 677.000000)">
                <g id="编组-14">
                    <rect id="矩形备份-10" fill="#FFFFFF" x="0" y="0" width="64" height="64" rx="4"></rect>
                    <path d="M41,19 C41.5522847,19 42,19.4477153 42,20 L42,21.499 L45.5527864,19.7236068 C46.0467649,19.4766175 46.6474379,19.6768419 46.8944272,20.1708204 C46.9638549,20.3096758 47,20.4627889 47,20.618034 L47,26.381966 C47,26.9342508 46.5522847,27.381966 46,27.381966 C45.8447549,27.381966 45.6916418,27.3458209 45.5527864,27.2763932 L42,25.5 L42,27 C42,27.5522847 41.5522847,28 41,28 L33,28 C32.4477153,28 32,27.5522847 32,27 L32,20 C32,19.4477153 32.4477153,19 33,19 L41,19 Z" id="形状结合" fill="#444444"></path>
                    <path d="M41.9986662,38.8933334 L41.9986662,43.608 C41.9989835,44.3083925 41.4573708,44.8896393 40.7587352,44.9386667 C40.1761009,44.9786667 39.7001273,45 39.3321478,45 C27.5501359,45 18,35.4493335 18,23.666667 C18,23.298667 18.0199989,22.822667 18.0613299,22.2400003 C18.1103546,21.5413258 18.6915691,20.9996831 19.3919226,21 L24.1063273,21 C24.4489403,20.9996534 24.7360293,21.2590856 24.7702904,21.6000003 C24.8009554,21.906667 24.8289538,22.150667 24.855619,22.3360003 C25.1205832,24.1852312 25.6635778,25.983776 26.4661961,27.6706669 C26.5928558,27.9373336 26.5101937,28.2560002 26.270207,28.4266669 L23.3930336,30.4826669 C25.152207,34.5819353 28.4188191,37.848729 32.5178598,39.6080001 L34.571079,36.7360001 C34.7442701,36.493861 35.0658369,36.4102378 35.3350366,36.5373335 C37.0216382,37.3384875 38.8196156,37.8801583 40.6680735,38.1440001 C40.8533966,38.1706668 41.097383,38.2000001 41.4013661,38.2293334 C41.7417337,38.2642346 42.0004154,38.5511626 42,38.8933334 L41.9986662,38.8933334 Z" id="路径备份" fill="#444444" fill-rule="nonzero"></path>
                </g>
            </g>
        </g>
    </g>
</svg>
