<?xml version="1.0" encoding="UTF-8"?>
<svg xmlns="http://www.w3.org/2000/svg" xmlns:xlink="http://www.w3.org/1999/xlink" width="48px" height="48px" viewBox="0 0 48 48" version="1.1">
  <title>编组 8</title>
  <g id="页面-1" stroke="none" stroke-width="1" fill="none" fill-rule="evenodd">
    <g id="通讯页" transform="translate(-123.000000, -1406.000000)">
      <g id="编组-15" transform="translate(0.000000, 1378.000000)">
        <g id="编组-12备份-5" transform="translate(32.000000, 12.000000)">
          <g id="编组-8" transform="translate(91.000000, 16.000000)">
            <rect id="矩形" x="0" y="0" width="48" height="48"></rect>
            <path d="M24,5 C34.4934102,5 43,13.5065898 43,24 C43,34.1653543 35.0169798,42.4661744 24.9781429,42.9752568 L25.004234,43 L7,43 C5.8954305,43 5,42.1045695 5,41 L5,23 L5.02459166,23.0248508 C5.53217539,12.9846073 13.8336352,5 24,5 Z M24,25 L14,25 C13.4477153,25 13,25.4477153 13,26 L13,26 L13,28 C13,28.5522847 13.4477153,29 14,29 L14,29 L24,29 C24.5522847,29 25,28.5522847 25,28 L25,28 L25,26 C25,25.4477153 24.5522847,25 24,25 L24,25 Z M34,17 L14,17 C13.4477153,17 13,17.4477153 13,18 L13,18 L13,20 C13,20.5522847 13.4477153,21 14,21 L14,21 L34,21 C34.5522847,21 35,20.5522847 35,20 L35,20 L35,18 C35,17.4477153 34.5522847,17 34,17 L34,17 Z" id="形状结合" fill="#A0A3A6"></path>
          </g>
        </g>
      </g>
    </g>
  </g>
</svg>
