<?xml version="1.0" encoding="UTF-8"?>
<svg xmlns="http://www.w3.org/2000/svg" xmlns:xlink="http://www.w3.org/1999/xlink" width="24px" height="24px" viewBox="0 0 24 24" version="1.1">
  <title>编组 8</title>
  <g id="new" stroke="none" stroke-width="1" fill="none" fill-rule="evenodd">
    <g id="ICON" transform="translate(-58.000000, -20.000000)">
      <g id="编组-8" transform="translate(58.000000, 20.000000)">
        <g id="编组-18" transform="translate(3.000000, 3.000000)" stroke="#999999">
          <path d="M9,0.5 C11.3472102,0.5 13.4722102,1.45139491 15.0104076,2.98959236 C16.5486051,4.52778981 17.5,6.65278981 17.5,9 C17.5,11.2679988 16.6117526,13.3285462 15.1641141,14.8526931 C13.7116662,16.3819037 11.6961744,17.3713309 9.44969786,17.4883204 L9.44969786,17.4883204 L1.33333333,17.5 C1.10321469,17.5 0.894881354,17.406726 0.744077682,17.2559223 C0.59327401,17.1051186 0.5,16.8967853 0.5,16.6666667 L0.5,16.6666667 L0.5,8.53977783 C0.62256394,6.29760907 1.61581474,4.28394186 3.14775549,2.83262957 C4.67315258,1.38751653 6.73292542,0.5 9,0.5 Z" id="形状结合"></path>
        </g>
        <rect id="矩形" x="0" y="0" width="24" height="24"></rect>
      </g>
    </g>
  </g>
</svg>
