<?xml version="1.0" encoding="UTF-8"?>
<svg xmlns="http://www.w3.org/2000/svg" xmlns:xlink="http://www.w3.org/1999/xlink" width="48px" height="48px" viewBox="0 0 48 48" version="1.1">
  <title>编组 8</title>
  <g id="页面-1" stroke="none" stroke-width="1" fill="none" fill-rule="evenodd">
    <g id="消息页" transform="translate(-580.000000, -1405.000000)" fill="#B0B4B8">
      <g id="编组-15" transform="translate(0.000000, 1378.000000)">
        <g id="编组-12备份-5" transform="translate(32.000000, 12.000000)">
          <g id="编组-6" transform="translate(457.000000, 0.000000)">
            <g id="编组-8" transform="translate(91.000000, 15.000000)">
              <path d="M31,26 C35.418278,26 39,29.581722 39,34 L39,40 C39,41.1045695 38.1045695,42 37,42 L11,42 C9.8954305,42 9,41.1045695 9,40 L9,34 C9,29.581722 12.581722,26 17,26 L31,26 Z M24.0020419,6 C28.9737572,6 33.0040839,10.0294125 33.0040839,15 C33.0040839,19.9705875 28.9737572,24 24.0020419,24 C19.0303267,24 15,19.9705875 15,15 C15,10.0294125 19.0303267,6 24.0020419,6 Z" id="形状结合"></path>
            </g>
          </g>
        </g>
      </g>
    </g>
  </g>
</svg>
