<?xml version="1.0" encoding="UTF-8"?>
<svg width="24px" height="24px" viewBox="0 0 24 24" version="1.1" xmlns="http://www.w3.org/2000/svg" xmlns:xlink="http://www.w3.org/1999/xlink">
	<title>
		ic_聊天头栏_邀请其他人
	</title>
	<g id="PC补齐界面" stroke="none" stroke-width="1" fill="none" fill-rule="evenodd">
		<g id="画板" transform="translate(-16.000000, -172.000000)">
			<g id="ic_聊天头栏_邀请其他人" transform="translate(16.000000, 172.000000)">
				<rect id="矩形" x="0" y="0" width="24" height="24">
				</rect>
				<path d="M10.3600368,3.25 C12.60379,3.25 14.3132252,5.06523405 14.3132252,7.50776148 C14.3132252,9.10889948 13.5922113,10.7769949 12.4848324,11.7513298 L12.391,11.829 L12.3659779,11.9559332 C12.3636858,11.9673965 12.363761,11.9790796 12.3660631,11.9903029 L12.3795096,12.0219147 C12.4197918,12.0805207 12.4714817,12.1300476 12.5450608,12.1743789 L14.072747,12.9607602 C14.4411266,13.1501523 14.5862246,13.6023156 14.3968325,13.9706952 C14.223223,14.3083764 13.8288128,14.4584392 13.4805373,14.3352244 L13.3868975,14.2947806 L11.9732885,13.5670167 C11.6385494,13.4150052 11.3516092,13.1745605 11.1433539,12.871573 C10.9309548,12.5625566 10.8358474,12.189844 10.8717229,11.8197596 L10.8951575,11.6615063 L11.0345235,10.9660821 L11.2804281,10.7937278 C12.1609548,10.1765676 12.8132252,8.79919323 12.8132252,7.50776148 C12.8132252,5.87419233 11.7545551,4.75 10.3600368,4.75 C8.96551854,4.75 7.90684847,5.87419233 7.90684847,7.50776148 C7.90684847,8.72299863 8.48442693,10.0143733 9.28631301,10.6767661 L9.43920901,10.7934217 L9.68456414,10.9654767 L9.82498002,11.6618253 C9.90900626,12.0820546 9.81946159,12.5184113 9.57671971,12.871573 C9.40317368,13.1240626 9.17498528,13.3331197 8.91002855,13.4837613 L8.7467853,13.5670167 L8.26775685,13.784553 L7.48333545,14.1497258 L6.70592918,14.5296127 L5.87340074,14.9461957 C5.14839965,15.3089738 4.62510904,15.9735763 4.43913002,16.756363 L4.40226128,16.9390205 L4.32336879,17.4086524 L4.31472391,17.472856 C4.29806684,17.6727875 4.42591012,17.8513631 4.61105256,17.9056295 L4.6936532,17.9209756 L6.92794814,18.1072103 C7.78420861,18.1785821 8.64234621,18.2232154 9.50111027,18.2410713 L10.3600368,18.25 L11.1868115,18.244039 C11.7134384,18.235456 12.202488,18.2163875 12.7231702,18.1792301 C13.3334777,18.1356766 13.8479159,18.0719735 14.2304112,17.9879085 C14.6349692,17.8989946 15.0350073,18.1548746 15.1239212,18.5594327 C15.2128351,18.9639907 14.956955,19.3640287 14.552397,19.4529427 C14.086705,19.5552926 13.506421,19.6271495 12.8299433,19.6754251 C12.5163692,19.6978027 12.1903294,19.7145189 11.854933,19.7264149 L11.0954956,19.7453297 L10.3640857,19.75 C9.47081995,19.75 8.58004886,19.722237 7.69136044,19.6667515 L6.803351,19.6020266 L4.56905608,19.4157918 C3.56535491,19.3321305 2.80728616,18.4885363 2.81589141,17.4715181 L2.82308279,17.317738 L2.83933808,17.1925328 L2.92266105,16.6924781 C3.13196501,15.4363607 3.89481084,14.3458153 4.99248517,13.7171502 L5.20216948,13.6047604 L6.03469793,13.1881774 C6.38985451,13.0104632 6.74722115,12.8372207 7.10671306,12.6684905 L7.64753428,12.4187844 L8.12656283,12.201248 C8.21286452,12.1620567 8.28685444,12.1000561 8.34056407,12.0219147 L8.35404065,11.9904527 L8.35433624,11.9571308 L8.328,11.829 L8.23462164,11.7507852 C7.18293829,10.8250897 6.47988802,9.27363018 6.4122122,7.7482922 L6.40684847,7.50776148 C6.40684847,5.06523405 8.11628369,3.25 10.3600368,3.25 Z M17.75,12.25 C18.1642136,12.25 18.5,12.5857864 18.5,13 L18.5,15 L20.5,15 C20.9142136,15 21.25,15.3357864 21.25,15.75 C21.25,16.1642136 20.9142136,16.5 20.5,16.5 L18.499,16.5 L18.5,18.5 C18.5,18.9142136 18.1642136,19.25 17.75,19.25 C17.3357864,19.25 17,18.9142136 17,18.5 L16.999,16.5 L15,16.5 C14.5857864,16.5 14.25,16.1642136 14.25,15.75 C14.25,15.3357864 14.5857864,15 15,15 L17,15 L17,13 C17,12.5857864 17.3357864,12.25 17.75,12.25 Z" id="形状" fill="#006eff" fill-rule="nonzero">
				</path>
			</g>
		</g>
	</g>
</svg>
