<?xml version="1.0" encoding="UTF-8"?>
<svg width="18px" height="18px" viewBox="0 0 18 18" version="1.1" xmlns="http://www.w3.org/2000/svg" xmlns:xlink="http://www.w3.org/1999/xlink">
    <title>ic_功能_at备份</title>
    <g id="PC补齐界面" stroke="none" stroke-width="1" fill="none" fill-rule="evenodd">
        <g id="画板" transform="translate(-62.000000, -137.000000)">
            <g id="ic_功能_at备份" transform="translate(62.000000, 137.000000)">
                <rect id="矩形" x="0" y="0" width="18" height="18"></rect>
                <path d="M8.99996561,0.25 C13.83245,0.25 17.75,4.16752029 17.75,9 L17.7477883,10.8103613 C17.6966143,11.4752399 17.4945271,12.0466139 17.133513,12.5060934 C16.6236379,13.1550353 15.8724821,13.4833333 15.0176525,13.4833333 C14.1616574,13.4833333 13.4730002,13.2128034 12.8854721,12.5332552 C12.7714645,12.4013915 12.6722107,12.2605561 12.5876118,12.111318 C11.7185922,13.115041 10.4334474,13.75 9,13.75 C6.37664744,13.75 4.25,11.6233526 4.25,9 C4.25,6.37664744 6.37664744,4.25 9,4.25 C10.3026922,4.25 11.4829033,4.77440376 12.3410485,5.62362638 C12.4734382,5.41825066 12.7052987,5.28223056 12.9689283,5.28223056 C13.3486241,5.28223056 13.6624193,5.56438444 13.7120817,5.93046 L13.7189283,6.03223056 L13.7197784,8.46120021 C13.7397442,8.63804085 13.75,8.81782274 13.75,9 C13.75,9.18217726 13.7397442,9.36195915 13.7197784,9.53879979 L13.7189283,10.6061265 C13.7189283,11.0182269 13.8213192,11.3222092 14.0201732,11.5522081 C14.3010878,11.8771202 14.5714625,11.9833333 15.0176525,11.9833333 C15.4324816,11.9833333 15.7434031,11.8474429 15.9540286,11.5793699 C16.0928621,11.40267 16.1868799,11.1728196 16.2301646,10.9124841 L16.25,10.7528059 L16.25,9 C16.25,4.99594996 13.0040254,1.75 8.99996561,1.75 C4.99592089,1.75 1.75,4.99593484 1.75,9 C1.75,13.0040652 4.99592089,16.25 8.99996561,16.25 C10.7322233,16.25 12.3686811,15.6413902 13.6663154,14.5488821 C13.9831804,14.2821061 14.4563149,14.3227113 14.7230909,14.6395764 C14.9898669,14.9564414 14.9492616,15.429576 14.6323966,15.6963519 C13.066798,17.0144654 11.089059,17.75 8.99996561,17.75 C4.16749232,17.75 0.25,13.8324908 0.25,9 C0.25,4.16750916 4.16749232,0.25 8.99996561,0.25 Z M9,5.75 C7.20507456,5.75 5.75,7.20507456 5.75,9 C5.75,10.7949254 7.20507456,12.25 9,12.25 C10.6440154,12.25 12.0029242,11.0293134 12.2198061,9.44486036 L12.2198061,8.55513964 C12.0029242,6.97068662 10.6440154,5.75 9,5.75 Z" id="形状" fill="#006EFF" fill-rule="nonzero"></path>
            </g>
        </g>
    </g>
</svg>