<?xml version="1.0" standalone="no"?><!DOCTYPE svg PUBLIC "-//W3C//DTD SVG 1.1//EN" "http://www.w3.org/Graphics/SVG/1.1/DTD/svg11.dtd"><svg t="1632817019833" class="icon" viewBox="0 0 1024 1024" version="1.1" xmlns="http://www.w3.org/2000/svg" p-id="7846" width="16" height="16" xmlns:xlink="http://www.w3.org/1999/xlink"><defs><style type="text/css"></style></defs><path d="M796.83 514.036q45.805 0 86.52 17.304t71.253 47.84 48.35 71.253 17.813 86.521-17.813 86.521-48.35 71.253-71.253 48.35-86.52 17.813q-46.824 0-87.54-17.813t-71.252-48.35-47.84-71.253-17.305-86.52 17.304-86.522 47.841-71.252 71.253-47.841 87.538-17.304z m110.95 257.527q15.268 0 25.956-9.161t10.688-24.43-10.688-25.956-25.956-10.688H687.915q-15.269 0-25.956 10.688t-10.688 25.956 10.688 24.43 25.956 9.16H907.78z m-407.157 58.02q4.071 20.357 13.232 42.751t26.974 45.296 44.788 45.296 68.707 41.734q-27.483 6.107-64.127 10.179-31.555 4.072-76.342 6.616T411.048 1024q-29.519 0-68.199-2.036t-80.413-5.598-82.45-8.652-74.306-10.18-57.002-10.178-29.519-10.18Q8.98 969.035 3.382 927.3t4.58-107.896q6.108-37.662 30.537-57.511t57.511-31.555 68.2-20.867 62.6-26.465q21.375-13.233 33.081-25.956t16.286-24.939 4.58-25.447-1.017-29.519q-2.036-23.411-16.286-37.153T232.917 512q-8.143-7.125-14.76-19.849t-11.705-25.956q-5.09-15.269-10.18-32.573-7.125-2.036-14.25-7.125-6.107-5.09-12.723-14.25t-11.706-26.466q-6.108-17.304-4.58-31.554t5.598-25.448 13.232-21.375q0-38.68 4.072-77.36 4.071-32.573 14.25-70.235t31.555-67.18q19.34-28.502 43.26-46.824t48.35-28.5 49.368-13.742T411.048 0q29.519 0 57.002 7.125t50.895 18.322 41.733 25.448 29.52 28.5q26.464 32.573 38.68 71.762t17.303 74.815q5.09 40.716 5.09 82.45 7.125 5.089 11.197 13.232 4.071 7.125 6.616 18.322t0.509 28.501q-2.036 21.376-8.652 34.1t-14.76 19.848q-9.16 8.144-19.34 11.197-5.09 17.304-10.179 32.573-5.09 13.232-11.705 25.956T590.197 512q-9.16 8.143-14.25 16.286t-8.143 16.287-6.617 17.813-10.688 19.849q-47.84 73.288-55.475 132.326t5.599 115.022z" p-id="7847" fill="#ffffff"></path></svg>