<?xml version="1.0" encoding="UTF-8"?>
<svg width="36px" height="36px" viewBox="0 0 36 36" version="1.1" xmlns="http://www.w3.org/2000/svg" xmlns:xlink="http://www.w3.org/1999/xlink">
    <title>ic_列表_多人</title>
    <g id="PC补齐界面" stroke="none" stroke-width="1" fill="none" fill-rule="evenodd">
        <g id="画板" transform="translate(-66.000000, -350.000000)">
            <g id="ic_列表_多人" transform="translate(66.000000, 350.000000)">
                <g id="编组-2" fill="#006EFF" fill-rule="nonzero">
                    <circle id="椭圆形" cx="18" cy="18" r="18"></circle>
                </g>
                <g id="icon/user/users--middle_solid" transform="translate(9.000000, 9.000000)" fill="#FFFFFF">
                    <path d="M7.6,8.5 C9.45322216,8.5 11.1515197,9.15943193 12.4704298,10.2551455 L12.6176778,10.3817516 C13.0395646,10.8063634 13.4998534,11.3761819 13.7359372,11.7912001 C13.7365706,11.3639138 13.6167768,10.8968031 13.3765558,10.389868 L13.3,10.3888889 C16.4480231,10.3888889 19,12.925942 19,16.0555556 L19,17 L15.1411228,17.0006226 L15.141,16.999 L0,17 L0,16.0555556 C0,11.8827374 3.4026359,8.5 7.6,8.5 Z M13.775,4.72222222 C15.0866763,4.72222222 16.15,5.77932767 16.15,7.08333333 C16.15,8.38733899 15.0866763,9.44444444 13.775,9.44444444 C12.4633237,9.44444444 11.4,8.38733899 11.4,7.08333333 C11.4,5.77932767 12.4633237,4.72222222 13.775,4.72222222 Z M7.6,0 C9.69868205,0 11.4,1.69136872 11.4,3.77777778 C11.4,5.86418683 9.69868205,7.55555556 7.6,7.55555556 C5.50131795,7.55555556 3.8,5.86418683 3.8,3.77777778 C3.8,1.69136872 5.50131795,0 7.6,0 Z" id="合并形状"></path>
                </g>
            </g>
        </g>
    </g>
</svg>