<?xml version="1.0" encoding="UTF-8"?>
<svg width="36px" height="36px" viewBox="0 0 36 36" version="1.1" xmlns="http://www.w3.org/2000/svg" xmlns:xlink="http://www.w3.org/1999/xlink">
    <title>ic_列表_联系我们</title>
    <defs>
        <circle id="path-1" cx="18" cy="18" r="18"></circle>
    </defs>
    <g id="PC补齐界面" stroke="none" stroke-width="1" fill="none" fill-rule="evenodd">
        <g id="画板" transform="translate(-169.000000, -410.000000)">
            <g id="ic_列表_联系我们" transform="translate(169.000000, 410.000000)">
                <mask id="mask-2" fill="white">
                    <use xlink:href="#path-1"></use>
                </mask>
                <use id="蒙版" fill="#B3733A" fill-rule="nonzero" xlink:href="#path-1"></use>
                <path d="M18,23.9872286 C15.8094583,23.9872286 13.9165833,22.4481645 13.390125,20.3754948 L15.0510417,20.3754948 C15.5220833,21.5590858 16.6763333,22.4038293 18,22.4038293 C19.3220833,22.4038293 20.477125,21.5590858 20.9481667,20.3754948 L22.609875,20.3754948 C22.0834167,22.4473728 20.1905417,23.9872286 18,23.9872286 M14.4375,14.0411059 C15.093,14.0411059 15.625,14.573128 15.625,15.2286554 C15.625,15.8849744 15.093,16.4162048 14.4375,16.4162048 C13.7812083,16.4162048 13.25,15.8849744 13.25,15.2286554 C13.25,14.573128 13.7812083,14.0411059 14.4375,14.0411059 M21.5625,14.0411059 C22.218,14.0411059 22.75,14.573128 22.75,15.2286554 C22.75,15.8849744 22.218,16.4162048 21.5625,16.4162048 C20.9062083,16.4162048 20.375,15.8849744 20.375,15.2286554 C20.375,14.573128 20.9062083,14.0411059 21.5625,14.0411059 M18,8.5 C12.7615417,8.5 8.5,12.7617192 8.5,18.0003958 C8.5,23.2390725 12.7615417,27.5 18,27.5 C23.2376667,27.5 27.5,23.2390725 27.5,18.0003958 C27.5,12.7617192 23.2376667,8.5 18,8.5" id="Fill-435" fill="#FFFFFF"></path>
            </g>
        </g>
    </g>
</svg>