<?xml version="1.0" encoding="UTF-8"?>
<svg width="24px" height="24px" viewBox="0 0 24 24" version="1.1" xmlns="http://www.w3.org/2000/svg" xmlns:xlink="http://www.w3.org/1999/xlink">
    <title>ic_通讯录备份 2</title>
    <g id="PC补齐界面" stroke="none" stroke-width="1" fill="none" fill-rule="evenodd">
        <g id="画板" transform="translate(-59.000000, -57.000000)">
            <g id="ic_通讯录备份-2" transform="translate(59.000000, 57.000000)">
                <rect id="矩形" x="0" y="0" width="24" height="24"></rect>
                <path d="M21,1 C22.1045695,1 23,1.8954305 23,3 L23,21 C23,22.1045695 22.1045695,23 21,23 L4,23 C2.8954305,23 2,22.1045695 2,21 L2,15 L1,15 C0.44771525,15 6.76353751e-17,14.5522847 0,14 C-6.76353751e-17,13.4477153 0.44771525,13 1,13 L2,13 L2,10 L1,10 C0.44771525,10 6.76353751e-17,9.55228475 0,9 C-6.76353751e-17,8.44771525 0.44771525,8 1,8 L2,8 L2,3 C2,1.8954305 2.8954305,1 4,1 L21,1 Z M11.4999526,6 C10.0684266,6 8.90794552,7.13324085 8.90794552,8.80620918 C8.90794552,10.0225221 9.52135899,11.3124258 10.4063736,11.9259882 L10.4063736,11.9259882 L10.47187,12.2471035 C10.5077217,12.4243658 10.4695155,12.6084307 10.3659495,12.7573951 C10.2599591,12.9098466 10.1139275,13.0308247 9.94357517,13.1073059 L9.94357517,13.1073059 L9.55594733,13.2813349 C9.12398442,13.4752685 8.69575423,13.6772314 8.2714846,13.887116 L8.2714846,13.887116 L7.59780598,14.2203825 C6.79240872,14.6188095 6.22835207,15.3741849 6.08030137,16.2525994 L6.08030137,16.2525994 L6.01287676,16.6526432 L6.00330817,16.7284691 C5.96007843,17.2414505 6.34556928,17.6919585 6.86432607,17.734707 L6.86432607,17.734707 L8.67230853,17.8836948 C10.5541432,18.0387684 12.4457621,18.0387684 14.3275968,17.8836948 L14.3275968,17.8836948 L16.1355792,17.734707 C16.1612592,17.7325908 16.1868405,17.7294341 16.2122588,17.7252449 C16.725731,17.640619 17.0726072,17.1603988 16.9870286,16.6526432 L16.9870286,16.6526432 L16.9196039,16.2525994 C16.7715532,15.3741849 16.2074966,14.6188095 15.4020994,14.2203825 L15.4020994,14.2203825 L14.7284207,13.887116 C14.304151,13.6772314 13.8759209,13.4752685 13.443958,13.2813349 L13.443958,13.2813349 L13.0563301,13.1073059 C12.8859778,13.0308247 12.7399462,12.9098466 12.6339558,12.7573951 C12.5303897,12.6084307 12.4921837,12.4243658 12.5280352,12.2471035 L12.5280352,12.2471035 L12.5930619,11.9263138 C13.4783292,11.3128823 14.0919598,10.0227373 14.0919598,8.80620918 C14.0919598,7.13324085 12.9314786,6 11.4999526,6 Z M18,11 L17,11 C16.4477153,11 16,11.4477153 16,12 C16,12.5522847 16.4477153,13 17,13 L17,13 L18,13 C18.5522847,13 19,12.5522847 19,12 C19,11.4477153 18.5522847,11 18,11 L18,11 Z M18,7 L16,7 C15.4477153,7 15,7.44771525 15,8 C15,8.55228475 15.4477153,9 16,9 L16,9 L18,9 C18.5522847,9 19,8.55228475 19,8 C19,7.44771525 18.5522847,7 18,7 L18,7 Z" id="形状结合" fill="#006EFF"></path>
            </g>
        </g>
    </g>
</svg>