<?xml version="1.0" encoding="UTF-8"?>
<svg width="14px" height="14px" viewBox="0 0 14 14" version="1.1" xmlns="http://www.w3.org/2000/svg" xmlns:xlink="http://www.w3.org/1999/xlink">
    <title>ic_修改</title>
    <g id="PC补齐界面" stroke="none" stroke-width="1" fill="none" fill-rule="evenodd">
        <g id="画板" transform="translate(-154.000000, -213.000000)" fill="#8F959E" fill-rule="nonzero">
            <g id="ic_修改" transform="translate(154.000000, 213.000000)">
                <path d="M11.7967558,3.64338339 C12.0483801,3.35099394 12.0170758,2.90882548 11.7267998,2.65526612 L10.0310649,1.17262103 C9.89194766,1.05047143 9.71027551,0.988959774 9.52605607,1.00163208 C9.34183664,1.01430438 9.17017775,1.10012139 9.04888188,1.2401846 L7.96129838,2.50137132 L10.7101051,4.90363172 L11.7967558,3.64338339 Z M7.31117342,3.25207769 L1.00859902,10.5517588 C0.984347588,10.5799103 1.01699375,11.8420354 1.03751419,12.5420691 C1.04508031,12.7956834 1.25168325,12.9972991 1.5038879,12.9971849 C2.26780805,12.9971849 3.73222152,12.9821707 3.75647295,12.9540192 L10.0590473,5.65621486 L7.31117342,3.25207769 Z M6.2291864,11.8626798 L5.19756774,13 L12.4403515,13 C12.7483806,12.9974493 12.9974646,12.7468603 13,12.4369702 C12.9974646,12.1270801 12.7483806,11.8764911 12.4403515,11.8739404 L6.2291864,11.8626798 Z" id="形状"></path>
            </g>
        </g>
    </g>
</svg>