<?xml version="1.0" standalone="no"?><!DOCTYPE svg PUBLIC "-//W3C//DTD SVG 1.1//EN" "http://www.w3.org/Graphics/SVG/1.1/DTD/svg11.dtd"><svg t="1630986216226" class="icon" viewBox="0 0 1024 1024" version="1.1" xmlns="http://www.w3.org/2000/svg" p-id="2867" width="64" height="64" xmlns:xlink="http://www.w3.org/1999/xlink"><defs><style type="text/css"></style></defs><path d="M575.986694 832.039919C575.986694 867.356032 547.316113 896.026613 512 896.026613 476.683887 896.026613 448.013306 867.356032 448.013306 832.039919 448.013306 796.723806 476.683887 768.048156 512 768.048156 547.316113 768.048156 575.986694 796.64777 575.986694 832.039919ZM512 255.997465C476.683887 255.997465 448.013306 284.668046 448.013306 319.984159L448.013306 639.998733C448.013306 675.314846 476.683887 703.990496 512 703.990496 547.316113 703.990496 575.986694 675.314846 575.986694 639.998733L575.986694 319.984159C575.986694 284.668046 547.316113 255.997465 512 255.997465ZM1023.979724 896.026613C1023.979724 966.729805 966.709529 1024.005069 896.006336 1024.005069L127.993664 1024.005069C57.290471 1024.005069 0.020276 966.658839 0.020276 896.026613 0.020276 874.868373 5.216059 854.931776 14.39105 837.311737L14.320083 837.24077 398.250384 69.304133 398.392317 69.304133C419.626593 28.133261 462.455047 0.040552 512 0.040552 561.544953 0.040552 604.373407 28.209297 625.67865 69.3751L1008.311272 834.711311C1018.348003 852.838256 1023.979724 873.783595 1023.979724 896.026613ZM959.99303 896.026613C959.99303 885.123073 957.392604 874.868373 952.191753 865.404445L951.613881 864.319667 951.112044 863.239958 568.621355 98.405584C557.499847 77.171308 535.834701 64.027246 512 64.027246 488.023365 64.027246 466.282184 77.318311 455.160675 98.765487L452.12938 104.544211 92.175714 824.527578 92.677551 825.034483 71.154339 866.778159C66.389426 875.948082 64.00697 885.842879 64.00697 896.097579 64.00697 931.413692 92.748517 960.089342 127.993664 960.089342L896.006336 960.089342C931.322449 960.013306 959.99303 931.342726 959.99303 896.026613Z" p-id="2868" fill="#d81e06"></path></svg>