<?xml version="1.0" encoding="UTF-8"?>
<svg width="18px" height="18px" viewBox="0 0 18 18" version="1.1" xmlns="http://www.w3.org/2000/svg" xmlns:xlink="http://www.w3.org/1999/xlink">
    <title>ic_功能_小脸备份</title>
    <g id="PC补齐界面" stroke="none" stroke-width="1" fill="none" fill-rule="evenodd">
        <g id="画板" transform="translate(-16.000000, -137.000000)">
            <g id="ic_功能_小脸备份" transform="translate(16.000000, 137.000000)">
                <rect id="矩形" x="0" y="0" width="18" height="18"></rect>
                <path d="M9,0 C13.9705627,0 18,4.02943725 18,9 C18,13.9705627 13.9705627,18 9,18 C4.02943725,18 0,13.9705627 0,9 C0,4.02943725 4.02943725,0 9,0 Z M9,1.5 C4.85786438,1.5 1.5,4.85786438 1.5,9 C1.5,13.1421356 4.85786438,16.5 9,16.5 C13.1421356,16.5 16.5,13.1421356 16.5,9 C16.5,4.85786438 13.1421356,1.5 9,1.5 Z M12.0469109,9.59593441 C12.4945566,9.72539599 12.7524957,10.1932338 12.6230341,10.6408795 C12.5002487,11.0654407 12.3131394,11.4647124 12.0698538,11.8236092 C11.3642465,12.8645266 10.2348354,13.5002185 9,13.5002185 C7.76516464,13.5002185 6.63575346,12.8645266 5.93014616,11.8236092 C5.68686058,11.4647124 5.49975129,11.0654407 5.37696586,10.6408795 C5.24750429,10.1932338 5.50544344,9.72539599 5.95308908,9.59593441 C6.40073473,9.46647284 6.86857256,9.72441199 6.99803414,10.1720576 C7.07167888,10.4267027 7.18317536,10.6646245 7.32696621,10.8767459 C7.72703534,11.466931 8.34138364,11.8127185 9,11.8127185 C9.65861636,11.8127185 10.2729647,11.466931 10.6730338,10.8767459 C10.8168246,10.6646245 10.9283211,10.4267027 11.0019659,10.1720576 C11.1314274,9.72441199 11.5992653,9.46647284 12.0469109,9.59593441 Z M5.7375,5.75 C6.26562229,5.75 6.69375,6.17812771 6.69375,6.70625 C6.69375,7.23437229 6.26562229,7.6625 5.7375,7.6625 C5.20937771,7.6625 4.78125,7.23437229 4.78125,6.70625 C4.78125,6.17812771 5.20937771,5.75 5.7375,5.75 Z M12.20625,5.75 C12.7343723,5.75 13.1625,6.17812771 13.1625,6.70625 C13.1625,7.23437229 12.7343723,7.6625 12.20625,7.6625 C11.6781277,7.6625 11.25,7.23437229 11.25,6.70625 C11.25,6.17812771 11.6781277,5.75 12.20625,5.75 Z" id="形状" fill="#006EFF" fill-rule="nonzero"></path>
            </g>
        </g>
    </g>
</svg>