<?xml version="1.0" encoding="UTF-8"?>
<svg width="18px" height="18px" viewBox="0 0 18 18" version="1.1" xmlns="http://www.w3.org/2000/svg" xmlns:xlink="http://www.w3.org/1999/xlink">
    <title>ic_功能_文件</title>
    <g id="PC补齐界面" stroke="none" stroke-width="1" fill="none" fill-rule="evenodd">
        <g id="画板" transform="translate(-154.000000, -110.000000)">
            <g id="ic_功能_文件" transform="translate(154.000000, 110.000000)">
                <rect id="矩形" x="0" y="0" width="18" height="18"></rect>
                <path d="M4.5,0 C5.18947432,0 5.819773,0.389546008 6.12811529,1.00623059 L6.375,1.5 L13.5,1.5 C15.0976809,1.5 16.4036609,2.74891996 16.4949073,4.32372721 L16.5,4.5 L16.5002535,4.6281189 C17.3740154,4.93706777 18,5.77043061 18,6.75 L18,15.75 C18,16.9926407 16.9926407,18 15.75,18 L2.25,18 C1.00735931,18 0,16.9926407 0,15.75 L0,2.25 C0,1.00735931 1.00735931,0 2.25,0 L4.5,0 Z M4.5,1.5 L2.25,1.5 C1.87030423,1.5 1.55650904,1.78215388 1.50684662,2.14822944 L1.5,2.25 L1.5,15.75 C1.5,16.1296958 1.78215388,16.443491 2.14822944,16.4931534 L2.25,16.5 L15.75,16.5 C16.1296958,16.5 16.443491,16.2178461 16.4931534,15.8517706 L16.5,15.75 L16.5,6.75 C16.5,6.37030423 16.2178461,6.05650904 15.8517706,6.00684662 L15.75,6 L7.875,6 C7.35418842,6 6.87435165,5.73026784 6.60228313,5.29388753 L6.53335921,5.17082039 L4.78647451,1.67705098 C4.74307109,1.59024415 4.66341185,1.52901562 4.57117037,1.50799648 L4.5,1.5 Z M7.125,3 L7.875,4.5 L15,4.5 C15,3.72030388 14.4051119,3.07955132 13.64446,3.00686658 L13.5,3 L7.125,3 Z" id="形状" fill="#BBBBBB" fill-rule="nonzero"></path>
            </g>
        </g>
    </g>
</svg>