<?xml version="1.0" encoding="UTF-8"?>
<svg width="36px" height="36px" viewBox="0 0 36 36" version="1.1" xmlns="http://www.w3.org/2000/svg" xmlns:xlink="http://www.w3.org/1999/xlink">
    <title>ic_列表_文件管理</title>
    <defs>
        <circle id="path-1" cx="18" cy="18" r="18"></circle>
    </defs>
    <g id="PC补齐界面" stroke="none" stroke-width="1" fill="none" fill-rule="evenodd">
        <g id="画板" transform="translate(-117.000000, -410.000000)">
            <g id="ic_列表_文件管理" transform="translate(117.000000, 410.000000)">
                <mask id="mask-2" fill="white">
                    <use xlink:href="#path-1"></use>
                </mask>
                <use id="蒙版" fill="#494FCF" fill-rule="nonzero" xlink:href="#path-1"></use>
                <polygon id="Fill-1" fill="#FFFFFF" points="22 8 22 13 27 13"></polygon>
                <path d="M14.2,23.0416667 L23.8,23.0416667 L23.8,21.4583333 L14.2,21.4583333 L14.2,23.0416667 Z M14.2,19.0833333 L23.8,19.0833333 L23.8,17.5 L14.2,17.5 L14.2,19.0833333 Z M20.6,14.3333333 L20.6,8 L11,8 L11,25.4166667 C11,26.2914583 11.716,27 12.6,27 L25.4,27 C26.284,27 27,26.2914583 27,25.4166667 L27,14.3333333 L20.6,14.3333333 Z" id="Fill-2" fill="#FFFFFF"></path>
            </g>
        </g>
    </g>
</svg>