<?xml version="1.0" encoding="UTF-8"?>
<svg width="94px" height="88px" viewBox="0 0 94 88" version="1.1" xmlns="http://www.w3.org/2000/svg" xmlns:xlink="http://www.w3.org/1999/xlink">
    <title>ic_禁止视频</title>
    <g id="PC补齐界面" stroke="none" stroke-width="1" fill="none" fill-rule="evenodd">
        <g id="画板" transform="translate(-12.000000, -611.000000)">
            <g id="ic_禁止视频" transform="translate(12.000000, 614.000000)">
                <path d="M72.8,21.0334283 L89.8165068,12.3342069 C91.0950601,11.6805817 92.6614004,12.187186 93.3150256,13.4657393 C93.5023318,13.832128 93.6,14.2377423 93.6,14.6492326 L93.6,68.5507674 C93.6,69.9867078 92.4359403,71.1507674 91,71.1507674 C90.5885097,71.1507674 90.1828954,71.0530992 89.8165068,70.8657931 L72.8,62.1665717 L72.8,62.1665717 L72.8,62.4 C72.8,68.1437614 68.1437614,72.8 62.4,72.8 L10.4,72.8 C4.6562386,72.8 2.47976474e-15,68.1437614 0,62.4 L0,20.8 C-7.03407901e-16,15.0562386 4.6562386,10.4 10.4,10.4 L62.4,10.4 C68.1437614,10.4 72.8,15.0562386 72.8,20.8 L72.8,21.0334283 L72.8,21.0334283 Z" id="合并形状" fill="#839EC0"></path>
                <line x1="59.8" y1="81.9" x2="14.3" y2="1.3" id="直线-2" stroke="#839EC0" stroke-width="5.2" stroke-linecap="round"></line>
                <line x1="65" y1="80.6" x2="19.5" y2="-4.79578183e-14" id="直线-2备份" stroke="#E8F2FF" stroke-width="5.2" stroke-linecap="round"></line>
            </g>
        </g>
    </g>
</svg>