<?xml version="1.0" encoding="UTF-8"?>
<svg width="24px" height="24px" viewBox="0 0 24 24" version="1.1" xmlns="http://www.w3.org/2000/svg" xmlns:xlink="http://www.w3.org/1999/xlink">
    <title>ic_任务备份</title>
    <g id="PC补齐界面" stroke="none" stroke-width="1" fill="none" fill-rule="evenodd">
        <g id="画板" transform="translate(-163.000000, -56.000000)">
            <g id="ic_任务备份" transform="translate(163.000000, 56.000000)">
                <rect id="矩形" x="0" y="0" width="24" height="24"></rect>
                <g id="编组-26" fill="#006EFF" fill-rule="nonzero">
                    <path d="M13.2903664,0.811297519 C13.3903291,0.886489601 13.4829064,0.970809997 13.5669363,1.06309679 L13.6864254,1.20735654 L17.934,6.85349157 L20,6.85355339 C21.1045695,6.85355339 22,7.74898389 22,8.85355339 L22,20.8535534 C22,21.9581229 21.1045695,22.8535534 20,22.8535534 L4,22.8535534 C2.8954305,22.8535534 2,21.9581229 2,20.8535534 L2,8.85355339 C2,7.74898389 2.8954305,6.85355339 4,6.85355339 L6.241,6.85349157 L10.4898062,1.20735654 C11.1537909,0.324634523 12.4076444,0.147312861 13.2903664,0.811297519 Z M17,9.85355339 L7,9.85355339 C5.8954305,9.85355339 5,10.7489839 5,11.8535534 L5,17.8535534 C5,18.9581229 5.8954305,19.8535534 7,19.8535534 L17,19.8535534 C18.1045695,19.8535534 19,18.9581229 19,17.8535534 L19,11.8535534 C19,10.7489839 18.1045695,9.85355339 17,9.85355339 Z M17,11.8535534 L17,17.8535534 L7,17.8535534 L7,11.8535534 L17,11.8535534 Z M12.0881158,2.40960711 L8.745,6.85349157 L15.431,6.85349157 L12.0881158,2.40960711 Z" id="形状结合"></path>
                </g>
            </g>
        </g>
    </g>
</svg>