<?xml version="1.0" encoding="UTF-8"?>
<svg width="24px" height="24px" viewBox="0 0 24 24" version="1.1" xmlns="http://www.w3.org/2000/svg" xmlns:xlink="http://www.w3.org/1999/xlink">
    <title>ic_搜索聊天记录备份</title>
    <g id="PC补齐界面" stroke="none" stroke-width="1" fill="none" fill-rule="evenodd">
        <g id="画板" transform="translate(-196.000000, -56.000000)">
            <g id="ic_搜索聊天记录备份" transform="translate(196.000000, 56.000000)">
                <rect id="矩形" x="0" y="0" width="24" height="24"></rect>
                <g id="编组-29" fill="#006EFF" fill-rule="nonzero">
                    <path d="M20.5,18 C21.3284271,18 22,18.6715729 22,19.5 C22,20.3284271 21.3284271,21 20.5,21 L3.5,21 C2.67157288,21 2,20.3284271 2,19.5 C2,18.6715729 2.67157288,18 3.5,18 L20.5,18 Z M16,4 C18.7614237,4 21,6.23857625 21,9 C21,9.96539983 20.7263974,10.8668963 20.2525035,11.6311782 L21.9142136,13.2928932 C22.5,13.8786797 22.5,14.8284271 21.9142136,15.4142136 C21.3284271,16 20.3786797,16 19.7928932,15.4142136 L17.9736695,13.5953702 C17.3681723,13.8557704 16.7009295,14 16,14 C13.2385763,14 11,11.7614237 11,9 C11,6.23857625 13.2385763,4 16,4 Z M8.5,11 C9.32842712,11 10,11.6715729 10,12.5 C10,13.3284271 9.32842712,14 8.5,14 L3.5,14 C2.67157288,14 2,13.3284271 2,12.5 C2,11.6715729 2.67157288,11 3.5,11 L8.5,11 Z M16,7 C14.8954305,7 14,7.8954305 14,9 C14,10.1045695 14.8954305,11 16,11 C17.1045695,11 18,10.1045695 18,9 C18,7.8954305 17.1045695,7 16,7 Z M8.5,4 C9.32842712,4 10,4.67157288 10,5.5 C10,6.32842712 9.32842712,7 8.5,7 L3.5,7 C2.67157288,7 2,6.32842712 2,5.5 C2,4.67157288 2.67157288,4 3.5,4 L8.5,4 Z" id="形状结合"></path>
                </g>
            </g>
        </g>
    </g>
</svg>