<?xml version="1.0" encoding="UTF-8"?>
<svg width="24px" height="24px" viewBox="0 0 24 24" version="1.1" xmlns="http://www.w3.org/2000/svg" xmlns:xlink="http://www.w3.org/1999/xlink">
    <title>ic_at</title>
    <g id="PC补齐界面" stroke="none" stroke-width="1" fill="none" fill-rule="evenodd">
        <g id="画板" transform="translate(-277.000000, -209.000000)" fill-rule="nonzero">
            <g id="ic_at" transform="translate(277.000000, 209.000000)">
                <circle id="蒙版" fill="#006EFF" cx="12" cy="12" r="12"></circle>
                <path d="M12.9562948,3.04151644 C8.52588153,2.62033907 4.44127188,5.44340502 3.31412318,9.70567498 C2.18697447,13.967945 4.35031148,18.4100984 8.4209188,20.1918682 C9.56222747,20.7027639 10.796845,20.9777504 12.0492196,21 C14.0429564,21 15.9812097,20.3500767 17.5642367,19.1502762 C17.9620467,18.8499877 18.0391535,18.2875638 17.736581,17.8931823 C17.5907282,17.7014347 17.3733941,17.5754752 17.1330925,17.5434208 C16.8927908,17.5113664 16.6495278,17.5758858 16.457605,17.7225767 C13.8704394,19.6570965 10.300812,19.6579224 7.71273312,17.7246 C5.12465428,15.7912777 4.1462141,12.392997 5.31575076,9.39949342 C6.48528743,6.40598981 9.51897096,4.54374417 12.7476675,4.83736481 C16.5218189,5.26978315 19.3542682,8.45759023 19.3058211,12.2183015 L19.3058211,12.82889 C19.303712,13.2456841 19.1305267,13.6437214 18.8260376,13.9315918 C18.5215486,14.2194622 18.1119212,14.3724282 17.6912273,14.3553611 C16.8297131,14.2617319 16.1880168,13.52456 16.2217655,12.6672636 L16.2217655,8.78823117 C16.2217655,8.29232134 15.8156541,7.89030699 15.3146903,7.89030699 C14.8563821,7.88645902 14.4671808,8.22164815 14.4076151,8.67150102 C13.563449,7.88454056 12.4468464,7.44754657 11.2872764,7.45032416 C9.11287096,7.4664611 7.24455576,8.98231645 6.80166031,11.0897235 C6.35876485,13.1971306 7.46134797,15.3248196 9.44883922,16.1980671 C11.4363305,17.0713145 13.7699664,16.4534031 15.0516385,14.7145307 C15.5848345,15.5310469 16.4609734,16.0666243 17.4372628,16.1728456 C18.4135522,16.279067 19.3862867,15.944649 20.0859058,15.2622645 C20.7580791,14.629221 21.1328872,13.7472185 21.1199715,12.82889 L21.1199715,12.2183015 C21.1619857,7.5457428 17.6439014,3.59106592 12.9562948,3.04151644 Z M11.3054179,14.7953439 C9.75743978,14.7953439 8.50255557,13.5531196 8.50255557,12.0207582 C8.50255557,10.4883968 9.75743978,9.2461725 11.3054179,9.2461725 C12.853396,9.2461725 14.1082802,10.4883968 14.1082802,12.0207582 C14.1033014,13.5510734 12.851329,14.7904153 11.3054179,14.7953439 L11.3054179,14.7953439 Z" id="形状" fill="#FFFFFF"></path>
            </g>
        </g>
    </g>
</svg>