<?xml version="1.0" encoding="UTF-8"?>
<svg width="18px" height="18px" viewBox="0 0 18 18" version="1.1" xmlns="http://www.w3.org/2000/svg" xmlns:xlink="http://www.w3.org/1999/xlink">
    <title>ic_下载备份</title>
    <g id="PC补齐界面" stroke="none" stroke-width="1" fill="none" fill-rule="evenodd">
        <g id="画板" transform="translate(-334.000000, -137.000000)">
            <g id="ic_下载备份" transform="translate(334.000000, 137.000000)">
                <rect id="矩形" x="0" y="0" width="18" height="18"></rect>
                <path d="M17.0537375,11.25 C17.4334332,11.25 17.7472284,11.5321539 17.7968909,11.8982294 L17.8037375,12 L17.8037375,15.0499617 C17.8037375,16.5124935 16.6620329,17.7083659 15.2212598,17.7949429 L15.0537375,17.7999617 L3.05373747,17.7999617 C1.59120563,17.7999617 0.395333192,16.6582571 0.308756265,15.217484 L0.303737471,15.0499617 L0.303737471,12 C0.303737471,11.5857864 0.639523909,11.25 1.05373747,11.25 C1.43343324,11.25 1.74722843,11.5321539 1.79689086,11.8982294 L1.80373747,12 L1.80373747,15.0499617 C1.80373747,15.6971704 2.29561214,16.2294956 2.92593223,16.2935081 L3.05373747,16.2999617 L15.0537375,16.2999617 C15.7009462,16.2999617 16.2332714,15.808087 16.2972839,15.1777669 L16.3037375,15.0499617 L16.3037375,12 C16.3037375,11.5857864 16.6395239,11.25 17.0537375,11.25 Z M9,0.25 C9.37969577,0.25 9.69349096,0.532153882 9.74315338,0.898229443 L9.75,1 L9.74966247,10.992 L13.4658951,7.43679688 C13.7651146,7.15036966 14.2398751,7.16073987 14.5263023,7.45995939 C14.7866907,7.73197714 14.8017919,8.14907006 14.5775776,8.43785407 L14.5031398,8.52036662 L9.51862236,13.2917849 C9.25674615,13.5424653 8.85874661,13.5666876 8.57057166,13.3650112 L8.47891829,13.2894199 L3.53958147,8.51800168 C3.24166807,8.2302162 3.23345777,7.75541344 3.52124325,7.45750005 C3.78286642,7.18666968 4.19904931,7.15526337 4.4963835,7.36800889 L4.58174488,7.43916183 L8.24966247,10.982 L8.25,1 C8.25,0.585786438 8.58578644,0.25 9,0.25 Z" id="形状" fill="#006EFF" fill-rule="nonzero"></path>
            </g>
        </g>
    </g>
</svg>