<?xml version="1.0" encoding="UTF-8"?>
<svg width="36px" height="36px" viewBox="0 0 36 36" version="1.1" xmlns="http://www.w3.org/2000/svg" xmlns:xlink="http://www.w3.org/1999/xlink">
    <title>ic_列表_创建团队</title>
    <defs>
        <circle id="path-1" cx="18" cy="18" r="18"></circle>
    </defs>
    <g id="PC补齐界面" stroke="none" stroke-width="1" fill="none" fill-rule="evenodd">
        <g id="画板" transform="translate(-220.000000, -350.000000)">
            <g id="ic_列表_创建团队" transform="translate(220.000000, 350.000000)">
                <mask id="mask-2" fill="white">
                    <use xlink:href="#path-1"></use>
                </mask>
                <use id="蒙版" fill="#0DC1EA" xlink:href="#path-1"></use>
                <path d="M25.9014604,20.5983209 C25.0794775,19.776338 23.9725006,19.4328451 22.8992729,19.5333431 L20.6313202,15.4189288 C20.6373201,15.4121789 20.6448199,15.408429 20.6515698,15.4016791 C22.1162892,13.9369596 22.1162892,11.5632591 20.6515698,10.0985396 C19.1868503,8.63382013 16.8131497,8.63382013 15.3484302,10.0985396 C13.8837108,11.5632591 13.8837108,13.9369596 15.3484302,15.4016791 C15.4166788,15.4699277 15.4961772,15.5194267 15.5681757,15.5816754 L13.3759713,19.5595925 C12.2194954,19.3653466 10.990271,19.7058395 10.0985396,20.5983209 C8.63382013,22.0630404 8.63382013,24.4367409 10.0985396,25.9014604 C11.5632591,27.3661799 13.9369596,27.3661799 15.4016791,25.9014604 C16.8663986,24.4367409 16.8663986,22.0630404 15.4016791,20.5983209 C15.3949293,20.591571 15.3874294,20.5878211 15.3814296,20.5818212 L17.6493823,16.4666569 C17.9748755,16.4966563 18.3018687,16.4944064 18.625862,16.4404075 L20.8180663,20.4183246 C20.7460678,20.4805733 20.6665694,20.5300723 20.5983209,20.5983209 C19.1336014,22.0630404 19.1336014,24.4367409 20.5983209,25.9014604 C22.0630404,27.3661799 24.4367409,27.3661799 25.9014604,25.9014604 C27.3661799,24.4367409 27.3661799,22.0630404 25.9014604,20.5983209" id="Fill-161" fill="#FFFFFF"></path>
            </g>
        </g>
    </g>
</svg>