<?xml version="1.0" encoding="UTF-8"?>
<svg width="36px" height="36px" viewBox="0 0 36 36" version="1.1" xmlns="http://www.w3.org/2000/svg" xmlns:xlink="http://www.w3.org/1999/xlink">
    <title>ic_列表_组织架构</title>
    <defs>
        <circle id="path-1" cx="18" cy="18" r="18"></circle>
    </defs>
    <g id="PC补齐界面" stroke="none" stroke-width="1" fill="none" fill-rule="evenodd">
        <g id="画板" transform="translate(-16.000000, -350.000000)">
            <g id="ic_列表_组织架构" transform="translate(16.000000, 350.000000)">
                <mask id="mask-2" fill="white">
                    <use xlink:href="#path-1"></use>
                </mask>
                <use id="蒙版" fill="#50E3C2" xlink:href="#path-1"></use>
                <path d="M26.1818182,19.9087909 L26.1818182,19.0906091 C26.1818182,17.5869727 24.9581818,16.2724273 23.4545455,16.2724273 L18.9090909,16.2724273 L18.9090909,14.4542455 L20.7272727,14.4542455 L20.7272727,8.9997 L15.2727273,8.9997 L15.2727273,14.4542455 L17.0909091,14.4542455 L17.0909091,16.2724273 L12.5454545,16.2724273 C11.0418182,16.2724273 9.81818182,17.5869727 9.81818182,19.0906091 L9.81818182,19.9087909 L8,19.9087909 L8,25.3633364 L13.4545455,25.3633364 L13.4545455,19.9087909 L11.6363636,19.9087909 L11.6363636,19.0906091 C11.6363636,18.5897 12.0436364,18.0906091 12.5454545,18.0906091 L17.0909091,18.0906091 L17.0909091,19.9087909 L15.2727273,19.9087909 L15.2727273,25.3633364 L20.7272727,25.3633364 L20.7272727,19.9087909 L18.9090909,19.9087909 L18.9090909,18.0906091 L23.4545455,18.0906091 C23.9563636,18.0906091 24.3636364,18.5897 24.3636364,19.0906091 L24.3636364,19.9087909 L22.5454545,19.9087909 L22.5454545,25.3633364 L28,25.3633364 L28,19.9087909 L26.1818182,19.9087909 Z" id="Fill-16" fill="#FFFFFF"></path>
            </g>
        </g>
    </g>
</svg>