<?xml version="1.0" encoding="UTF-8"?>
<svg width="18px" height="18px" viewBox="0 0 18 18" version="1.1" xmlns="http://www.w3.org/2000/svg" xmlns:xlink="http://www.w3.org/1999/xlink">
    <title>ic_关闭</title>
    <g id="PC补齐界面" stroke="none" stroke-width="1" fill="none" fill-rule="evenodd">
        <g id="画板" transform="translate(-67.000000, -213.000000)">
            <g id="ic_关闭" transform="translate(67.000000, 213.000000)">
                <rect id="矩形备份-2" x="0" y="0" width="18" height="18"></rect>
                <path d="M5.44621165,4.39705176 L5.53033009,4.46966991 L9,7.939 L12.4696699,4.46966991 C12.7625631,4.1767767 13.2374369,4.1767767 13.5303301,4.46966991 C13.7965966,4.73593648 13.8208027,5.15260016 13.6029482,5.44621165 L13.5303301,5.53033009 L10.061,9 L13.5303301,12.4696699 C13.8232233,12.7625631 13.8232233,13.2374369 13.5303301,13.5303301 C13.2640635,13.7965966 12.8473998,13.8208027 12.5537883,13.6029482 L12.4696699,13.5303301 L9,10.061 L5.53033009,13.5303301 C5.23743687,13.8232233 4.76256313,13.8232233 4.46966991,13.5303301 C4.20340335,13.2640635 4.1791973,12.8473998 4.39705176,12.5537883 L4.46966991,12.4696699 L7.939,9 L4.46966991,5.53033009 C4.1767767,5.23743687 4.1767767,4.76256313 4.46966991,4.46966991 C4.7063513,4.23298853 5.06186498,4.18756482 5.34415877,4.33339881 L5.44621165,4.39705176 Z" id="形状结合" fill="#666666" fill-rule="nonzero"></path>
            </g>
        </g>
    </g>
</svg>