<?xml version="1.0" encoding="UTF-8"?>
<svg width="18px" height="18px" viewBox="0 0 18 18" version="1.1" xmlns="http://www.w3.org/2000/svg" xmlns:xlink="http://www.w3.org/1999/xlink">
    <title>ic_列表_删除</title>
    <g id="PC补齐界面" stroke="none" stroke-width="1" fill="none" fill-rule="evenodd">
        <g id="画板" transform="translate(-332.000000, -244.000000)" fill="#000000">
            <g id="ic_列表_删除" transform="translate(332.000000, 244.000000)">
                <g id="编组-28" transform="translate(2.000000, 2.000000)">
                    <path d="M13.25,3 C13.6642136,3 14,3.33578644 14,3.75 C14,4.16421356 13.6642136,4.5 13.25,4.5 L12.5,4.5 L12.5,12 C12.5,13.1045695 11.6045695,14 10.5,14 L4,14 C2.8954305,14 2,13.1045695 2,12 L2,4.5 L1.25,4.5 C0.835786438,4.5 0.5,4.16421356 0.5,3.75 C0.5,3.33578644 0.835786438,3 1.25,3 L13.25,3 Z M11,4.5 L3.5,4.5 L3.5,12 C3.5,12.2454599 3.67687516,12.4496084 3.91012437,12.4919443 L4,12.5 L10.5,12.5 C10.7454599,12.5 10.9496084,12.3231248 10.9919443,12.0898756 L11,12 L11,4.5 Z M5.75,5.5 C6.16421356,5.5 6.5,5.83578644 6.5,6.25 L6.5,10.75 C6.5,11.1642136 6.16421356,11.5 5.75,11.5 C5.33578644,11.5 5,11.1642136 5,10.75 L5,6.25 C5,5.83578644 5.33578644,5.5 5.75,5.5 Z M8.75,5.5 C9.16421356,5.5 9.5,5.83578644 9.5,6.25 L9.5,10.75 C9.5,11.1642136 9.16421356,11.5 8.75,11.5 C8.33578644,11.5 8,11.1642136 8,10.75 L8,6.25 C8,5.83578644 8.33578644,5.5 8.75,5.5 Z M9.25,0.5 C9.66421356,0.5 10,0.835786438 10,1.25 C10,1.66421356 9.66421356,2 9.25,2 L4.75,2 C4.33578644,2 4,1.66421356 4,1.25 C4,0.835786438 4.33578644,0.5 4.75,0.5 L9.25,0.5 Z" id="形状结合"></path>
                </g>
            </g>
        </g>
    </g>
</svg>