<?xml version="1.0" encoding="UTF-8"?>
<svg width="18px" height="18px" viewBox="0 0 18 18" version="1.1" xmlns="http://www.w3.org/2000/svg" xmlns:xlink="http://www.w3.org/1999/xlink">
    <title>ic_列表_消息免打扰</title>
    <g id="PC补齐界面" stroke="none" stroke-width="1" fill="none" fill-rule="evenodd">
        <g id="画板" transform="translate(-305.000000, -244.000000)">
            <g id="ic_列表_消息免打扰" transform="translate(305.000000, 244.000000)">
                <rect id="矩形" x="1" y="1" width="16" height="16"></rect>
                <path d="M11.25,15 C11.6642136,15 12,15.3357864 12,15.75 C12,16.1642136 11.6642136,16.5 11.25,16.5 L6.75,16.5 C6.33578644,16.5 6,16.1642136 6,15.75 C6,15.3357864 6.33578644,15 6.75,15 L11.25,15 Z M8.82958314,2 C9.53843563,2 10.1809978,2.37119724 10.5504675,2.95217471 L10.6307879,3.08989687 L10.6405831,3.11 L10.6944967,3.12681383 C12.644905,3.77134878 14.0229997,5.55357383 14.2038051,7.65513919 L14.2189357,7.88991904 L14.2240216,8.12707774 L14.2235831,10.22 C14.6801421,10.6852118 14.9659602,11.2757824 15.0520446,11.9200432 L15.0733021,12.1366871 L15.0795831,12.3365864 L15.0725482,12.5781297 C15.0491898,12.9305982 14.9681215,13.2848103 14.836202,13.5831587 C14.8266523,13.6055648 14.8165449,13.6276913 14.8058971,13.6495206 L15.5104076,14.3538064 C15.8033009,14.6466996 15.8033009,15.1215733 15.5104076,15.4144665 C15.2175144,15.7073598 14.7426407,15.7073598 14.4497475,15.4144665 L3.48959236,4.45431142 C3.19669914,4.1614182 3.19669914,3.68654447 3.48959236,3.39365125 C3.78248558,3.10075803 4.25735931,3.10075803 4.55025253,3.39365125 L5.36858314,4.212 L5.53967997,4.06092643 C5.8844735,3.77086658 6.26786206,3.5248342 6.68252268,3.33284069 L6.93501311,3.22420934 L6.98558314,3.205 L7.06756376,3.04581637 C7.36843864,2.51458066 7.89440029,2.13024972 8.50276756,2.02740855 L8.67062183,2.00644116 L8.82958314,2 Z M3.94435337,6.38254 L5.1828766,7.62143687 C5.16798414,7.73217368 5.15790163,7.84413477 5.15283468,7.95704602 L5.14902161,8.12709124 L5.14902161,10.8140862 L4.79967563,11.0348485 C4.39851849,11.2883519 4.13806702,11.7125244 4.08828033,12.1795131 L4.07958314,12.3365864 L4.0872822,12.522316 C4.0974939,12.624561 4.11775615,12.7241674 4.14742435,12.8183424 L4.16258314,12.859 L4.15558314,12.841 L4.17691642,12.8624518 L4.23342788,12.9950513 L4.36938878,13.0492571 C4.28903984,13.0088405 4.28261991,13.0015659 4.29521259,13.0002727 L10.5625831,13 L12.0625831,14.5 L4.3073639,14.5 C4.03925847,14.5 3.93120797,14.4941542 3.77715375,14.4277691 L3.74458314,14.412 L3.68369138,14.3917706 C3.45280558,14.300005 3.24848151,14.1531185 3.08880645,13.9645817 L2.998504,13.8465694 L2.93058314,13.736 L2.88310593,13.6886675 L2.82692345,13.5615476 C2.69596096,13.2652286 2.61624065,12.9435575 2.58959103,12.6148666 L2.57958314,12.3673186 L2.5877637,12.122622 C2.63893503,11.4245783 2.92745421,10.7710982 3.39557491,10.2672121 L3.54134142,10.1206391 L3.64858314,10.025 L3.64902161,8.12709124 C3.64902161,7.52198155 3.75256503,6.93349283 3.94435337,6.38254 Z M8.82958314,3.5 C8.62176099,3.5 8.42134485,3.64819246 8.33875049,3.85594814 L8.3108884,3.94837463 L8.21918785,4.38640076 L7.7901554,4.51370765 C7.28015137,4.66504124 6.81926908,4.92856996 6.43058194,5.27352987 L13.5775831,12.421 L13.5795831,12.3673186 L13.5721065,12.1783701 C13.5373522,11.8145699 13.3823943,11.4902623 13.1273435,11.2452618 L13.0119665,11.1452332 L12.7240216,10.9200234 L12.7240216,8.12707774 C12.7240216,6.42280156 11.6456095,4.96198593 10.1004431,4.51281124 L9.91282189,4.46381532 L9.47150382,4.36140167 L9.35680019,3.92311721 C9.29093329,3.67143869 9.07119579,3.5 8.82958314,3.5 Z" id="形状结合" fill="#000000" fill-rule="nonzero"></path>
            </g>
        </g>
    </g>
</svg>