<?xml version="1.0" encoding="UTF-8"?>
<svg width="14px" height="14px" viewBox="0 0 14 14" version="1.1" xmlns="http://www.w3.org/2000/svg" xmlns:xlink="http://www.w3.org/1999/xlink">
    <title>ic_未选中</title>
    <g id="PC补齐界面" stroke="none" stroke-width="1" fill="none" fill-rule="evenodd">
        <g id="画板" transform="translate(-129.000000, -239.000000)">
            <g id="ic_未选中" transform="translate(129.000000, 239.000000)">
                <g id="编组-4">
                    <path d="M12,0 C13.1045695,0 14,0.8954305 14,2 L14,12 C14,13.1045695 13.1045695,14 12,14 L2,14 C0.8954305,14 0,13.1045695 0,12 L0,2 C0,0.8954305 0.8954305,0 2,0 L12,0 Z M12,2 L2,2 L2,12 L12,12 L12,2 Z" id="矩形" fill="#DDDDDD" fill-rule="nonzero"></path>
                    <path d="M3.56586399,4 L5.06586399,4 L5.06586399,6.999 L10.565864,7 L10.565864,8.5 L3.56586399,8.5 L3.56586399,4 Z" id="形状结合" fill="#FFFFFF" transform="translate(7.065864, 6.250000) rotate(-45.000000) translate(-7.065864, -6.250000) "></path>
                </g>
            </g>
        </g>
    </g>
</svg>