<?xml version="1.0" encoding="UTF-8"?>
<svg width="18px" height="18px" viewBox="0 0 18 18" version="1.1" xmlns="http://www.w3.org/2000/svg" xmlns:xlink="http://www.w3.org/1999/xlink">
    <title>ic_最大化</title>
    <g id="PC补齐界面" stroke="none" stroke-width="1" fill="none" fill-rule="evenodd">
        <g id="画板" transform="translate(-39.000000, -213.000000)">
            <g id="ic_最大化" transform="translate(39.000000, 213.000000)">
                <rect id="矩形备份" x="0" y="0" width="18" height="18"></rect>
                <path d="M11.5,4.25 L6.5,4.25 C5.25735931,4.25 4.25,5.25735931 4.25,6.5 L4.25,11.5 C4.25,12.7426407 5.25735931,13.75 6.5,13.75 L11.5,13.75 C12.7426407,13.75 13.75,12.7426407 13.75,11.5 L13.75,6.5 C13.75,5.25735931 12.7426407,4.25 11.5,4.25 Z M6.5,5.75 L11.5,5.75 C11.9142136,5.75 12.25,6.08578644 12.25,6.5 L12.25,11.5 C12.25,11.9142136 11.9142136,12.25 11.5,12.25 L6.5,12.25 C6.08578644,12.25 5.75,11.9142136 5.75,11.5 L5.75,6.5 C5.75,6.08578644 6.08578644,5.75 6.5,5.75 Z" id="矩形" fill="#666666" fill-rule="nonzero"></path>
            </g>
        </g>
    </g>
</svg>