<?xml version="1.0" encoding="UTF-8"?>
<svg width="18px" height="18px" viewBox="0 0 18 18" version="1.1" xmlns="http://www.w3.org/2000/svg" xmlns:xlink="http://www.w3.org/1999/xlink">
    <title>ic_搜索</title>
    <g id="PC补齐界面" stroke="none" stroke-width="1" fill="none" fill-rule="evenodd">
        <g id="画板" transform="translate(-240.000000, -211.000000)" fill="#BBBBBB" fill-rule="nonzero">
            <g id="ic_搜索" transform="translate(240.000000, 211.000000)">
                <g id="编组-13" transform="translate(2.000000, 1.000000)">
                    <path d="M7,0.5 C10.8659932,0.5 14,3.63400675 14,7.5 C14,9.48852525 13.1708369,11.2833891 11.8393895,12.5577127 L13.601546,14.3205659 C13.8944392,14.6134591 13.8944392,15.0883328 13.601546,15.3812261 C13.3086528,15.6741193 12.833779,15.6741193 12.5408858,15.3812261 L10.7731189,13.6134591 C10.7282587,13.568599 10.6902695,13.5194698 10.6591511,13.4673794 C9.59568302,14.12239 8.34193928,14.5 7,14.5 C3.13400675,14.5 0,11.3659932 0,7.5 C0,3.63400675 3.13400675,0.5 7,0.5 Z M7,2 C3.96243388,2 1.5,4.46243388 1.5,7.5 C1.5,10.5375661 3.96243388,13 7,13 C10.0375661,13 12.5,10.5375661 12.5,7.5 C12.5,4.46243388 10.0375661,2 7,2 Z" id="形状结合"></path>
                </g>
            </g>
        </g>
    </g>
</svg>