<?xml version="1.0" encoding="UTF-8"?>
<svg width="18px" height="18px" viewBox="0 0 18 18" version="1.1" xmlns="http://www.w3.org/2000/svg" xmlns:xlink="http://www.w3.org/1999/xlink">
    <title>ic_缩小</title>
    <g id="PC补齐界面" stroke="none" stroke-width="1" fill="none" fill-rule="evenodd">
        <g id="画板" transform="translate(-276.000000, -178.000000)" fill="#BBBBBB" fill-rule="nonzero">
            <g id="ic_缩小" transform="translate(276.000000, 178.000000)">
                <g id="编组-11" transform="translate(1.000000, 1.000000)">
                    <path d="M7.5,0 C11.6421356,0 15,3.35786438 15,7.5 C15,9.30933817 14.359301,10.9690331 13.2924026,12.2645853 L15.7456927,14.7173572 C16.0385859,15.0102504 16.0385859,15.4851241 15.7456927,15.7780174 C15.4527995,16.0709106 14.9779258,16.0709106 14.6850325,15.7780174 L12.2291988,13.321364 C10.9388758,14.3708852 9.29290671,15 7.5,15 C3.35786438,15 0,11.6421356 0,7.5 C0,3.35786438 3.35786438,0 7.5,0 Z M7.5,1.5 C4.1862915,1.5 1.5,4.1862915 1.5,7.5 C1.5,10.8137085 4.1862915,13.5 7.5,13.5 C10.8137085,13.5 13.5,10.8137085 13.5,7.5 C13.5,4.1862915 10.8137085,1.5 7.5,1.5 Z M9.75,6.75 C10.1642136,6.75 10.5,7.08578644 10.5,7.5 C10.5,7.91421356 10.1642136,8.25 9.75,8.25 L5.25,8.25 C4.83578644,8.25 4.5,7.91421356 4.5,7.5 C4.5,7.08578644 4.83578644,6.75 5.25,6.75 L9.75,6.75 Z" id="形状结合"></path>
                </g>
            </g>
        </g>
    </g>
</svg>