<?xml version="1.0" encoding="UTF-8"?>
<svg width="36px" height="36px" viewBox="0 0 36 36" version="1.1" xmlns="http://www.w3.org/2000/svg" xmlns:xlink="http://www.w3.org/1999/xlink">
    <title>ic_列表_会议记录</title>
    <defs>
        <circle id="path-1" cx="18" cy="18" r="18"></circle>
    </defs>
    <g id="PC补齐界面" stroke="none" stroke-width="1" fill="none" fill-rule="evenodd">
        <g id="画板" transform="translate(-270.000000, -350.000000)">
            <g id="ic_列表_会议记录" transform="translate(270.000000, 350.000000)">
                <mask id="mask-2" fill="white">
                    <use xlink:href="#path-1"></use>
                </mask>
                <use id="蒙版" fill="#006EFF" fill-rule="nonzero" xlink:href="#path-1"></use>
                <path d="M27.1987335,10 C27.6412608,10 28,10.3587392 28,10.8012665 C28,11.2437938 27.6412608,11.602533 27.1987335,11.602533 L26.416,11.602 L26.4166667,23.6240638 C26.4166667,24.5077194 25.7003223,25.2240638 24.8166667,25.2240638 L23.829,25.224 L24.7272701,26.7979664 C24.9276651,27.1492696 24.8353517,27.5903204 24.5269188,27.8318186 L24.4375,27.8925169 C24.0904057,28.0953419 23.6546391,28.001909 23.4160342,27.6897361 L23.3560632,27.599233 L22.001,25.224 L15.789,25.224 L14.4356034,27.599233 C14.2169907,27.9824728 13.732815,28.1137805 13.3541667,27.8925169 C12.9755183,27.6712532 12.8457838,27.1812063 13.0643966,26.7979664 L13.961,25.224 L12.1833333,25.2240638 C11.2996777,25.2240638 10.5833333,24.5077194 10.5833333,23.6240638 L10.583,11.602 L9.80126652,11.602533 C9.35873924,11.602533 9,11.2437938 9,10.8012665 C9,10.3587392 9.35873924,10 9.80126652,10 L27.1987335,10 Z M22.4487335,18.8139317 L14.5512665,18.8139317 C14.1087392,18.8139317 13.75,19.1726709 13.75,19.6151982 C13.75,20.0577255 14.1087392,20.4164647 14.5512665,20.4164647 L14.5512665,20.4164647 L22.4487335,20.4164647 C22.8912608,20.4164647 23.25,20.0577255 23.25,19.6151982 C23.25,19.1726709 22.8912608,18.8139317 22.4487335,18.8139317 L22.4487335,18.8139317 Z M19.2820668,14.8075991 L14.5512665,14.8075991 C14.1087392,14.8075991 13.75,15.1663383 13.75,15.6088656 C13.75,16.0513929 14.1087392,16.4101321 14.5512665,16.4101321 L14.5512665,16.4101321 L19.2820668,16.4101321 C19.7245941,16.4101321 20.0833333,16.0513929 20.0833333,15.6088656 C20.0833333,15.1663383 19.7245941,14.8075991 19.2820668,14.8075991 L19.2820668,14.8075991 Z" id="形状结合" fill="#FFFFFF"></path>
            </g>
        </g>
    </g>
</svg>