<?xml version="1.0" encoding="UTF-8"?>
<svg width="24px" height="24px" viewBox="0 0 24 24" version="1.1" xmlns="http://www.w3.org/2000/svg" xmlns:xlink="http://www.w3.org/1999/xlink">
    <title>ic_会议备份 2</title>
    <g id="PC补齐界面" stroke="none" stroke-width="1" fill="none" fill-rule="evenodd">
        <g id="画板" transform="translate(-102.000000, -57.000000)">
            <g id="ic_会议备份-2" transform="translate(102.000000, 57.000000)">
                <rect id="矩形" x="0" y="0" width="24" height="24"></rect>
                <path d="M23,1 C23.5522847,1 24,1.44771525 24,2 C24,2.55228475 23.5522847,3 23,3 L22,3 L22,18 C22,19.1045695 21.1045695,20 20,20 L18.732,20 L19.8660254,21.9642686 C20.1224433,22.4083975 19.9994584,22.9674617 19.597633,23.266157 L19.5,23.330294 C19.0558711,23.5867119 18.4968069,23.463727 18.1981115,23.0619016 L18.1339746,22.9642686 L16.422,20 L8.577,20 L6.8660254,22.9642686 C6.58988303,23.4425612 5.97829262,23.6064364 5.5,23.330294 C5.02170738,23.0541516 4.85783222,22.4425612 5.1339746,21.9642686 L6.267,20 L4,20 C2.8954305,20 2,19.1045695 2,18 L2,3 L1,3 C0.44771525,3 6.76353751e-17,2.55228475 0,2 C-6.76353751e-17,1.44771525 0.44771525,1 1,1 L23,1 Z M17,12 L7,12 C6.44771525,12 6,12.4477153 6,13 C6,13.5522847 6.44771525,14 7,14 L7,14 L17,14 C17.5522847,14 18,13.5522847 18,13 C18,12.4477153 17.5522847,12 17,12 L17,12 Z M13,7 L7,7 C6.44771525,7 6,7.44771525 6,8 C6,8.55228475 6.44771525,9 7,9 L7,9 L13,9 C13.5522847,9 14,8.55228475 14,8 C14,7.44771525 13.5522847,7 13,7 L13,7 Z" id="形状结合" fill="#006EFF"></path>
            </g>
        </g>
    </g>
</svg>