<?xml version="1.0" standalone="no"?><!DOCTYPE svg PUBLIC "-//W3C//DTD SVG 1.1//EN" "http://www.w3.org/Graphics/SVG/1.1/DTD/svg11.dtd"><svg t="1632392674484" class="icon" viewBox="0 0 1024 1024" version="1.1" xmlns="http://www.w3.org/2000/svg" p-id="11214" width="24" height="24" xmlns:xlink="http://www.w3.org/1999/xlink"><defs><style type="text/css"></style></defs><path d="M780.2 538c0 60.8-23.8 118.1-67.2 161.4-43.3 43.3-100.6 67.2-161.4 67.2h-40.3c-60.8 0-118.1-23.8-161.4-67.2l-0.2-0.2c-9-9-23.7-9-32.7 0l-7 7c-8.9 8.9-9 23.4-0.1 32.4l0.4 0.4c26.2 26.2 56.6 46.7 90.4 61.1 32.7 13.9 67.2 21.4 102.7 22.4V904h-86.3c-15.5 0-28 12.5-28 28s12.5 28 28 28h228.6c15.5 0 28-12.5 28-28s-12.5-28-28-28h-86.3v-81.5c35.5-1 70-8.5 102.7-22.4 33.8-14.4 64.3-34.9 90.4-61.1 26.2-26.2 46.7-56.6 61.1-90.4 14.9-35.1 22.5-72.3 22.5-110.5v-123c0-15.5-12.5-28-28-28s-28 12.5-28 28V538zM254.9 387.1c-15.5 0-28 12.5-28 28V538.4c0 14.4 17.5 21.5 27.6 11.3l23.6-23.6c3.1-3.1 4.8-7.2 4.8-11.6v-99.4c0-15.4-12.6-28-28-28z" fill="#d81e06" p-id="11215"></path><path d="M655.6 412.1v100.3c0 33-13 64.1-36.5 87.6s-54.6 36.5-87.6 36.5c-33 0-64.1-13-87.6-36.5l-0.1-0.1c-7.5-7.5-19.8-7.5-27.3 0L404 612.3c-7.4 7.4-7.5 19.5-0.1 26.9 32.3 32.4 76.7 52.7 125.9 53.2 100 1 181.8-81.8 181.8-181.8V343.3c0-14.3-17.2-21.4-27.3-11.3l-24 24c-3 3-4.7 7.1-4.7 11.3v44.8zM407.4 356.1V244.8c0-33 13-64.1 36.5-87.6s54.6-36.5 87.6-36.5 64.1 13 87.6 36.5l0.1 0.1c7.6 7.6 19.9 7.6 27.5 0l12.2-12.2c7.6-7.6 7.6-19.8 0.1-27.4-33-33.1-78.8-53.5-129.3-53.1-99 0.9-178.3 82.7-178.3 181.7v167.6c0 14.3 17.2 21.4 27.3 11.3l24-24c3-3 4.7-7.1 4.7-11.3v-33.8zM198.3 712c-10.9-10.9-10.9-28.7 0-39.6l561.6-561.6c10.9-10.9 28.7-10.9 39.6 0 10.9 10.9 10.9 28.7 0 39.6L237.9 712c-11 10.9-28.7 10.9-39.6 0z" fill="#d81e06" p-id="11216"></path></svg>