<?xml version="1.0" encoding="UTF-8"?>
<svg width="24px" height="24px" viewBox="0 0 24 24" version="1.1" xmlns="http://www.w3.org/2000/svg" xmlns:xlink="http://www.w3.org/1999/xlink">
    <title>ic_聊天</title>
    <g id="PC补齐界面" stroke="none" stroke-width="1" fill="none" fill-rule="evenodd">
        <g id="画板" transform="translate(-16.000000, -22.000000)">
            <g id="ic_聊天" transform="translate(16.000000, 22.000000)">
                <path d="M11.9999725,0 C18.6545115,0 24,5.40000206 24,12.0000137 C24,15.7636291 22.3090642,19.0908947 19.6363611,21.2727254 L19.6363611,22.9090847 C19.6363611,23.4545561 19.0908891,24 18.5454446,24 L11.5090752,24 C5.12724476,23.7272643 0,18.4363565 0,11.9999863 C0,5.40000206 5.34546104,0 12,0 L11.9999725,0 Z" id="形状" fill="#8F959E" fill-rule="nonzero"></path>
                <path d="M7,10.5 C7.82842712,10.5 8.5,11.1715729 8.5,12 C8.5,12.8284271 7.82842712,13.5 7,13.5 C6.17157288,13.5 5.5,12.8284271 5.5,12 C5.5,11.1715729 6.17157288,10.5 7,10.5 Z M12,10.5 C12.8284271,10.5 13.5,11.1715729 13.5,12 C13.5,12.8284271 12.8284271,13.5 12,13.5 C11.1715729,13.5 10.5,12.8284271 10.5,12 C10.5,11.1715729 11.1715729,10.5 12,10.5 Z M17,10.5 C17.8284271,10.5 18.5,11.1715729 18.5,12 C18.5,12.8284271 17.8284271,13.5 17,13.5 C16.1715729,13.5 15.5,12.8284271 15.5,12 C15.5,11.1715729 16.1715729,10.5 17,10.5 Z" id="形状结合" fill="#FFFFFF"></path>
            </g>
        </g>
    </g>
</svg>