<?xml version="1.0" standalone="no"?><!DOCTYPE svg PUBLIC "-//W3C//DTD SVG 1.1//EN" "http://www.w3.org/Graphics/SVG/1.1/DTD/svg11.dtd"><svg t="1628764003764" class="icon" viewBox="0 0 1024 1024" version="1.1" xmlns="http://www.w3.org/2000/svg" p-id="11392" width="24" height="24" xmlns:xlink="http://www.w3.org/1999/xlink"><defs><style type="text/css"></style></defs><path d="M513 512m-448 0a448 448 0 1 0 896 0 448 448 0 1 0-896 0Z" fill="#FFE8EB" p-id="11393"></path><path d="M619.7 437.7c-10.3 0-18.7 8.4-18.7 18.7v39.9c0 48.5-39.5 88-88 88s-88-39.5-88-88v-39.9c0-10.3-8.4-18.7-18.7-18.7s-18.7 8.4-18.7 18.7v39.9c0 62.8 46.4 114.9 106.7 123.9v38.1H457c-10.3 0-18.7 8.4-18.7 18.7 0 10.3 8.4 18.7 18.7 18.7h112c10.3 0 18.7-8.4 18.7-18.7 0-10.3-8.4-18.7-18.7-18.7h-37.3v-38.1c60.3-9 106.7-61.2 106.7-123.9v-39.9c-0.1-10.4-8.4-18.7-18.7-18.7z" fill="#FFB0B0" p-id="11394"></path><path d="M513 568c-41.1 0-74.7-33.6-74.7-74.7v-98.4c0-41.1 33.6-74.7 74.7-74.7s74.7 33.6 74.7 74.7v98.4c0 41.1-33.6 74.7-74.7 74.7z" fill="#FF6B6A" p-id="11395"></path></svg>