<?xml version="1.0" encoding="UTF-8"?>
<svg width="18px" height="18px" viewBox="0 0 18 18" version="1.1" xmlns="http://www.w3.org/2000/svg" xmlns:xlink="http://www.w3.org/1999/xlink">
    <title>ic_功能_电话</title>
    <g id="PC补齐界面" stroke="none" stroke-width="1" fill="none" fill-rule="evenodd">
        <g id="画板" transform="translate(-246.000000, -110.000000)">
            <g id="ic_功能_电话" transform="translate(246.000000, 110.000000)">
                <g id="编组-8">
                    <rect id="矩形" x="0" y="0" width="18" height="18"></rect>
                    <path d="M7.19136131,4.25265301 L7.30080748,4.44632202 C7.71379577,5.16403656 7.65194728,5.48227319 7.26954032,6.10164465 L6.75222543,6.90418844 C6.68694619,7.00756297 6.6167689,7.12047326 6.54152466,7.24426953 C6.35550417,7.54920328 6.63314149,8.12791601 6.79662064,8.37844496 L7.06955256,8.7791409 C7.27921751,9.07761011 7.62515577,9.54095608 7.98712618,9.90550951 C8.45583512,10.3738752 9.0946363,10.8121581 9.32137772,10.9624925 L9.44640848,11.0447389 C9.6949425,11.2247372 10.3196977,11.5346076 10.643476,11.3386601 L11.1331336,11.0319226 L11.1331336,11.0319226 L11.5030845,10.79183 C12.2704902,10.287721 12.5809796,10.1280509 13.2931496,10.5024363 L13.6281643,10.6915778 C16.4909328,12.2977573 16.9905729,13.60523 16.8550554,14.4582316 L16.8203443,14.6241979 C16.4578039,15.9138056 14.8252318,16.75 12.9783277,16.75 C12.4835398,16.75 11.972791,16.6907601 11.4688825,16.5631664 C9.03598533,15.9593748 6.72621507,14.6606532 4.9659558,12.9107968 C3.21481705,11.1472696 1.91514375,8.83919075 1.30862955,6.40807512 C0.713515987,4.0202502 1.61872704,1.52078081 3.24673885,1.05825365 C4.10178707,0.823572387 5.47214435,1.18584735 7.19136131,4.25265301 Z M3.65391244,2.40295969 L3.62067994,2.4025444 C3.00732535,2.57570727 2.17279828,4.09999627 2.66302593,6.06630628 C3.21025679,8.25590527 4.37996276,10.3361382 5.95325148,11.9196672 C7.53338059,13.4918038 9.61513799,14.6583747 11.8063416,15.2029264 C13.7353304,15.6882382 15.2880979,14.8543222 15.4682281,14.2505306 L15.4723065,14.195944 C15.4606146,13.9193825 15.0403395,13.1279978 13.1647748,12.0336051 L12.6271879,11.7259982 L12.6271879,11.7259982 L11.7261993,12.3068364 C11.6173442,12.3753589 11.4985242,12.4490291 11.3685569,12.5280157 C10.254144,13.2049078 8.9784873,12.4191125 8.66942134,12.2060635 L8.38551025,12.0150134 C8.05008813,11.7845596 7.46452071,11.3587106 6.99299012,10.8875253 C6.52145953,10.4129982 6.09284602,9.8269685 5.86181461,9.49245293 L5.60363919,9.1082091 C5.33077638,8.68019704 4.72426217,7.52736804 5.34673728,6.51060577 L5.66567026,6.00279424 L5.66567026,6.00279424 L6.1020655,5.33039966 C6.11970087,5.30231054 6.13566177,5.27625067 6.14934254,5.25289646 L5.96693225,4.93163376 C4.78332486,2.82413279 3.9958121,2.46923377 3.72491299,2.4127354 L3.65391244,2.40295969 Z M10.5764083,1.39021606 C11.8237092,1.81288643 13.0462138,2.54637435 14.2448583,3.5844534 C15.0672355,4.29666828 15.6901657,5.18728236 16.1560538,6.20388468 C16.4700538,6.88905609 16.6471918,7.44760345 16.8417457,8.21518193 C16.943516,8.61669867 16.7005234,9.02469338 16.2990067,9.12646362 C15.8974899,9.22823386 15.4894952,8.9852413 15.387725,8.58372456 C14.9700577,6.93589096 14.4084815,5.71049014 13.2628657,4.71833633 C12.2040747,3.80137664 11.147806,3.16762819 10.094996,2.81086456 C9.70269472,2.67792622 9.49243954,2.25213541 9.62537788,1.85983415 C9.75831622,1.4675329 10.184107,1.25727772 10.5764083,1.39021606 Z M10.6382075,4.61974977 C12.1349584,5.330712 13.1037995,6.41095921 13.4906725,7.83264106 C13.5994347,8.23232051 13.3635996,8.64449388 12.9639202,8.75325605 C12.5642407,8.86201822 12.1520673,8.62618317 12.0433052,8.22650372 C11.776665,7.24665403 11.1117888,6.50532427 9.99461816,5.97466408 C9.6204689,5.7969418 9.46123338,5.34956152 9.63895566,4.97541227 C9.81667794,4.60126301 10.2640582,4.44202749 10.6382075,4.61974977 Z" id="形状" fill="#BBBBBB" fill-rule="nonzero"></path>
                </g>
            </g>
        </g>
    </g>
</svg>