<?xml version="1.0" encoding="UTF-8"?>
<svg width="18px" height="18px" viewBox="0 0 18 18" version="1.1" xmlns="http://www.w3.org/2000/svg" xmlns:xlink="http://www.w3.org/1999/xlink">
    <title>ic_功能_图片</title>
    <g id="PC补齐界面" stroke="none" stroke-width="1" fill="none" fill-rule="evenodd">
        <g id="画板" transform="translate(-108.000000, -110.000000)">
            <g id="ic_功能_图片" transform="translate(108.000000, 110.000000)">
                <rect id="矩形" x="0" y="0" width="18" height="18"></rect>
                <path d="M15.75,0 C16.9926407,0 18,1.00735931 18,2.25 L18,15.75 C18,16.9926407 16.9926407,18 15.75,18 L2.25,18 C1.00735931,18 0,16.9926407 0,15.75 L0,2.25 C0,1.00735931 1.00735931,0 2.25,0 L15.75,0 Z M15.75,1.5 L2.25,1.5 C1.87030423,1.5 1.55650904,1.78215388 1.50684662,2.14822944 L1.5,2.25 L1.5,15.75 C1.5,16.1296958 1.78215388,16.443491 2.14822944,16.4931534 L2.25,16.5 L15.75,16.5 C16.1296958,16.5 16.443491,16.2178461 16.4931534,15.8517706 L16.5,15.75 L16.5,2.25 C16.5,1.87030423 16.2178461,1.55650904 15.8517706,1.50684662 L15.75,1.5 Z M15.0492793,6.75525878 C15.3232765,7.01356342 15.3597502,7.42933286 15.1506425,7.72923654 L15.0805346,7.81545834 L9.6990829,13.5238455 C9.35966521,13.8838836 8.81072082,13.9286697 8.41965068,13.6461939 L8.3253848,13.56875 L6.235,11.623 L3.87447384,13.7315327 C3.59356817,13.9823071 3.17620238,13.982899 2.8953877,13.7487807 L2.81551283,13.6715194 C2.56473849,13.3906137 2.56414651,12.9732479 2.79826483,12.6924332 L2.87552616,12.6125584 L5.59357538,10.1860604 C5.9379375,9.87863626 6.44497511,9.85797556 6.81103324,10.1209309 L6.90714377,10.1996755 L8.965,12.114 L13.9890797,6.78651414 C14.2732148,6.48511719 14.7478823,6.47112369 15.0492793,6.75525878 Z M5.625,3.1875 C6.97119408,3.1875 8.0625,4.27880592 8.0625,5.625 C8.0625,6.97119408 6.97119408,8.0625 5.625,8.0625 C4.27880592,8.0625 3.1875,6.97119408 3.1875,5.625 C3.1875,4.27880592 4.27880592,3.1875 5.625,3.1875 Z M5.625,4.6875 C5.10723305,4.6875 4.6875,5.10723305 4.6875,5.625 C4.6875,6.14276695 5.10723305,6.5625 5.625,6.5625 C6.14276695,6.5625 6.5625,6.14276695 6.5625,5.625 C6.5625,5.10723305 6.14276695,4.6875 5.625,4.6875 Z" id="形状" fill="#BBBBBB" fill-rule="nonzero"></path>
                <g id="图片-(7)"></g>
            </g>
        </g>
    </g>
</svg>