<?xml version="1.0" encoding="UTF-8"?>
<svg width="14px" height="14px" viewBox="0 0 14 14" version="1.1" xmlns="http://www.w3.org/2000/svg" xmlns:xlink="http://www.w3.org/1999/xlink">
    <title>ic_列表_选中</title>
    <g id="PC补齐界面" stroke="none" stroke-width="1" fill="none" fill-rule="evenodd">
        <g id="画板" transform="translate(-129.000000, -213.000000)" fill="#07C160">
            <g id="ic_列表_选中" transform="translate(129.000000, 213.000000)">
                <path d="M7,0 C10.8659932,0 14,3.13400675 14,7 C14,10.8659932 10.8659932,14 7,14 C3.13400675,14 0,10.8659932 0,7 C0,3.13400675 3.13400675,0 7,0 Z M7,1.5 C3.96243388,1.5 1.5,3.96243388 1.5,7 C1.5,10.0375661 3.96243388,12.5 7,12.5 C10.0375661,12.5 12.5,10.0375661 12.5,7 C12.5,3.96243388 10.0375661,1.5 7,1.5 Z" id="椭圆形" fill-rule="nonzero"></path>
                <path d="M3.56586399,4.31586399 L5.06586399,4.31586399 L5.06586399,7.31486399 L10.565864,7.31586399 L10.565864,8.81586399 L3.56586399,8.81586399 L3.56586399,4.31586399 Z" id="形状结合" transform="translate(7.065864, 6.565864) rotate(-45.000000) translate(-7.065864, -6.565864) "></path>
            </g>
        </g>
    </g>
</svg>