<?xml version="1.0" standalone="no"?><!DOCTYPE svg PUBLIC "-//W3C//DTD SVG 1.1//EN" "http://www.w3.org/Graphics/SVG/1.1/DTD/svg11.dtd"><svg t="1626773833997" class="icon" viewBox="0 0 1024 1024" version="1.1" xmlns="http://www.w3.org/2000/svg" p-id="1874" width="20" height="20" xmlns:xlink="http://www.w3.org/1999/xlink"><defs><style type="text/css"></style></defs><path d="M452.736 445.888h0.064L241.6 168.256a34.176 34.176 0 0 1 4.736-46.4 32 32 0 0 1 45.12 3.136l220.16 253.248 220.16-253.248a32 32 0 0 1 45.056-3.2 34.176 34.176 0 0 1 4.8 46.464L570.368 445.824l131.2 151.04a160 160 0 1 1-82.048 67.648 57.856 57.856 0 0 1-3.392-4.096L511.616 523.072h-0.064l-58.816-77.184z m-42.88 49.344l61.44 80.64-64.256 84.48a57.856 57.856 0 0 1-3.392 4.096A160 160 0 1 1 321.6 596.8l88.32-101.568zM276.608 842.56a96 96 0 1 0-20.032-190.912 96 96 0 0 0 20.032 190.912z m469.952 0a96 96 0 1 0 20.096-190.912A96 96 0 0 0 746.56 842.56z" p-id="1875" fill="#BBBBBB"></path></svg>