<?xml version="1.0" encoding="UTF-8"?>
<svg width="24px" height="25px" viewBox="0 0 24 25" version="1.1" xmlns="http://www.w3.org/2000/svg" xmlns:xlink="http://www.w3.org/1999/xlink">
    <title>ic_设置</title>
    <g id="PC补齐界面" stroke="none" stroke-width="1" fill="none" fill-rule="evenodd">
        <g id="画板" transform="translate(-234.000000, -24.000000)">
            <g id="ic_设置" transform="translate(234.000000, 24.000000)">
                <rect id="矩形" x="0" y="0" width="24" height="24"></rect>
                <path d="M21.9193733,11.0399559 C21.8263625,10.5706353 21.4808464,10.1915566 21.0221333,10.0555598 L20.6914074,9.98163287 C19.0311925,9.4796229 18.0515497,7.76891858 18.4588127,6.08295767 L18.559976,5.77324255 C18.6817113,5.30206843 18.5401524,4.80185389 18.1895629,4.46434601 C17.8129061,4.17050286 17.4137724,3.90666869 16.9958368,3.67527283 C16.5950748,3.44181922 16.177971,3.23638005 15.7476382,3.06206802 C15.2728148,2.91284849 14.7544025,3.03729137 14.3990546,3.38579036 L14.1694918,3.6285821 C13.5630546,4.20283237 12.7588458,4.52161785 11.9236682,4.51881852 C11.0946591,4.51384196 10.2987382,4.19296896 9.69807714,3.6215785 L9.47551803,3.38579036 C9.12017006,3.03729137 8.60175776,2.91284849 8.12693438,3.06206802 C7.70372029,3.23682965 7.29360287,3.44175833 6.89974659,3.67527283 C6.48809007,3.90717007 6.09588801,4.17097265 5.72625314,4.46434601 C5.38263642,4.80592272 5.24866264,5.30557659 5.37529455,5.77324255 L5.46945417,6.08295767 C5.66428957,6.89876383 5.53896368,7.7582209 5.11927377,8.48441708 C4.7165661,9.20184956 4.0480568,9.73229715 3.25787036,9.96140022 L2.94037346,10.0353272 C2.49358187,10.1424432 2.15392044,10.5059943 2.0773733,10.9590253 C2.01667536,11.4243761 1.99177364,11.8928397 2.00344632,12.3620815 C1.99021728,12.8398832 2.015119,13.3176849 2.0773733,13.7915957 C2.15196497,14.255634 2.47213997,14.6428224 2.91391538,14.803228 L3.2236305,14.8779331 C4.02075066,15.1237641 4.69086829,15.6702407 5.09203751,16.401607 C5.51303218,17.1276477 5.63831895,17.9875352 5.44221792,18.8030664 L5.37529455,19.1065561 C5.25734637,19.5800315 5.40435873,20.0802902 5.75971482,20.4146745 C6.12078973,20.708826 6.50443182,20.9749631 6.90597202,21.2107513 C7.30517769,21.453543 7.72228146,21.6652076 8.15417063,21.8441887 C8.62885963,21.993599 9.14712663,21.8690904 9.50275429,21.5204664 L9.71830978,21.2846782 C10.9829659,20.0848392 12.9655336,20.0848392 14.2301898,21.2846782 L14.4465235,21.5204664 C14.8018714,21.8689654 15.3202837,21.9934082 15.7951071,21.8441887 C16.2119701,21.6619992 16.6153113,21.4503166 17.0020622,21.2107513 C17.4185538,20.9802246 17.8156862,20.7163371 18.1895629,20.4216781 C18.5444124,20.0870612 18.6914882,19.5866923 18.5739832,19.1127815 L18.4790454,18.7960628 C18.0782192,17.1067289 19.0672282,15.3985958 20.7318727,14.9051694 L21.042366,14.8304642 C21.5007771,14.694223 21.8459508,14.3151911 21.9388278,13.8460682 C21.9933003,13.3799392 22.0111984,12.9114756 21.9933003,12.443012 C22.0032804,11.9741203 21.9783096,11.5051367 21.9185952,11.0399559 L21.9193733,11.0399559 Z M11.9509044,16.443012 C9.74176542,16.443012 7.95090442,14.652151 7.95090442,12.443012 C7.95090442,10.233873 9.74176542,8.44301204 11.9509044,8.44301204 C14.1600434,8.44301204 15.9509044,10.233873 15.9509044,12.443012 C15.9509044,14.652151 14.1600434,16.443012 11.9509044,16.443012 Z" id="形状" fill="#8F959E" fill-rule="nonzero"></path>
            </g>
        </g>
    </g>
</svg>