<?xml version="1.0" encoding="UTF-8"?>
<svg width="24px" height="24px" viewBox="0 0 24 24" version="1.1" xmlns="http://www.w3.org/2000/svg" xmlns:xlink="http://www.w3.org/1999/xlink">
    <title>ic_聊天头栏_视频</title>
    <g id="PC补齐界面" stroke="none" stroke-width="1" fill="none" fill-rule="evenodd">
        <g id="画板" transform="translate(-52.000000, -172.000000)">
            <g id="ic_聊天头栏_视频" transform="translate(52.000000, 172.000000)">
                <rect id="矩形备份-4" x="0" y="0" width="24" height="24"></rect>
                <g id="编组-35" transform="translate(2.500000, 5.500000)" fill="#000000" fill-rule="nonzero">
                    <path d="M13,0.25 C13.9181734,0.25 14.6711923,0.957110273 14.7441988,1.85647279 L14.75,2 L14.75,4.091 L17.1405712,1.78684292 C17.4891999,1.45066526 18.0284592,1.43412257 18.3958066,1.73062315 L18.4838521,1.81126621 C18.6261362,1.95882008 18.7161051,2.14757062 18.7421423,2.34873614 L18.75,2.470695 L18.75,10.529305 C18.75,11.0539755 18.3246705,11.479305 17.8,11.479305 C17.5950197,11.479305 17.3966981,11.4130501 17.2338169,11.2921568 L17.1405712,11.2131571 L14.75,8.908 L14.75,11 C14.75,11.9181734 14.0428897,12.6711923 13.1435272,12.7441988 L13,12.75 L2,12.75 C1.0818266,12.75 0.32880766,12.0428897 0.2558012,11.1435272 L0.25,11 L0.25,2 C0.25,1.0818266 0.957110273,0.32880766 1.85647279,0.2558012 L2,0.25 L13,0.25 Z M13,1.75 L2,1.75 C1.88165327,1.75 1.78251318,1.83223341 1.75660268,1.94267729 L1.75,2 L1.75,11 C1.75,11.1183467 1.83223341,11.2174868 1.94267729,11.2433973 L2,11.25 L13,11.25 C13.1183467,11.25 13.2174868,11.1677666 13.2433973,11.0573227 L13.25,11 L13.25,2 C13.25,1.86192881 13.1380712,1.75 13,1.75 Z M17.25,3.764 L14.8264661,6.10208538 C14.7938905,6.13349755 14.7707641,6.17284042 14.758966,6.2156915 L14.75,6.28204645 L14.75,6.71795355 C14.75,6.7632072 14.7622679,6.8071639 14.7849245,6.84540115 L14.8264661,6.89791462 L17.25,9.235 L17.25,3.764 Z M4.5,3 C5.32842712,3 6,3.67157288 6,4.5 C6,5.32842712 5.32842712,6 4.5,6 C3.67157288,6 3,5.32842712 3,4.5 C3,3.67157288 3.67157288,3 4.5,3 Z" id="形状"></path>
                </g>
            </g>
        </g>
    </g>
</svg>