<?xml version="1.0" encoding="UTF-8"?>
<svg width="18px" height="18px" viewBox="0 0 18 18" version="1.1" xmlns="http://www.w3.org/2000/svg" xmlns:xlink="http://www.w3.org/1999/xlink">
    <title>ic_功能_语音备份</title>
    <g id="PC补齐界面" stroke="none" stroke-width="1" fill="none" fill-rule="evenodd">
        <g id="画板" transform="translate(-200.000000, -137.000000)">
            <g id="ic_功能_语音备份" transform="translate(200.000000, 137.000000)">
                <rect id="矩形" x="0" y="0" width="18" height="18"></rect>
                <g id="语音-(6)" transform="translate(2.250000, 0.000000)" fill="#BBBBBB" fill-rule="nonzero">
                    <path d="M7.4955,14.956875 C7.496625,14.9715 7.5,14.985 7.5,15 L7.5,17.25 C7.5,17.6642136 7.16421356,18 6.75,18 C6.33578644,18 6,17.6642136 6,17.25 L6,15 C6,14.984625 6.00375,14.970375 6.0045,14.955375 C2.80341343,14.5986379 0.300858851,12.0290239 0.028875,8.819625 C-0.00289789024,8.71597906 -0.0084386548,8.60606575 0.01275,8.49975 C0.009375,8.416125 0,8.334375 0,8.25 C0,7.83578644 0.335786438,7.5 0.75,7.5 C1.16421356,7.5 1.5,7.83578644 1.5,8.25 C1.5,11.1494949 3.85050509,13.5 6.75,13.5 C9.64949491,13.5 12,11.1494949 12,8.25 C12,7.83578644 12.3357864,7.5 12.75,7.5 C13.1642136,7.5 13.5,7.83578644 13.5,8.25 C13.4990674,11.6887244 10.9131874,14.5770871 7.4955,14.956875 L7.4955,14.956875 Z M6.75,12 C4.67893219,12 3,10.3210678 3,8.25 L3,3.75 C3,1.67893219 4.67893219,0 6.75,0 C8.82106781,0 10.5,1.67893219 10.5,3.75 L10.5,8.25 C10.5,10.3210678 8.82106781,12 6.75,12 L6.75,12 Z M9,3.75 C9,2.50735931 7.99264069,1.5 6.75,1.5 C5.50735931,1.5 4.5,2.50735931 4.5,3.75 L4.5,8.25 C4.5,9.49264069 5.50735931,10.5 6.75,10.5 C7.99264069,10.5 9,9.49264069 9,8.25 L9,3.75 Z M6.75,9.375 C6.44665332,9.375 6.1731761,9.19226837 6.05709035,8.91201257 C5.9410046,8.63175678 6.00517142,8.30916841 6.21966991,8.09466991 C6.43416841,7.88017142 6.75675678,7.8160046 7.03701257,7.93209035 C7.31726837,8.0481761 7.5,8.32165332 7.5,8.625 C7.5,8.82391237 7.42098237,9.0146778 7.28033009,9.15533009 C7.1396778,9.29598237 6.94891237,9.375 6.75,9.375 L6.75,9.375 Z" id="形状"></path>
                </g>
            </g>
        </g>
    </g>
</svg>