<svg width="18" height="19" viewBox="0 0 18 19" fill="none" xmlns="http://www.w3.org/2000/svg">
    <g clip-path="url(#clip0_3760_15255)">
        <path d="M8.89517 0.666626C3.98203 0.666626 0 4.62503 0 9.50874C0 14.3924 3.98225 18.3508 8.89515 18.3508C13.8076 18.3508 17.7899 14.3924 17.7899 9.50874C17.7899 4.62519 13.8076 0.666626 8.89515 0.666626H8.89517ZM8.89369 17.2019C4.65013 17.2019 1.21005 13.7618 1.21005 9.5183C1.21005 5.27474 4.65015 1.83466 8.89369 1.83466C13.1372 1.83466 16.5773 5.27476 16.5773 9.5183C16.5773 13.7619 13.1372 17.2019 8.89369 17.2019ZM4.26608 9.46625C4.26608 10.0848 4.76753 10.5862 5.38607 10.5862C6.0046 10.5862 6.50605 10.0848 6.50605 9.46625C6.50605 8.84769 6.0046 8.34626 5.38607 8.34626C4.76751 8.34626 4.26608 8.84771 4.26608 9.46625ZM8.01673 9.46625C8.01673 10.0848 8.51818 10.5862 9.13671 10.5862C9.75525 10.5862 10.2567 10.0848 10.2567 9.46625C10.2567 8.84769 9.75525 8.34626 9.13671 8.34626C8.51816 8.34626 8.01673 8.84771 8.01673 9.46625ZM11.4027 9.46625C11.4027 10.0848 11.9042 10.5862 12.5227 10.5862C13.1413 10.5862 13.6427 10.0848 13.6427 9.46625C13.6427 8.84769 13.1413 8.34626 12.5227 8.34626C11.9042 8.34626 11.4027 8.84771 11.4027 9.46625Z"
              fill="white"/>
    </g>
    <defs>
        <clipPath id="clip0_3760_15255">
            <rect width="18" height="18" fill="white" transform="translate(0 0.666626)"/>
        </clipPath>
    </defs>
</svg>
