<svg width="24" height="24" viewBox="0 0 24 24" fill="none" xmlns="http://www.w3.org/2000/svg">
    <g clip-path="url(#clip0_3717_11458)">
        <mask id="path-1-inside-1_3717_11458" fill="white">
            <path fill-rule="evenodd" clip-rule="evenodd"
                  d="M19.6893 17.8913C21.131 16.1584 21.998 13.9304 21.998 11.5C21.998 5.97715 17.5209 1.5 11.998 1.5C6.4752 1.5 1.99805 5.97715 1.99805 11.5C1.99805 17.0228 6.4752 21.5 11.998 21.5C14.1036 21.5 16.0571 20.8493 17.6686 19.738C17.6858 19.7471 17.7041 19.7551 17.7233 19.7619L19.9382 20.5463C20.2554 20.6587 20.5611 20.3529 20.4488 20.0357L19.6893 17.8913Z"/>
        </mask>
        <path d="M19.6893 17.8913L18.5362 16.932L17.9906 17.5879L18.2754 18.3921L19.6893 17.8913ZM17.6686 19.738L18.3687 18.4114L17.5651 17.9872L16.817 18.5031L17.6686 19.738ZM17.7233 19.7619L17.2226 21.1759H17.2226L17.7233 19.7619ZM19.9382 20.5463L20.4389 19.1324L19.9382 20.5463ZM20.4488 20.0357L19.0348 20.5365L20.4488 20.0357ZM20.498 11.5C20.498 13.5672 19.762 15.4585 18.5362 16.932L20.8425 18.8506C22.5 16.8582 23.498 14.2937 23.498 11.5H20.498ZM11.998 3C16.6925 3 20.498 6.80558 20.498 11.5H23.498C23.498 5.14873 18.3493 0 11.998 0V3ZM3.49805 11.5C3.49805 6.80558 7.30363 3 11.998 3V0C5.64677 0 0.498047 5.14873 0.498047 11.5H3.49805ZM11.998 20C7.30363 20 3.49805 16.1944 3.49805 11.5H0.498047C0.498047 17.8513 5.64677 23 11.998 23V20ZM16.817 18.5031C15.4479 19.4473 13.7898 20 11.998 20V23C14.4174 23 16.6663 22.2512 18.5201 20.9728L16.817 18.5031ZM18.2241 18.348C18.2732 18.3654 18.3216 18.3865 18.3687 18.4114L16.9684 21.0645C17.0501 21.1076 17.135 21.1448 17.2226 21.1759L18.2241 18.348ZM20.4389 19.1324L18.2241 18.348L17.2226 21.1759L19.4374 21.9603L20.4389 19.1324ZM19.0348 20.5365C18.7259 19.6641 19.5666 18.8234 20.4389 19.1324L19.4374 21.9603C20.9442 22.4939 22.3964 21.0417 21.8627 19.535L19.0348 20.5365ZM18.2754 18.3921L19.0348 20.5365L21.8627 19.535L21.1033 17.3906L18.2754 18.3921Z"
              fill="#1C66E5" mask="url(#path-1-inside-1_3717_11458)"/>
        <path d="M8 11.5H16" stroke="#1C66E5" stroke-width="1.5" stroke-linecap="round"/>
        <path d="M12 15.5L12 7.5" stroke="#1C66E5" stroke-width="1.5" stroke-linecap="round"/>
    </g>
    <defs>
        <clipPath id="clip0_3717_11458">
            <rect width="24" height="24" fill="white"/>
        </clipPath>
    </defs>
</svg>
