<svg width="24" height="24" viewBox="0 0 24 24" fill="none" xmlns="http://www.w3.org/2000/svg">
    <mask id="path-1-inside-1_6620_1637" fill="white">
        <path fill-rule="evenodd" clip-rule="evenodd"
              d="M5.60156 9.0001C5.60156 12.5347 8.46692 15.4001 12.0016 15.4001C15.5362 15.4001 18.4016 12.5347 18.4016 9.0001C18.4016 5.46546 15.5362 2.6001 12.0016 2.6001C8.46692 2.6001 5.60156 5.46546 5.60156 9.0001ZM5.20078 16.4001C3.8753 16.4001 2.80078 17.4746 2.80078 18.8001C2.80078 20.1256 3.87529 21.2001 5.20078 21.2001H18.8008C20.1263 21.2001 21.2008 20.1256 21.2008 18.8001C21.2008 17.4746 20.1263 16.4001 18.8008 16.4001H5.20078Z"/>
    </mask>
    <path d="M12.0016 13.9001C9.29535 13.9001 7.10156 11.7063 7.10156 9.0001H4.10156C4.10156 13.3632 7.6385 16.9001 12.0016 16.9001V13.9001ZM16.9016 9.0001C16.9016 11.7063 14.7078 13.9001 12.0016 13.9001V16.9001C16.3646 16.9001 19.9016 13.3632 19.9016 9.0001H16.9016ZM12.0016 4.1001C14.7078 4.1001 16.9016 6.29388 16.9016 9.0001H19.9016C19.9016 4.63703 16.3646 1.1001 12.0016 1.1001V4.1001ZM7.10156 9.0001C7.10156 6.29388 9.29535 4.1001 12.0016 4.1001V1.1001C7.6385 1.1001 4.10156 4.63703 4.10156 9.0001H7.10156ZM4.30078 18.8001C4.30078 18.303 4.70372 17.9001 5.20078 17.9001V14.9001C3.04687 14.9001 1.30078 16.6462 1.30078 18.8001H4.30078ZM5.20078 19.7001C4.70372 19.7001 4.30078 19.2971 4.30078 18.8001H1.30078C1.30078 20.954 3.04686 22.7001 5.20078 22.7001V19.7001ZM18.8008 19.7001H5.20078V22.7001H18.8008V19.7001ZM19.7008 18.8001C19.7008 19.2971 19.2978 19.7001 18.8008 19.7001V22.7001C20.9547 22.7001 22.7008 20.954 22.7008 18.8001H19.7008ZM18.8008 17.9001C19.2978 17.9001 19.7008 18.303 19.7008 18.8001H22.7008C22.7008 16.6462 20.9547 14.9001 18.8008 14.9001V17.9001ZM5.20078 17.9001H18.8008V14.9001H5.20078V17.9001Z"
          fill="#666666" style="fill:#666666;fill:color(display-p3 0.4000 0.4000 0.4000);fill-opacity:1;"
          mask="url(#path-1-inside-1_6620_1637)"/>
</svg>
