<svg width="24" height="24" viewBox="0 0 24 24" fill="none" xmlns="http://www.w3.org/2000/svg">
    <mask id="path-1-inside-1_6620_1614" fill="white">
        <path fill-rule="evenodd" clip-rule="evenodd"
              d="M19.6893 18.3913C21.131 16.6584 21.998 14.4304 21.998 12C21.998 6.47715 17.5209 2 11.998 2C6.4752 2 1.99805 6.47715 1.99805 12C1.99805 17.5228 6.4752 22 11.998 22C14.1036 22 16.0571 21.3493 17.6686 20.238C17.6858 20.2471 17.7041 20.2551 17.7233 20.2619L19.9382 21.0463C20.2554 21.1587 20.5611 20.8529 20.4488 20.5357L19.6893 18.3913Z"/>
    </mask>
    <path d="M19.6893 18.3913L18.5362 17.432L17.9906 18.0879L18.2754 18.8921L19.6893 18.3913ZM17.6686 20.238L18.3687 18.9114L17.5651 18.4872L16.817 19.0031L17.6686 20.238ZM17.7233 20.2619L17.2226 21.6759H17.2226L17.7233 20.2619ZM19.9382 21.0463L20.4389 19.6324L19.9382 21.0463ZM20.4488 20.5357L19.0348 21.0365L20.4488 20.5357ZM20.498 12C20.498 14.0672 19.762 15.9585 18.5362 17.432L20.8425 19.3506C22.5 17.3582 23.498 14.7937 23.498 12H20.498ZM11.998 3.5C16.6925 3.5 20.498 7.30558 20.498 12H23.498C23.498 5.64873 18.3493 0.5 11.998 0.5V3.5ZM3.49805 12C3.49805 7.30558 7.30363 3.5 11.998 3.5V0.5C5.64677 0.5 0.498047 5.64873 0.498047 12H3.49805ZM11.998 20.5C7.30363 20.5 3.49805 16.6944 3.49805 12H0.498047C0.498047 18.3513 5.64677 23.5 11.998 23.5V20.5ZM16.817 19.0031C15.4479 19.9473 13.7898 20.5 11.998 20.5V23.5C14.4174 23.5 16.6663 22.7512 18.5201 21.4728L16.817 19.0031ZM18.2241 18.848C18.2732 18.8654 18.3216 18.8865 18.3687 18.9114L16.9684 21.5645C17.0501 21.6076 17.135 21.6448 17.2226 21.6759L18.2241 18.848ZM20.4389 19.6324L18.2241 18.848L17.2226 21.6759L19.4374 22.4603L20.4389 19.6324ZM19.0348 21.0365C18.7259 20.1641 19.5666 19.3234 20.4389 19.6324L19.4374 22.4603C20.9442 22.9939 22.3964 21.5417 21.8627 20.035L19.0348 21.0365ZM18.2754 18.8921L19.0348 21.0365L21.8627 20.035L21.1033 17.8906L18.2754 18.8921Z"
          fill="#666666" style="fill:#666666;fill:color(display-p3 0.4000 0.4000 0.4000);fill-opacity:1;"
          mask="url(#path-1-inside-1_6620_1614)"/>
    <circle cx="7.00195" cy="12" r="1.5" fill="#666666"
            style="fill:#666666;fill:color(display-p3 0.4000 0.4000 0.4000);fill-opacity:1;"/>
    <circle cx="12" cy="12" r="1.5" fill="#666666"
            style="fill:#666666;fill:color(display-p3 0.4000 0.4000 0.4000);fill-opacity:1;"/>
    <circle cx="16.998" cy="12" r="1.5" fill="#666666"
            style="fill:#666666;fill:color(display-p3 0.4000 0.4000 0.4000);fill-opacity:1;"/>
</svg>
