<svg width="24" height="25" viewBox="0 0 24 25" fill="none" xmlns="http://www.w3.org/2000/svg">
    <path d="M15.2227 5.45195H14.4727V5.92762L14.9029 6.13039L15.2227 5.45195ZM16.2752 6.05611L15.8507 6.67441L16.2392 6.94109L16.648 6.70692L16.2752 6.05611ZM17.7269 5.22467L18.0996 5.87549V5.87548L17.7269 5.22467ZM19.3704 5.66503L18.7222 6.04228V6.04228L19.3704 5.66503ZM21.3815 9.12065L22.0297 8.7434V8.7434L21.3815 9.12065ZM20.9381 10.7755L20.5653 10.1247L20.9381 10.7755ZM19.4997 11.5994L19.1269 10.9486L18.714 11.1851L18.7521 11.6594L19.4997 11.5994ZM19.4995 12.8023L18.752 12.7422L18.7138 13.2166L19.1268 13.4532L19.4995 12.8023ZM20.9352 13.6246L20.5624 14.2754H20.5624L20.9352 13.6246ZM21.3786 15.2795L22.0268 15.6567L21.3786 15.2795ZM19.3675 18.7351L18.7193 18.3579L19.3675 18.7351ZM17.724 19.1755L17.3512 19.8263H17.3512L17.724 19.1755ZM16.274 18.345L16.6468 17.6942L16.238 17.4601L15.8496 17.7266L16.274 18.345ZM15.2283 18.9456L14.9081 18.2675L14.4783 18.4704V18.9456H15.2283ZM8.777 18.9509H9.527V18.4748L9.09617 18.2722L8.777 18.9509ZM7.72139 18.3458L8.14565 17.7273L7.7573 17.4609L7.34863 17.695L7.72139 18.3458ZM6.27278 19.1755L6.64553 19.8263H6.64553L6.27278 19.1755ZM4.6293 18.7351L3.98108 19.1124H3.98108L4.6293 18.7351ZM2.61819 15.2795L1.96998 15.6568H1.96998L2.61819 15.2795ZM3.06161 13.6246L2.68885 12.9738H2.68885L3.06161 13.6246ZM4.49478 12.8038L4.86753 13.4546L5.28062 13.218L5.24235 12.7435L4.49478 12.8038ZM4.49465 11.5981L5.24224 11.6582L5.28039 11.1838L4.8674 10.9472L4.49465 11.5981ZM3.05864 10.7756L3.43139 10.1248L3.43139 10.1248L3.05864 10.7756ZM2.61522 9.12068L1.96701 8.74343H1.96701L2.61522 9.12068ZM4.62633 5.66506L5.27455 6.04231V6.04231L4.62633 5.66506ZM6.26981 5.2247L5.89706 5.87551H5.89706L6.26981 5.2247ZM7.72007 6.05535L7.34732 6.70616L7.75608 6.94028L8.14447 6.67372L7.72007 6.05535ZM8.77132 5.45205L9.09105 6.13048L9.52132 5.92771V5.45205H8.77132ZM9.97861 1.8501C8.89763 1.8501 8.02132 2.72641 8.02132 3.80739H9.52132C9.52132 3.55483 9.72605 3.3501 9.97861 3.3501V1.8501ZM14.0154 1.8501H9.97861V3.3501H14.0154V1.8501ZM15.9727 3.80739C15.9727 2.72641 15.0963 1.8501 14.0154 1.8501V3.3501C14.2679 3.3501 14.4727 3.55484 14.4727 3.80739H15.9727ZM15.9727 5.45195V3.80739H14.4727V5.45195H15.9727ZM16.6998 5.43781C16.3343 5.1869 15.9474 4.96438 15.5424 4.7735L14.9029 6.13039C15.2345 6.28664 15.5513 6.46885 15.8507 6.67441L16.6998 5.43781ZM17.3541 4.57386L15.9025 5.4053L16.648 6.70692L18.0996 5.87549L17.3541 4.57386ZM20.0186 5.28778C19.4775 4.35807 18.2876 4.03924 17.3541 4.57387L18.0996 5.87548C18.3177 5.75058 18.5957 5.82507 18.7222 6.04228L20.0186 5.28778ZM22.0297 8.7434L20.0186 5.28778L18.7222 6.04228L20.7333 9.4979L22.0297 8.7434ZM21.3108 11.4264C22.2534 10.8865 22.5761 9.68225 22.0297 8.7434L20.7333 9.4979C20.8609 9.71725 20.7855 9.9986 20.5653 10.1247L21.3108 11.4264ZM19.8724 12.2502L21.3108 11.4264L20.5653 10.1247L19.1269 10.9486L19.8724 12.2502ZM20.2737 12.2001C20.2737 11.9779 20.2648 11.7575 20.2473 11.5394L18.7521 11.6594C18.7664 11.8376 18.7737 12.0179 18.7737 12.2001H20.2737ZM20.2471 12.8625C20.2647 12.6439 20.2737 12.423 20.2737 12.2001H18.7737C18.7737 12.3828 18.7663 12.5635 18.752 12.7422L20.2471 12.8625ZM21.3079 12.9738L19.8723 12.1515L19.1268 13.4532L20.5624 14.2754L21.3079 12.9738ZM22.0268 15.6567C22.5732 14.7179 22.2505 13.5137 21.3079 12.9738L20.5624 14.2754C20.7826 14.4016 20.858 14.6829 20.7304 14.9022L22.0268 15.6567ZM20.0157 19.1124L22.0268 15.6567L20.7304 14.9022L18.7193 18.3579L20.0157 19.1124ZM17.3512 19.8263C18.2847 20.3609 19.4746 20.0421 20.0157 19.1124L18.7193 18.3579C18.5928 18.5751 18.3148 18.6496 18.0967 18.5247L17.3512 19.8263ZM15.9013 18.9958L17.3512 19.8263L18.0967 18.5247L16.6468 17.6942L15.9013 18.9958ZM15.5486 19.6238C15.9509 19.4338 16.3352 19.2126 16.6984 18.9634L15.8496 17.7266C15.5521 17.9308 15.2374 18.1119 14.9081 18.2675L15.5486 19.6238ZM15.9783 20.5928V18.9456H14.4783V20.5928H15.9783ZM14.0211 22.5501C15.102 22.5501 15.9783 21.6738 15.9783 20.5928H14.4783C14.4783 20.8453 14.2736 21.0501 14.0211 21.0501V22.5501ZM9.9843 22.5501H14.0211V21.0501H9.9843V22.5501ZM8.027 20.5928C8.027 21.6738 8.90331 22.5501 9.9843 22.5501V21.0501C9.73174 21.0501 9.527 20.8453 9.527 20.5928H8.027ZM8.027 18.9509V20.5928H9.527V18.9509H8.027ZM7.29712 18.9643C7.6636 19.2157 8.05159 19.4385 8.45783 19.6296L9.09617 18.2722C8.76362 18.1158 8.44588 17.9333 8.14565 17.7273L7.29712 18.9643ZM6.64553 19.8263L8.09414 18.9966L7.34863 17.695L5.90002 18.5247L6.64553 19.8263ZM3.98108 19.1124C4.52216 20.0421 5.7121 20.3609 6.64553 19.8263L5.90002 18.5247C5.68194 18.6496 5.40393 18.5751 5.27751 18.3579L3.98108 19.1124ZM1.96998 15.6568L3.98108 19.1124L5.27751 18.3579L3.26641 14.9023L1.96998 15.6568ZM2.68885 12.9738C1.74624 13.5137 1.42358 14.7179 1.96998 15.6568L3.26641 14.9023C3.13875 14.6829 3.21413 14.4016 3.43436 14.2754L2.68885 12.9738ZM4.12202 12.153L2.68885 12.9738L3.43436 14.2754L4.86753 13.4546L4.12202 12.153ZM3.72054 12.2001C3.72054 12.4235 3.72953 12.6449 3.7472 12.8641L5.24235 12.7435C5.22791 12.5644 5.22054 12.3832 5.22054 12.2001H3.72054ZM3.74706 11.5379C3.72948 11.7565 3.72054 11.9774 3.72054 12.2001H5.22054C5.22054 12.0175 5.22787 11.8368 5.24224 11.6582L3.74706 11.5379ZM4.8674 10.9472L3.43139 10.1248L2.68588 11.4264L4.12189 12.2489L4.8674 10.9472ZM3.43139 10.1248C3.21117 9.99862 3.13578 9.71728 3.26344 9.49793L1.96701 8.74343C1.42061 9.68228 1.74327 10.8865 2.68588 11.4264L3.43139 10.1248ZM3.26344 9.49793L5.27455 6.04231L3.97812 5.28781L1.96701 8.74343L3.26344 9.49793ZM5.27455 6.04231C5.40096 5.8251 5.67897 5.75061 5.89706 5.87551L6.64257 4.57389C5.70913 4.03926 4.51919 4.3581 3.97812 5.28781L5.27455 6.04231ZM5.89706 5.87551L7.34732 6.70616L8.09283 5.40454L6.64257 4.57389L5.89706 5.87551ZM8.45158 4.77362C8.04707 4.96426 7.6607 5.18646 7.29568 5.43697L8.14447 6.67372C8.44351 6.46849 8.75992 6.28654 9.09105 6.13048L8.45158 4.77362ZM8.02132 3.80739V5.45205H9.52132V3.80739H8.02132Z"
          fill="#666666" style="fill:#666666;fill:color(display-p3 0.4000 0.4000 0.4000);fill-opacity:1;"/>
    <circle cx="11.9973" cy="12.2004" r="3.05" stroke="#666666"
            style="stroke:#666666;stroke:color(display-p3 0.4000 0.4000 0.4000);stroke-opacity:1;" stroke-width="1.5"/>
</svg>
