<?xml version="1.0" encoding="UTF-8"?>
<svg width="230px" height="70px" viewBox="0 0 230 70" version="1.1" xmlns="http://www.w3.org/2000/svg" xmlns:xlink="http://www.w3.org/1999/xlink">
    <title>编组</title>
    <defs>
        <path d="M4,0 L226,0 C228.209139,-4.05812251e-16 230,1.790861 230,4 L230,66 C230,68.209139 228.209139,70 226,70 L4,70 C1.790861,70 2.705415e-16,68.209139 0,66 L0,4 C-2.705415e-16,1.790861 1.790861,4.05812251e-16 4,0 Z" id="path-1"></path>
        <linearGradient x1="0%" y1="3.17377732%" x2="115.312974%" y2="115.99274%" id="linearGradient-3">
            <stop stop-color="#D4E7FF" offset="0%"></stop>
            <stop stop-color="#A9CBFF" offset="100%"></stop>
        </linearGradient>
        <linearGradient x1="50%" y1="0%" x2="50%" y2="72.5432672%" id="linearGradient-4">
            <stop stop-color="#FFFFFF" offset="0%"></stop>
            <stop stop-color="#F5F9FF" offset="100%"></stop>
        </linearGradient>
        <path d="M4,0 L226,0 C228.209139,-4.05812251e-16 230,1.790861 230,4 L230,66 C230,68.209139 228.209139,70 226,70 L4,70 C1.790861,70 2.705415e-16,68.209139 0,66 L0,4 C-2.705415e-16,1.790861 1.790861,4.05812251e-16 4,0 Z" id="path-5"></path>
    </defs>
    <g id="new" stroke="none" stroke-width="1" fill="none" fill-rule="evenodd">
        <g id="广告位" transform="translate(-318.000000, -123.000000)">
            <g id="编组" transform="translate(318.000000, 123.000000)">
                <mask id="mask-2" fill="white">
                    <use xlink:href="#path-1"></use>
                </mask>
                <g id="v"></g>
                <path d="M36.5081967,9.93488869 L36.5081967,32.4576271 L67,32.4576271 L67,5 L36.5081967,9.93488869 Z M36.5081967,60.1481125 L67,65 L67,37.5423729 L36.5081967,37.5423729 L36.5081967,60.1481125 Z M5,31.440678 L29.3934426,31.440678 L29.3934426,10.0847458 L5,14.1901801 L5,31.440678 Z M5,55.8947745 L29.3934426,59.9152542 L29.3934426,38.559322 L5,38.559322 L5,55.8947745 Z" id="形状" fill="url(#linearGradient-3)" mask="url(#mask-2)"></path>
                <mask id="mask-6" fill="white">
                    <use xlink:href="#path-5"></use>
                </mask>
                <use id="v" fill-opacity="0.5" fill="url(#linearGradient-4)" xlink:href="#path-5"></use>
            </g>
        </g>
    </g>
</svg>