<svg xmlns="http://www.w3.org/2000/svg" viewBox="0 0 56 57" class="design-iconfont">
  <g fill="none" fill-rule="evenodd">
    <path stroke="#444" stroke-width="4" d="M28 2A26 26 0 1 0 28 54A26 26 0 1 0 28 2Z" transform="translate(0 .853448)"/>
    <path d="M3.22061856,17.5880403 C3.66244636,17.5880403 4.02061856,17.9462125 4.02061856,18.3880403 L4.02061856,18.6926914 C4.02061856,24.8806658 8.93625507,29.8970101 15,29.8970101 C20.967495,29.8970101 25.8230402,25.0386509 25.975681,18.9864559 L25.9793814,18.6926914 L25.9793814,18.3880403 C25.9793814,17.9462125 26.3375536,17.5880403 26.7793814,17.5880403 L29.2,17.5880403 C29.6418278,17.5880403 30,17.9462125 30,18.3880403 L30,18.6926914 C30,27.1466845 23.2842712,34 15,34 C6.82193736,34 0.172455987,27.3212841 0.00330065692,19.0170447 L0,18.6926914 L0,18.3880403 C-1.65130603e-16,17.9462125 0.3581722,17.5880403 0.8,17.5880403 L3.22061856,17.5880403 Z M15.1965847,0 C19.4037284,0 22.8142432,3.57961711 22.8142432,7.9953621 L22.8142432,18.3119584 C22.7872128,22.7074732 19.3846075,26.2557375 15.1965847,26.2557375 L14.8034153,26.2557375 C10.5962716,26.2557375 7.18575682,22.6760398 7.18575682,18.2603754 L7.18575682,7.94377912 C7.21278722,3.54818373 10.6153925,0 14.8034153,0 L15.1965847,0 Z M15.1965847,4.10298992 L14.8034153,4.10298992 C12.9144516,4.10298992 11.325224,5.69669854 11.2126654,7.73818076 L11.2063754,7.94377912 L11.2063754,18.2603754 C11.2063754,20.365303 12.7386643,22.0414789 14.614709,22.1474289 L14.8034153,22.1527476 L15.1965847,22.1527476 C17.0855164,22.1527476 18.6747739,20.5589954 18.7873345,18.5175525 L18.7936246,18.3119584 L18.7936246,7.9953621 C18.7936246,5.89038947 17.2613666,4.21425569 15.385294,4.10830842 L15.1965847,4.10298992 Z" transform="translate(13 12)" fill="#444" fill-rule="nonzero"/>
  </g>
</svg>
