<svg xmlns="http://www.w3.org/2000/svg" viewBox="0 0 36 36" class="design-iconfont">
  <path d="M24.3200016,1.19098076 C28.8568099,5.47915107 31.6859192,11.5425349 31.6859192,18.2641081 C31.6859192,24.7815242 29.0260594,30.6801266 24.728639,34.9416145 L22.3493434,32.5573213 C26.0317851,28.9047558 28.3109192,23.8495511 28.3109192,18.2641081 C28.3109192,12.5051405 25.8879722,7.30986914 22.0020959,3.63455659 L24.3200016,1.19098076 Z M17.365435,8.52091877 C19.9499428,10.9705553 21.5609192,14.4299357 21.5609192,18.2641081 C21.5609192,21.9869633 20.0421276,25.3564731 17.5880651,27.7913993 L15.2074884,25.4083759 C17.0473247,23.5822743 18.1859192,21.0556377 18.1859192,18.2641081 C18.1859192,15.3917883 16.9804663,12.7999159 15.0459957,10.9630624 L17.365435,8.52091877 Z M8.06091915,14.9023084 C9.92488018,14.9023084 11.4359192,16.4074374 11.4359192,18.2641081 C11.4359192,20.1207789 9.92488018,21.6259079 8.06091915,21.6259079 C6.19695812,21.6259079 4.68591915,20.1207789 4.68591915,18.2641081 C4.68591915,16.4074374 6.19695812,14.9023084 8.06091915,14.9023084 Z" fill="#000" transform="matrix(-1 0 0 1 36.371838 0)" fill-rule="evenodd"/>
</svg>
