<?xml version="1.0" encoding="UTF-8"?>
<svg xmlns="http://www.w3.org/2000/svg" xmlns:xlink="http://www.w3.org/1999/xlink" width="48px" height="48px" viewBox="0 0 48 48" version="1.1">
  <title>矩形</title>
  <g id="移动端-轻量版" stroke="none" stroke-width="1" fill="none" fill-rule="evenodd">
    <g id="切图1" transform="translate(-948.000000, -31.000000)" fill="#666666">
      <g id="more" transform="translate(948.000000, 31.000000)">
        <path d="M12,21 C12.5522847,21 13,21.4477153 13,22 L13,26 C13,26.5522847 12.5522847,27 12,27 L8,27 C7.44771525,27 7,26.5522847 7,26 L7,22 C7,21.4477153 7.44771525,21 8,21 L12,21 Z M26,21 C26.5522847,21 27,21.4477153 27,22 L27,26 C27,26.5522847 26.5522847,27 26,27 L22,27 C21.4477153,27 21,26.5522847 21,26 L21,22 C21,21.4477153 21.4477153,21 22,21 L26,21 Z M40,21 C40.5522847,21 41,21.4477153 41,22 L41,26 C41,26.5522847 40.5522847,27 40,27 L36,27 C35.4477153,27 35,26.5522847 35,26 L35,22 C35,21.4477153 35.4477153,21 36,21 L40,21 Z" id="形状结合"></path>
      </g>
    </g>
  </g>
</svg>
