<svg xmlns="http://www.w3.org/2000/svg" viewBox="0 0 62 62" class="design-iconfont">
  <g fill="none" fill-rule="evenodd">
    <path fill="#4D4D4D" d="M31 0A31 31 0 1 0 31 62A31 31 0 1 0 31 0Z"/>
    <path d="M20.768687,18.3379271 L31,28.569 L41.231313,18.3379271 C41.5917969,17.9774431 42.159028,17.9497136 42.5513192,18.2547385 L42.6455265,18.3379271 L43.6620729,19.3544735 C44.0525972,19.7449978 44.0525972,20.3781627 43.6620729,20.768687 L43.6620729,20.768687 L33.431,31 L43.6620729,41.231313 C44.0525972,41.6218373 44.0525972,42.2550022 43.6620729,42.6455265 L42.6455265,43.6620729 C42.2550022,44.0525972 41.6218373,44.0525972 41.231313,43.6620729 L31,33.431 L20.768687,43.6620729 C20.4082031,44.0225569 19.840972,44.0502864 19.4486808,43.7452615 L19.3544735,43.6620729 L18.3379271,42.6455265 C17.9474028,42.2550022 17.9474028,41.6218373 18.3379271,41.231313 L18.3379271,41.231313 L28.569,31 L18.3379271,20.768687 C17.9474028,20.3781627 17.9474028,19.7449978 18.3379271,19.3544735 L19.3544735,18.3379271 C19.7449978,17.9474028 20.3781627,17.9474028 20.768687,18.3379271 Z" fill="#FFF" fill-rule="nonzero"/>
  </g>
</svg>
