<?xml version="1.0" standalone="no"?><!DOCTYPE svg PUBLIC "-//W3C//DTD SVG 1.1//EN" "http://www.w3.org/Graphics/SVG/1.1/DTD/svg11.dtd"><svg t="1653463370813" class="icon" viewBox="0 0 1024 1024" version="1.1" xmlns="http://www.w3.org/2000/svg" p-id="7526" xmlns:xlink="http://www.w3.org/1999/xlink" width="200" height="200"><defs><style type="text/css">@font-face { font-family: feedback-iconfont; src: url("//at.alicdn.com/t/font_1031158_u69w8yhxdu.woff2?t=1630033759944") format("woff2"), url("//at.alicdn.com/t/font_1031158_u69w8yhxdu.woff?t=1630033759944") format("woff"), url("//at.alicdn.com/t/font_1031158_u69w8yhxdu.ttf?t=1630033759944") format("truetype"); }
</style></defs><path d="M761.6512 262.8608l-80.4864-80.4864-40.2432 40.2432 80.4864 80.4864 40.2432-40.2432z m60.416 20.0704l-100.5568 100.5568-161.0752-160.9728 100.5568-100.5568c11.0592-11.0592 29.0816-11.0592 40.2432 0l120.832 120.6272c11.0592 11.1616 11.0592 29.2864 0 40.3456z m-679.936 570.4704h739.7376c15.6672 0 28.4672 12.6976 28.4672 28.4672S897.6384 910.336 881.8688 910.336H142.1312c-15.6672 0-28.4672-12.6976-28.4672-28.4672 0-15.6672 12.6976-28.4672 28.4672-28.4672zM520.192 262.8608l160.9728 160.9728-321.8432 321.8432-159.3344 31.8464c-15.36 3.072-30.4128-6.8608-33.4848-22.3232-0.7168-3.6864-0.7168-7.4752 0-11.1616L198.3488 584.704 520.192 262.8608zM250.7776 612.7616l-20.0704 100.5568 100.5568-20.0704 269.5168-269.5168-80.4864-80.4864-269.5168 269.5168z" p-id="7527" fill="#707070"></path></svg>