<svg xmlns="http://www.w3.org/2000/svg" viewBox="0 0 56 57" class="design-iconfont">
  <g fill="none" fill-rule="evenodd">
    <g fill="#444">
      <path d="M2.96644295 0A2.96644295 3 0 1 0 2.96644295 6A2.96644295 3 0 1 0 2.96644295 0Z" transform="translate(15 18.853448)"/>
      <path d="M23.033557 0A2.96644295 3 0 1 0 23.033557 6A2.96644295 3 0 1 0 23.033557 0Z" transform="translate(15 18.853448)"/>
    </g>
    <path stroke="#444" stroke-width="4" d="M28 2A26 26 0 1 0 28 54A26 26 0 1 0 28 2Z" transform="translate(0 .853448)"/>
    <path d="M17.862069,30.6805556 L17.862069,30.6805556 L17.862069,30.6805556 C17.862069,36.1249814 22.4259829,40.5 28,40.5 C33.4841136,40.5 37.9904452,36.2649729 38.1343841,30.943147 L38.137931,30.6805556 C38.137931,30.3046951 38.4426261,30 38.8184866,30 L41.3194444,30 C41.6953049,30 42,30.3046951 42,30.6805556 L42,30.6805556 L42,30.6805556 C42,38.0153851 35.7569941,44 28,44 C20.3424546,44 14.1603259,38.1678531 14.0030684,30.9619888 L14,30.6805556 C14,30.3046951 14.3046951,30 14.6805556,30 L17.1815134,30 C17.5573739,30 17.862069,30.3046951 17.862069,30.6805556 Z" fill="#444" fill-rule="nonzero" transform="translate(0 .853448)"/>
  </g>
</svg>
