<svg xmlns="http://www.w3.org/2000/svg" viewBox="0 0 42 42" class="design-iconfont">
  <g stroke="#444" fill="none" fill-rule="evenodd">
    <g stroke-width="3.76470588">
      <path d="M21.1372549,20.7058824 C22.6966471,20.7058824 24.1084118,21.3379509 25.1303285,22.3598676 C26.1522451,23.3817842 26.7843137,24.7935489 26.7843137,26.3529412 L26.7843137,26.3529412 L26.7843137,30.1176471 L1.88235294,30.1176471 L1.88235294,26.3529412 C1.88235294,24.7935489 2.51442153,23.3817842 3.53633818,22.3598676 C4.55825482,21.3379509 5.97001953,20.7058824 7.52941176,20.7058824 L7.52941176,20.7058824 Z" transform="translate(1.047619 5)"/>
      <path d="M14.3333333 1.8823529499999996A6.71764706 6.58823529 0 1 0 14.3333333 15.05882353A6.71764706 6.58823529 0 1 0 14.3333333 1.8823529499999996Z" transform="translate(1.047619 5)"/>
    </g>
    <g stroke-width="3">
      <path d="M6.25591923,15 L8.88435371,15 C11.9561845,15 14.4463954,17.1189347 14.4463954,19.7327731 L14.4463954,23 L7.77664472,23" transform="translate(24.595238 12)"/>
      <path d="M6.14285714 1.5A4.64285714 4.5 0 1 0 6.14285714 10.5A4.64285714 4.5 0 1 0 6.14285714 1.5Z" transform="translate(24.595238 12)"/>
    </g>
  </g>
</svg>
