<svg xmlns="http://www.w3.org/2000/svg" viewBox="0 0 40 41" class="design-iconfont">
  <path d="M9.94902685,18.5757391 C9.94902685,18.8518815 9.72516923,19.0757391 9.44902685,19.0757391 C9.31552791,19.0757391 9.18757266,19.0223526 9.09366105,18.9274707 L2.13687841,11.8988094 C1.94403281,11.7039713 1.94403281,11.3901842 2.13687841,11.1953461 L9.09366105,4.16668481 C9.28791708,3.9704217 9.60449539,3.96879463 9.8007585,4.16305065 C9.89564042,4.25696226 9.94902685,4.38491751 9.94902685,4.51841645 L9.94824421,9.48541641 L22.6994692,9.48592863 C31.0812313,9.48592863 38,15.4007595 38,22.883398 C38,30.2649198 31.2669616,36.1207208 23.0384554,36.2776377 L22.6994692,36.2808674 L10.4390092,36.2808674 C9.88672441,36.2808674 9.43900916,35.8331521 9.43900916,35.2808674 L9.43900916,33.1585691 C9.43900916,32.6062844 9.88672441,32.1585691 10.4390092,32.1585691 L22.6994692,32.1585691 C28.9648068,32.1585691 33.9198585,27.922513 33.9198585,22.883398 C33.9198585,17.9282682 29.1285988,13.7496518 23.0116273,13.6117411 L22.6994692,13.6082269 L9.94824421,13.6074164 L9.94902685,18.5757391 Z" transform="translate(0 .24966)" fill="#444" fill-rule="nonzero"/>
</svg>
