<?xml version="1.0" encoding="UTF-8"?>
<svg xmlns="http://www.w3.org/2000/svg" xmlns:xlink="http://www.w3.org/1999/xlink" width="48px" height="48px" viewBox="0 0 48 48" version="1.1">
  <title>编组 4备份 2</title>
  <g id="移动端-轻量版" stroke="none" stroke-width="1" fill="none" fill-rule="evenodd">
    <g id="切图3" transform="translate(-30.000000, -30.000000)">
      <g id="编组-4备份-2" transform="translate(30.000000, 30.000000)">
        <rect id="矩形" x="0" y="0" width="48" height="48"></rect>
        <circle id="椭圆形备份" stroke="#DDDDDD" stroke-width="3" cx="24" cy="24" r="20.5"></circle>
        <g>
          <rect id="矩形" x="0" y="0" width="48" height="48"></rect>
          <circle id="椭圆形备份" fill="#147AFF" cx="24" cy="24" r="22"></circle>
          <path d="M34.5445522,15.7185047 L35.4416994,16.6377628 C35.8264979,17.032045 35.8199059,17.6632904 35.4269574,18.0494508 L21.3956246,31.8383949 C21.0084053,32.218925 20.3882991,32.2209907 19.9985532,31.8430488 L12.712311,24.7774799 C12.3180161,24.3951267 12.3058922,23.766328 12.6851552,23.3690598 L13.5710835,22.4410728 C13.9524503,22.0416009 14.5854451,22.0269238 14.984917,22.4082906 C14.9874164,22.4106767 14.9899033,22.4130757 14.9923778,22.4154876 L20.6748224,27.9541121 L20.6748224,27.9541121 L33.1276112,15.704066 C33.5213273,15.3167599 34.154471,15.3219563 34.5417771,15.7156725 C34.542704,15.7166147 34.5436291,15.7175588 34.5445522,15.7185047 Z" id="路径" fill="#FFFFFF" fill-rule="nonzero" transform="translate(24.068867, 23.761316) rotate(-360.000000) translate(-24.068867, -23.761316) "></path>
        </g>
      </g>
      <g id="编组" transform="translate(32.000000, 32.000000)">
        <circle id="椭圆形" fill="#147AFF" cx="22" cy="22" r="22"></circle>
        <path d="M31.2769743,13.9156613 L33.0348859,15.7168981 C33.4205104,16.1121967 33.4128418,16.7452505 33.017755,17.1310919 L19.0301592,30.7854872 C18.6447028,31.1617616 18.0304659,31.165108 17.6409326,30.7930559 L10.9898137,24.440421 C10.5906573,24.0588555 10.5760568,23.4259859 10.9571924,23.026419 L12.6957475,21.2053274 C13.077113,20.8058543 13.7101079,20.7911772 14.1095798,21.172544 C14.1095802,21.1725445 14.1095806,21.1725449 14.1095798,21.1725465 L18.3054601,25.1782732 L18.3054601,25.1782732 L29.8628775,13.8984598 C30.2581077,13.5126988 30.8912259,13.5203948 31.2769746,13.9156371 C31.2769786,13.9156411 31.2769826,13.9156452 31.2769743,13.9156613 Z" id="路径" fill="#FFFFFF" fill-rule="nonzero"></path>
      </g>
    </g>
  </g>
</svg>
