<svg width="43" height="42" viewBox="0 0 43 42" fill="none" xmlns="http://www.w3.org/2000/svg">
    <circle cx="22" cy="21" r="21" fill="#2B2C30"/>
    <path d="M0 21.4878V21.8598H5.316V27.6798H5.688V21.8598H6.324V27.6798H6.696V21.8598H12V21.4878H0Z" fill="white" fill-opacity="0.55"/>
    <path d="M12.132 26.3478C12.036 26.3478 12 26.3958 12 26.5038C12 26.5278 12.048 26.5998 12.144 26.7198C12.636 27.3558 13.02 27.6798 13.308 27.6798C13.5 27.6798 13.776 27.4998 14.136 27.1518C14.496 26.7918 14.712 26.6238 14.784 26.6238C14.856 26.6238 15.096 26.7918 15.504 27.1518C15.888 27.4998 16.176 27.6798 16.344 27.6798C16.584 27.6798 16.908 27.4998 17.304 27.1518C17.688 26.7918 17.904 26.6238 17.964 26.6238C18.06 26.6238 18.324 26.7918 18.756 27.1518C19.176 27.4998 19.464 27.6798 19.608 27.6798C19.8 27.6798 20.076 27.4998 20.448 27.1518C20.808 26.7918 21.012 26.6238 21.084 26.6238C21.156 26.6238 21.396 26.7918 21.804 27.1518C22.2 27.4998 22.488 27.6798 22.656 27.6798C23.064 27.6798 23.484 27.3318 23.904 26.6598L24 26.5038C24 26.3958 23.952 26.3478 23.856 26.3478C23.784 26.3478 23.736 26.3838 23.688 26.4678C23.232 27.0798 22.908 27.3918 22.692 27.3918C22.644 27.3918 22.428 27.2118 22.032 26.8638C21.624 26.5158 21.312 26.3478 21.084 26.3478C20.916 26.3478 20.652 26.5158 20.28 26.8638C19.908 27.2118 19.692 27.3918 19.632 27.3918C19.608 27.3918 19.38 27.2118 18.948 26.8638C18.516 26.5158 18.18 26.3478 17.964 26.3478C17.772 26.3478 17.484 26.5158 17.112 26.8638C16.74 27.2118 16.5 27.3918 16.392 27.3918C16.308 27.3918 16.068 27.2118 15.672 26.8638C15.264 26.5158 14.976 26.3478 14.784 26.3478C14.616 26.3478 14.352 26.5158 13.992 26.8638C13.632 27.2118 13.404 27.3918 13.32 27.3918C13.152 27.3918 12.816 27.1038 12.336 26.5398C12.216 26.4078 12.156 26.3478 12.132 26.3478Z" fill="white" fill-opacity="0.55"/>
    <path d="M24 21.4878V21.8598H29.316V27.6798H29.688V21.8598H30.324V27.6798H30.696V21.8598H36V21.4878H24Z" fill="white" fill-opacity="0.55"/>
</svg>
