<?xml version="1.0" standalone="no"?><!DOCTYPE svg PUBLIC "-//W3C//DTD SVG 1.1//EN" "http://www.w3.org/Graphics/SVG/1.1/DTD/svg11.dtd"><svg t="1634112963271" class="icon" viewBox="0 0 1024 1024" version="1.1" xmlns="http://www.w3.org/2000/svg" p-id="4100" xmlns:xlink="http://www.w3.org/1999/xlink" width="48" height="48"><defs><style type="text/css"></style></defs><path d="M651.424 217.066667a32 32 0 0 1 62.485333 13.866666L682.261333 373.333333H800a32 32 0 0 1 31.946667 30.122667L832 405.333333a32 32 0 0 1-32 32H668.032l-33.184 149.333334H800a32 32 0 0 1 31.946667 30.122666L832 618.666667a32 32 0 0 1-32 32H620.629333l-34.72 156.266666a32 32 0 0 1-36.341333 24.661334l-1.845333-0.352a32 32 0 0 1-24.298667-38.186667L555.061333 650.666667H407.296l-34.72 156.288a32 32 0 0 1-36.341333 24.64l-1.845334-0.341334a32 32 0 0 1-24.298666-38.186666L341.728 650.666667 224 650.666667a32 32 0 0 1-31.946667-30.122667L192 618.666667a32 32 0 0 1 32-32h131.957333l33.184-149.333334H224a32 32 0 0 1-31.946667-30.122666L192 405.333333a32 32 0 0 1 32-32h179.36l34.730667-156.266666a32 32 0 0 1 36.341333-24.661334l1.845333 0.352a32 32 0 0 1 24.298667 38.186667l-31.648 142.378667h147.765333zM602.474667 437.333333H454.698667l-33.184 149.333334h147.776l33.184-149.333334z" p-id="4101"></path></svg>