<svg width="26" height="21" viewBox="0 0 26 21" fill="none" xmlns="http://www.w3.org/2000/svg">
<path d="M17.0732 0C17.6413 0.000110616 18.161 0.321013 18.415 0.829102L18.9473 1.89453C19.2861 2.57204 19.9788 3 20.7363 3H24.5C25.3284 3 26 3.67157 26 4.5V19.5C26 20.3284 25.3284 21 24.5 21H1.5C0.671573 21 0 20.3284 0 19.5V4.5C0 3.67157 0.671573 3 1.5 3H5.26367C6.02108 3 6.71388 2.57192 7.05273 1.89453L7.58496 0.829102C7.83901 0.321013 8.35871 0.000110257 8.92676 0H17.0732ZM13.0039 5.50098C9.6902 5.50098 7.00391 8.18727 7.00391 11.501C7.00401 14.8146 9.69026 17.501 13.0039 17.501C16.3175 17.5009 19.0038 14.8146 19.0039 11.501C19.0039 8.18731 16.3176 5.50104 13.0039 5.50098ZM13.0029 7.5C15.2118 7.50026 17.0029 9.29102 17.0029 11.5C17.0027 13.7088 15.2117 15.4997 13.0029 15.5C10.794 15.5 9.00319 13.7089 9.00293 11.5C9.00293 9.29086 10.7938 7.5 13.0029 7.5Z" fill="black" fill-opacity="0.55"/>
</svg>
