<svg width="21" height="22" viewBox="0 0 21 22" fill="none" xmlns="http://www.w3.org/2000/svg">
<path d="M11.888 18.8771C12.026 18.8771 12.1379 18.9892 12.1381 19.1272V20.7648C12.1379 20.9027 12.026 21.0149 11.888 21.0149H10.3872C10.2492 21.0149 10.1372 20.9027 10.1371 20.7648V19.1272C10.1372 18.9892 10.2492 18.8771 10.3872 18.8771H11.888ZM16.3746 18.8771C16.5127 18.8771 16.6246 18.9892 16.6248 19.1272V20.7648C16.6246 20.9027 16.5127 21.0149 16.3746 21.0149H14.7381C14.6001 21.0148 14.4881 20.9027 14.4879 20.7648V19.1272C14.4881 18.9892 14.6001 18.8771 14.7381 18.8771H16.3746ZM20.7255 18.8781C20.8636 18.8781 20.9756 18.99 20.9756 19.1282V20.7648C20.9755 20.9028 20.8636 21.0149 20.7255 21.0149H19.0889C18.9508 21.0149 18.8389 20.9028 18.8388 20.7648V19.1282C18.8388 18.99 18.9508 18.8781 19.0889 18.8781H20.7255ZM17.4504 7.98674L12.312 13.1486L10.4009 15.0929C9.76398 15.7173 9.19022 16.2898 8.68027 16.8096C8.17086 17.33 7.74745 17.7575 7.41302 18.0935C7.07866 18.4294 6.88005 18.6223 6.81603 18.6699C6.65711 18.8141 6.47383 18.9666 6.26692 19.1262C6.05998 19.2865 5.84405 19.4143 5.62108 19.5102C5.39811 19.6222 5.07147 19.7584 4.64109 19.9186C4.21124 20.0783 3.76062 20.2345 3.29079 20.3866C2.82111 20.5387 2.37546 20.6714 1.95319 20.7833C1.53127 20.8948 1.21634 20.9671 1.00935 20.9993C0.578928 21.0469 0.292081 20.9831 0.148558 20.8068C0.00507626 20.631 -0.0340548 20.3344 0.0293565 19.9186C0.061371 19.6946 0.137542 19.3699 0.257012 18.9455C0.3815 18.5047 0.508063 18.0646 0.638066 17.6255C0.773559 17.1694 0.904772 16.7493 1.0328 16.3651C1.16025 15.9809 1.26405 15.7168 1.34351 15.5727C1.43891 15.3488 1.54654 15.1453 1.66594 14.961C1.7855 14.7772 1.95689 14.5724 2.17987 14.3484C2.27539 14.2519 2.49881 14.0244 2.84916 13.6645C3.19955 13.3044 3.63803 12.8604 4.16331 12.3327L5.90834 10.5799L7.8439 8.63551L12.9813 3.47369L17.4504 7.98674ZM17.4992 0.00121235C17.7302 0.0092608 17.9536 0.0453397 18.1685 0.109666C18.3833 0.17342 18.5709 0.245245 18.7303 0.325597C19.0647 0.50193 19.4349 0.810068 19.8412 1.2499C20.2476 1.69011 20.5622 2.14961 20.7851 2.62951C20.8496 2.77368 20.9015 2.9428 20.9404 3.13465C20.9804 3.32693 21 3.52676 21 3.73457C21 3.94248 20.9603 4.15048 20.8808 4.35891C20.8008 4.56682 20.6728 4.76699 20.4978 4.95883C20.3069 5.15061 20.1363 5.31943 19.9849 5.46299C19.8334 5.60716 19.7016 5.73497 19.5901 5.84698C19.4627 5.97502 19.343 6.08719 19.2316 6.18309L14.7625 1.69348C14.9534 1.5177 15.1815 1.30552 15.4445 1.05742C15.7072 0.80951 15.9257 0.613841 16.1011 0.469225C16.324 0.293478 16.5549 0.169316 16.7938 0.0969645C17.0328 0.0251713 17.2683 -0.00683279 17.4992 0.00121235Z" fill="black" fill-opacity="0.55"/>
</svg>
