<svg width="26" height="22" viewBox="0 0 26 22" fill="none" xmlns="http://www.w3.org/2000/svg">
<path d="M8.57324 0C9.14129 0.000110256 9.66099 0.321013 9.91504 0.829102L10.4473 1.89453C10.7861 2.57204 11.4788 3 12.2363 3H24.5C25.3284 3 26 3.67157 26 4.5V20.5C26 21.3284 25.3284 22 24.5 22H1.5C0.671573 22 0 21.3284 0 20.5V1.5C0 0.671573 0.671573 0 1.5 0H8.57324ZM3.99512 6.00391C3.44297 6.00391 2.99535 6.45182 2.99512 7.00391C2.99512 7.55619 3.44283 8.00391 3.99512 8.00391H21.9951C22.5473 8.00384 22.9951 7.55615 22.9951 7.00391C22.9949 6.45186 22.5472 6.00397 21.9951 6.00391H3.99512Z" fill="black" fill-opacity="0.55"/>
</svg>
