<?xml version="1.0" encoding="UTF-8"?>
<svg xmlns="http://www.w3.org/2000/svg" xmlns:xlink="http://www.w3.org/1999/xlink" width="56px" height="57px" viewBox="0 0 56 57" version="1.1">
  <title>编组 6</title>
  <defs>
    <filter color-interpolation-filters="auto" id="filter-1">
      <feColorMatrix in="SourceGraphic" type="matrix" values="0 0 0 0 0.266667 0 0 0 0 0.266667 0 0 0 0 0.266667 0 0 0 1.000000 0"></feColorMatrix>
    </filter>
  </defs>
  <g id="当前版" stroke="none" stroke-width="1" fill="none" fill-rule="evenodd">
    <g id="更多" transform="translate(-586.000000, -1046.000000)">
      <g id="编组-11备份-2" transform="translate(0.000000, 1025.000000)">
        <g id="编组-6" transform="translate(33.000000, 16.000000)" filter="url(#filter-1)">
          <g transform="translate(553.000000, 5.853448)">
            <rect id="矩形" x="0" y="0" width="56" height="56"></rect>
            <g id="编组-5" transform="translate(15.000000, 18.000000)" fill="#BBBBBB">
              <ellipse id="椭圆形" cx="2.96644295" cy="3" rx="2.96644295" ry="3"></ellipse>
              <ellipse id="椭圆形" cx="23.033557" cy="3" rx="2.96644295" ry="3"></ellipse>
            </g>
            <circle id="椭圆形" stroke="#BBBBBB" stroke-width="4" cx="28" cy="28" r="26"></circle>
            <path d="M17.862069,30.6805556 L17.862069,30.6805556 L17.862069,30.6805556 C17.862069,36.1249814 22.4259829,40.5 28,40.5 C33.4841136,40.5 37.9904452,36.2649729 38.1343841,30.943147 L38.137931,30.6805556 C38.137931,30.3046951 38.4426261,30 38.8184866,30 L41.3194444,30 C41.6953049,30 42,30.3046951 42,30.6805556 L42,30.6805556 L42,30.6805556 C42,38.0153851 35.7569941,44 28,44 C20.3424546,44 14.1603259,38.1678531 14.0030684,30.9619888 L14,30.6805556 C14,30.3046951 14.3046951,30 14.6805556,30 L17.1815134,30 C17.5573739,30 17.862069,30.3046951 17.862069,30.6805556 Z" id="路径" fill="#979797" fill-rule="nonzero"></path>
          </g>
        </g>
      </g>
    </g>
  </g>
</svg>
