<?xml version="1.0" encoding="UTF-8"?>
<svg xmlns="http://www.w3.org/2000/svg" xmlns:xlink="http://www.w3.org/1999/xlink" width="128px" height="128px" viewBox="0 0 128 128" version="1.1">
  <title>编组 5</title>
  <g id="当前版" stroke="none" stroke-width="1" fill="none" fill-rule="evenodd">
    <g id="更多" transform="translate(-399.000000, -1147.000000)">
      <g id="编组-7" transform="translate(47.000000, 1147.000000)">
        <g id="编组-5" transform="translate(352.000000, 0.000000)">
          <rect id="矩形备份-45" fill="#FFFFFF" x="0" y="0" width="128" height="128" rx="20"></rect>
          <path d="M55.145898,42 C56.2822142,42 57.3210036,42.6420071 57.8291796,43.6583592 L58.8944272,45.7888544 C59.5719952,47.1439905 60.9570477,48 62.472136,48 L87,48 C88.6568542,48 90,49.3431458 90,51 L90,83 C90,84.6568542 88.6568542,86 87,86 L41,86 C39.3431458,86 38,84.6568542 38,83 L38,45 C38,43.3431458 39.3431458,42 41,42 L55.145898,42 Z M82,54 L46,54 C44.8954305,54 44,54.8954305 44,56 C44,57.1045695 44.8954305,58 46,58 L46,58 L82,58 C83.1045695,58 84,57.1045695 84,56 C84,54.8954305 83.1045695,54 82,54 L82,54 Z" id="形状结合" fill="#5C6168"></path>
        </g>
      </g>
    </g>
  </g>
</svg>
