<?xml version="1.0" encoding="UTF-8"?>
<svg xmlns="http://www.w3.org/2000/svg" xmlns:xlink="http://www.w3.org/1999/xlink" width="56px" height="57px" viewBox="0 0 56 57" version="1.1">
  <title>椭圆形备份 25</title>
  <g id="移动端-轻量版" stroke="none" stroke-width="1" fill="none" fill-rule="evenodd">
    <g id="切图1" transform="translate(-283.000000, -507.000000)">
      <g id="编组-9备份" transform="translate(283.000000, 507.000000)">
        <circle id="椭圆形备份-25" stroke="#444444" stroke-width="4" cx="28" cy="29" r="26"></circle>
        <g id="编组-15" transform="translate(13.500000, 18.000000)" fill="#444444">
          <path d="M21.5,18 C22.0522847,18 22.5,18.4477153 22.5,19 L22.5,22 C22.5,22.5522847 22.0522847,23 21.5,23 L7.5,23 C6.94771525,23 6.5,22.5522847 6.5,22 L6.5,19 C6.5,18.4477153 6.94771525,18 7.5,18 L21.5,18 Z M4,8 C4.55228475,8 5,8.44771525 5,9 L5,12 C5,12.5522847 4.55228475,13 4,13 L1,13 C0.44771525,13 6.76353751e-17,12.5522847 0,12 L0,9 C-6.76353751e-17,8.44771525 0.44771525,8 1,8 L4,8 Z M12,8 C12.5522847,8 13,8.44771525 13,9 L13,12 C13,12.5522847 12.5522847,13 12,13 L9,13 C8.44771525,13 8,12.5522847 8,12 L8,9 C8,8.44771525 8.44771525,8 9,8 L12,8 Z M20,8 C20.5522847,8 21,8.44771525 21,9 L21,12 C21,12.5522847 20.5522847,13 20,13 L17,13 C16.4477153,13 16,12.5522847 16,12 L16,9 C16,8.44771525 16.4477153,8 17,8 L20,8 Z M28,8 C28.5522847,8 29,8.44771525 29,9 L29,12 C29,12.5522847 28.5522847,13 28,13 L25,13 C24.4477153,13 24,12.5522847 24,12 L24,9 C24,8.44771525 24.4477153,8 25,8 L28,8 Z M4,0 C4.55228475,-1.01453063e-16 5,0.44771525 5,1 L5,4 C5,4.55228475 4.55228475,5 4,5 L1,5 C0.44771525,5 6.76353751e-17,4.55228475 0,4 L0,1 C-6.76353751e-17,0.44771525 0.44771525,1.01453063e-16 1,0 L4,0 Z M12,0 C12.5522847,-1.01453063e-16 13,0.44771525 13,1 L13,4 C13,4.55228475 12.5522847,5 12,5 L9,5 C8.44771525,5 8,4.55228475 8,4 L8,1 C8,0.44771525 8.44771525,1.01453063e-16 9,0 L12,0 Z M20,0 C20.5522847,-1.01453063e-16 21,0.44771525 21,1 L21,4 C21,4.55228475 20.5522847,5 20,5 L17,5 C16.4477153,5 16,4.55228475 16,4 L16,1 C16,0.44771525 16.4477153,1.01453063e-16 17,0 L20,0 Z M28,0 C28.5522847,-1.01453063e-16 29,0.44771525 29,1 L29,4 C29,4.55228475 28.5522847,5 28,5 L25,5 C24.4477153,5 24,4.55228475 24,4 L24,1 C24,0.44771525 24.4477153,1.01453063e-16 25,0 L28,0 Z" id="形状结合"></path>
        </g>
      </g>
    </g>
  </g>
</svg>
