<svg width="19" height="19" viewBox="0 0 19 19" fill="none" xmlns="http://www.w3.org/2000/svg">
<path d="M16.0986 17.7695C16.11 17.8687 16.1342 17.9615 16.165 18.0459C16.1459 18.055 16.1269 18.064 16.1074 18.0723C16.0897 17.9668 16.0873 17.8654 16.0986 17.7695ZM3.40527 0.911133C3.59293 0.723383 3.8826 0.699934 4.0957 0.84082L4.18164 0.911133L7.25098 3.98145C7.43853 4.16934 7.46206 4.4595 7.32129 4.67285L7.25098 4.75879L5.89062 6.11914L5.51758 6.49316L5.74414 6.97168C6.29045 8.12208 7.0273 9.1816 7.93164 10.1016L8.3291 10.4863C9.53365 11.5992 10.951 12.4323 12.4795 12.9443L12.9199 13.0918L13.248 12.7627L14.4922 11.5186C14.6797 11.3314 14.9688 11.3079 15.1816 11.4482L15.2686 11.5186L18.0889 14.3418C18.2766 14.5298 18.3003 14.8198 18.1592 15.0332L18.0889 15.1191L18.0811 15.127L16.0332 17.2363C15.9577 17.3119 15.8661 17.369 15.7656 17.4023L15.6621 17.4277L15.5332 17.4482C12.0005 17.4034 8.92042 16.1174 6.23242 13.8174L5.69629 13.3408C2.83029 10.693 1.06331 7.67785 0.750977 3.87793C0.756925 3.59205 0.865932 3.31941 1.05664 3.10938L1.14551 3.02051L1.47266 2.72949L1.48828 2.71582L3.38867 0.926758L3.39746 0.918945L3.40527 0.911133ZM16.6484 17.0215C16.6497 17.0217 16.6507 17.0237 16.6523 17.0244C16.6401 17.022 16.6314 17.02 16.627 17.0195C16.6342 17.0202 16.642 17.0208 16.6484 17.0215Z" stroke="white" stroke-opacity="0.55" stroke-width="1.5"/>
</svg>
