<svg width="100" height="100" viewBox="0 0 100 100" fill="none" xmlns="http://www.w3.org/2000/svg">
  <path fill-rule="evenodd" clip-rule="evenodd" d="M50 15C30.67 15 15 30.67 15 50C15 69.33 30.67 85 50 85C69.33 85 85 69.33 85 50C85 30.67 69.33 15 50 15ZM50 20C32.33 20 20 32.33 20 50C20 67.67 32.33 80 50 80C67.67 80 80 67.67 80 50C80 32.33 67.67 20 50 20Z" fill="currentColor"/>
  <path d="M35 45C37.21 45 39 43.21 39 41C39 38.79 37.21 37 35 37C32.79 37 31 38.79 31 41C31 43.21 32.79 45 35 45Z" fill="currentColor"/>
  <path d="M65 45C67.21 45 69 43.21 69 41C69 38.79 67.21 37 65 37C62.79 37 61 38.79 61 41C61 43.21 62.79 45 65 45Z" fill="currentColor"/>
  <path d="M35 65H65C66.1 65 67 64.1 67 63C67 56.37 61.63 51 55 51H45C38.37 51 33 56.37 33 63C33 64.1 33.9 65 35 65ZM45 56H55C58.31 56 61.11 58.36 61.83 61.5H38.17C38.89 58.36 41.69 56 45 56Z" fill="currentColor"/>
</svg> 