<svg width="20" height="20" viewBox="0 0 20 20" fill="none" xmlns="http://www.w3.org/2000/svg">
<mask id="path-1-inside-1_3672_12900" fill="white">
<path fill-rule="evenodd" clip-rule="evenodd" d="M17.6913 16.3913C19.133 14.6584 20 12.4304 20 10C20 4.47715 15.5228 0 10 0C4.47715 0 0 4.47715 0 10C0 15.5228 4.47715 20 10 20C12.1055 20 14.0591 19.3493 15.6705 18.238C15.6878 18.2471 15.7061 18.2551 15.7253 18.2619L17.9402 19.0463C18.2574 19.1587 18.5631 18.8529 18.4507 18.5357L17.6913 16.3913Z"/>
</mask>
<path d="M17.6913 16.3913L16.5382 15.432L15.9925 16.0879L16.2774 16.8921L17.6913 16.3913ZM15.6705 18.238L16.3707 16.9114L15.567 16.4872L14.8189 17.0031L15.6705 18.238ZM15.7253 18.2619L15.2245 19.6759H15.2245L15.7253 18.2619ZM17.9402 19.0463L18.4409 17.6324L17.9402 19.0463ZM18.4507 18.5357L17.0368 19.0365L18.4507 18.5357ZM18.5 10C18.5 12.0672 17.764 13.9585 16.5382 15.432L18.8444 17.3506C20.5019 15.3582 21.5 12.7937 21.5 10H18.5ZM10 1.5C14.6944 1.5 18.5 5.30558 18.5 10H21.5C21.5 3.64873 16.3513 -1.5 10 -1.5V1.5ZM1.5 10C1.5 5.30558 5.30558 1.5 10 1.5V-1.5C3.64873 -1.5 -1.5 3.64873 -1.5 10H1.5ZM10 18.5C5.30558 18.5 1.5 14.6944 1.5 10H-1.5C-1.5 16.3513 3.64873 21.5 10 21.5V18.5ZM14.8189 17.0031C13.4499 17.9473 11.7917 18.5 10 18.5V21.5C12.4193 21.5 14.6683 20.7512 16.5221 19.4728L14.8189 17.0031ZM16.226 16.848C16.2752 16.8654 16.3236 16.8865 16.3707 16.9114L14.9703 19.5645C15.052 19.6076 15.1369 19.6448 15.2245 19.6759L16.226 16.848ZM18.4409 17.6324L16.226 16.848L15.2245 19.6759L17.4394 20.4603L18.4409 17.6324ZM17.0368 19.0365C16.7278 18.1641 17.5686 17.3234 18.4409 17.6324L17.4394 20.4603C18.9462 20.9939 20.3983 19.5417 19.8647 18.035L17.0368 19.0365ZM16.2774 16.8921L17.0368 19.0365L19.8647 18.035L19.1052 15.8906L16.2774 16.8921Z" fill="#4086FF" mask="url(#path-1-inside-1_3672_12900)"/>
</svg>
