<svg width="20" height="20" viewBox="0 0 20 20" fill="none" xmlns="http://www.w3.org/2000/svg">
<mask id="path-1-inside-1_3672_12957" fill="white">
<path fill-rule="evenodd" clip-rule="evenodd" d="M6.58348 1.25759C6.58348 0.563044 7.14652 0 7.84108 0H12.046C12.7406 0 13.3036 0.563045 13.3036 1.2576V2.97067C13.6873 3.15147 14.0538 3.36227 14.4001 3.60001L15.9122 2.73393C16.5119 2.39042 17.2765 2.59528 17.6241 3.19264L19.7191 6.79224C20.0701 7.39547 19.8628 8.1692 19.2572 8.51608L17.7588 9.37425C17.7754 9.58068 17.7838 9.78937 17.7838 10C17.7838 10.2112 17.7754 10.4204 17.7587 10.6273L19.2541 11.4839C19.8598 11.8307 20.0671 12.6045 19.716 13.2077L17.6211 16.8073C17.2735 17.4047 16.5089 17.6095 15.9092 17.266L14.3988 16.4009C14.0547 16.6371 13.6906 16.8466 13.3096 17.0266V18.7424C13.3096 19.4369 12.7465 20 12.052 20H7.847C7.15245 20 6.5894 19.4369 6.5894 18.7424V17.0321C6.20462 16.8511 5.83705 16.64 5.4898 16.4018L3.98084 17.266C3.38109 17.6095 2.61653 17.4047 2.26888 16.8073L0.173978 13.2077C-0.177091 12.6045 0.0302224 11.8308 0.635868 11.4839L2.12875 10.6288C2.11203 10.4214 2.1035 10.2117 2.1035 10C2.1035 9.7889 2.11198 9.57974 2.12862 9.37287L0.632777 8.51611C0.0271312 8.16923 -0.180183 7.3955 0.170887 6.79227L2.26579 3.19267C2.61344 2.59531 3.378 2.39045 3.97775 2.73396L5.48844 3.59922C5.8343 3.36185 6.20034 3.15136 6.58348 2.97079V1.25759Z"/>
</mask>
<path d="M13.3036 2.97067H11.7411V3.96165L12.6376 4.38409L13.3036 2.97067ZM14.4001 3.60001L13.5157 4.88813L14.3249 5.44371L15.1766 4.95586L14.4001 3.60001ZM15.9122 2.73393L16.6888 4.08979V4.08979L15.9122 2.73393ZM17.6241 3.19264L16.2737 3.97857V3.97857L17.6241 3.19264ZM19.7191 6.79224L21.0695 6.0063L19.7191 6.79224ZM19.2572 8.51608L18.4806 7.16023V7.16023L19.2572 8.51608ZM17.7588 9.37425L16.9823 8.0184L16.122 8.5111L16.2013 9.49925L17.7588 9.37425ZM17.7587 10.6273L16.2012 10.502L16.1217 11.4904L16.9821 11.9832L17.7587 10.6273ZM19.2541 11.4839L18.4776 12.8397L18.4776 12.8397L19.2541 11.4839ZM19.716 13.2077L21.0665 13.9936V13.9936L19.716 13.2077ZM17.6211 16.8073L16.2707 16.0214V16.0214L17.6211 16.8073ZM15.9092 17.266L15.1326 18.6219H15.1326L15.9092 17.266ZM14.3988 16.4009L15.1754 15.0451L14.3238 14.5573L13.5147 15.1126L14.3988 16.4009ZM13.3096 17.0266L12.6423 15.6137L11.7471 16.0365V17.0266H13.3096ZM6.5894 17.0321H8.1519V16.0402L7.25434 15.6181L6.5894 17.0321ZM5.4898 16.4018L6.37369 15.1133L5.56462 14.5583L4.71323 15.0459L5.4898 16.4018ZM3.98084 17.266L4.75741 18.6219H4.75741L3.98084 17.266ZM2.26888 16.8073L0.918435 17.5933H0.918435L2.26888 16.8073ZM0.173978 13.2077L-1.17647 13.9937H-1.17647L0.173978 13.2077ZM0.635868 11.4839L-0.140704 10.128L-0.140705 10.128L0.635868 11.4839ZM2.12875 10.6288L2.90533 11.9847L3.76592 11.4918L3.6862 10.5032L2.12875 10.6288ZM2.12862 9.37287L3.68609 9.49813L3.76558 8.5098L2.90519 8.01701L2.12862 9.37287ZM0.632777 8.51611L1.40935 7.16026L1.40935 7.16026L0.632777 8.51611ZM0.170887 6.79227L-1.17956 6.00633V6.00633L0.170887 6.79227ZM2.26579 3.19267L3.61624 3.9786L2.26579 3.19267ZM3.97775 2.73396L3.20117 4.08982L3.97775 2.73396ZM5.48844 3.59922L4.71186 4.95507L5.56345 5.44282L6.37259 4.8875L5.48844 3.59922ZM6.58348 2.97079L7.2496 4.38418L8.14598 3.96173V2.97079H6.58348ZM8.14598 1.25759C8.14598 1.42599 8.00947 1.5625 7.84108 1.5625V-1.5625C6.28358 -1.5625 5.02098 -0.2999 5.02098 1.25759H8.14598ZM7.84108 1.5625H12.046V-1.5625H7.84108V1.5625ZM12.046 1.5625C11.8776 1.5625 11.7411 1.42599 11.7411 1.2576H14.8661C14.8661 -0.299902 13.6035 -1.5625 12.046 -1.5625V1.5625ZM11.7411 1.2576V2.97067H14.8661V1.2576H11.7411ZM12.6376 4.38409C12.9447 4.52882 13.2382 4.69764 13.5157 4.88813L15.2845 2.31189C14.8694 2.0269 14.4299 1.77412 13.9697 1.55725L12.6376 4.38409ZM15.1766 4.95586L16.6888 4.08979L15.1356 1.37808L13.6235 2.24416L15.1766 4.95586ZM16.6888 4.08979C16.5434 4.17307 16.358 4.1234 16.2737 3.97857L18.9746 2.4067C18.195 1.06716 16.4805 0.607779 15.1356 1.37808L16.6888 4.08979ZM16.2737 3.97857L18.3686 7.57817L21.0695 6.0063L18.9746 2.4067L16.2737 3.97857ZM18.3686 7.57817C18.2835 7.43192 18.3338 7.24433 18.4806 7.16023L20.0337 9.87194C21.3919 9.09406 21.8568 7.35901 21.0695 6.0063L18.3686 7.57817ZM18.4806 7.16023L16.9823 8.0184L18.5354 10.7301L20.0337 9.87194L18.4806 7.16023ZM16.2013 9.49925C16.2146 9.66413 16.2213 9.83113 16.2213 10H19.3463C19.3463 9.74762 19.3362 9.49723 19.3163 9.24926L16.2013 9.49925ZM16.2213 10C16.2213 10.1693 16.2145 10.3367 16.2012 10.502L19.3162 10.7526C19.3362 10.5041 19.3463 10.2531 19.3463 10H16.2213ZM16.9821 11.9832L18.4776 12.8397L20.0307 10.128L18.5353 9.27148L16.9821 11.9832ZM18.4776 12.8397C18.3307 12.7556 18.2805 12.568 18.3656 12.4218L21.0665 13.9936C21.8537 12.6409 21.3889 10.9059 20.0307 10.128L18.4776 12.8397ZM18.3656 12.4218L16.2707 16.0214L18.9716 17.5932L21.0665 13.9936L18.3656 12.4218ZM16.2707 16.0214C16.355 15.8765 16.5403 15.8269 16.6857 15.9102L15.1326 18.6219C16.4775 19.3922 18.192 18.9328 18.9716 17.5932L16.2707 16.0214ZM16.6858 15.9102L15.1754 15.0451L13.6222 17.7568L15.1326 18.6219L16.6858 15.9102ZM13.5147 15.1126C13.2389 15.3018 12.9473 15.4697 12.6423 15.6137L13.9768 18.4394C14.4338 18.2236 14.8704 17.9723 15.2829 17.6892L13.5147 15.1126ZM11.7471 17.0266V18.7424H14.872V17.0266H11.7471ZM11.7471 18.7424C11.7471 18.574 11.8836 18.4375 12.052 18.4375V21.5625C13.6095 21.5625 14.872 20.2999 14.872 18.7424H11.7471ZM12.052 18.4375H7.847V21.5625H12.052V18.4375ZM7.847 18.4375C8.01539 18.4375 8.1519 18.574 8.1519 18.7424H5.02691C5.02691 20.2999 6.28951 21.5625 7.847 21.5625V18.4375ZM8.1519 18.7424V17.0321H5.02691V18.7424H8.1519ZM7.25434 15.6181C6.94631 15.4732 6.65192 15.3042 6.37369 15.1133L4.60592 17.6902C5.02217 17.9758 5.46292 18.229 5.92447 18.446L7.25434 15.6181ZM4.71323 15.0459L3.20427 15.9102L4.75741 18.6219L6.26637 17.7576L4.71323 15.0459ZM3.20427 15.9102C3.34967 15.8269 3.53504 15.8766 3.61933 16.0214L0.918435 17.5933C1.69802 18.9328 3.41251 19.3922 4.75741 18.6219L3.20427 15.9102ZM3.61933 16.0214L1.52443 12.4218L-1.17647 13.9937L0.918435 17.5933L3.61933 16.0214ZM1.52443 12.4218C1.60954 12.568 1.55928 12.7556 1.41244 12.8397L-0.140705 10.128C-1.49883 10.9059 -1.96372 12.641 -1.17647 13.9937L1.52443 12.4218ZM1.41244 12.8397L2.90533 11.9847L1.35218 9.27297L-0.140704 10.128L1.41244 12.8397ZM3.6862 10.5032C3.67284 10.3375 3.666 10.1697 3.666 10H0.541004C0.541004 10.2537 0.551219 10.5053 0.571311 10.7544L3.6862 10.5032ZM3.666 10C3.666 9.83075 3.6728 9.66339 3.68609 9.49813L0.571152 9.2476C0.551165 9.4961 0.541004 9.74705 0.541004 10H3.666ZM2.90519 8.01701L1.40935 7.16026L-0.143796 9.87196L1.35205 10.7287L2.90519 8.01701ZM1.40935 7.16026C1.55619 7.24436 1.60645 7.43195 1.52133 7.5782L-1.17956 6.00633C-1.96682 7.35905 -1.50192 9.09409 -0.143795 9.87197L1.40935 7.16026ZM1.52133 7.5782L3.61624 3.9786L0.915343 2.40673L-1.17956 6.00633L1.52133 7.5782ZM3.61624 3.9786C3.53195 4.12343 3.34658 4.1731 3.20117 4.08982L4.75432 1.37811C3.40942 0.607808 1.69493 1.06719 0.915343 2.40673L3.61624 3.9786ZM3.20117 4.08982L4.71186 4.95507L6.26501 2.24336L4.75432 1.37811L3.20117 4.08982ZM6.37259 4.8875C6.64972 4.6973 6.94289 4.52873 7.2496 4.38418L5.91736 1.55739C5.45779 1.77398 5.01888 2.02639 4.60428 2.31094L6.37259 4.8875ZM8.14598 2.97079V1.25759H5.02098V2.97079H8.14598Z" fill="white" fill-opacity="0.55" mask="url(#path-1-inside-1_3672_12957)"/>
</svg>
