<?xml version="1.0" encoding="UTF-8"?>
<svg width="16px" height="16px" viewBox="0 0 16 16" version="1.1" xmlns="http://www.w3.org/2000/svg" xmlns:xlink="http://www.w3.org/1999/xlink">
    <!-- Generator: Sketch 61.2 (89653) - https://sketch.com -->
    <title>免责声明</title>
    <desc>Created with Sketch.</desc>
    <g id="浅色版本" stroke="none" stroke-width="1" fill="none" fill-rule="evenodd">
        <g id="1-个人中心" transform="translate(-28.000000, -372.000000)">
            <g id="编组-15" transform="translate(28.000000, 372.000000)">
                <g id="编组-6">
                    <rect id="矩形" x="0" y="0" width="16" height="16"></rect>
                    <rect id="矩形备份" fill="#006EFF" opacity="0.4" x="5" y="5" width="5" height="2"></rect>
                    <rect id="矩形备份-7" fill="#006EFF" opacity="0.4" x="5" y="9" width="5" height="2"></rect>
                    <path d="M3,2 L10.4452512,2 C10.6987624,2 10.9428116,2.09628458 11.1280327,2.26937736 L12.6827815,3.72232128 C12.8851356,3.91142525 13,4.17598272 13,4.45294392 L13,13 C13,13.5522847 12.5522847,14 12,14 L3,14 C2.44771525,14 2,13.5522847 2,13 L2,3 C2,2.44771525 2.44771525,2 3,2 Z" id="矩形备份-2" stroke="#006EFF" stroke-width="2"></path>
                </g>
            </g>
        </g>
    </g>
</svg>