<svg width="19" height="19" viewBox="0 0 19 19" fill="none" xmlns="http://www.w3.org/2000/svg">
<path fill-rule="evenodd" clip-rule="evenodd" d="M1.6504 2.75077L3.40041 1.10382C3.86752 0.636473 4.62487 0.636474 5.09198 1.10382L7.91749 3.93073C8.3846 4.39807 8.3846 5.15579 7.91748 5.62314L6.66565 6.8756C7.20303 8.00732 7.95483 9.03658 8.89096 9.90143C9.92769 10.8592 11.1473 11.5755 12.4629 12.0162L13.6077 10.8708C14.0748 10.4035 14.8321 10.4035 15.2992 10.8708L17.8965 13.4694C18.3636 13.9368 18.3636 14.6945 17.8965 15.1618L16.5384 16.9142C16.3332 17.179 16.0354 17.3563 15.7049 17.4106V17.4106L15.1068 17.5103C11.4176 17.4789 8.24224 16.0497 5.52952 13.5435C2.78584 11.0087 1.05029 8.07092 0.75331 4.3464V4.3464C0.75331 3.83892 0.97026 3.35564 1.34947 3.0184L1.6504 2.75077Z" stroke="#1C66E5" stroke-width="1.5"/>
</svg>
