<?xml version="1.0" encoding="UTF-8"?>
<svg xmlns="http://www.w3.org/2000/svg" xmlns:xlink="http://www.w3.org/1999/xlink" width="43px" height="42px" viewBox="0 0 43 42" version="1.1">
  <title>编组 3</title>
  <defs>
    <path d="M52.1440033,262.168279 C53.7071313,260.607213 56.2397907,260.608885 57.8008563,262.172013 L57.8008563,262.172013 L71.61,275.999572 L301,276 C308.731986,276 315,282.268014 315,290 L315,449 C315,456.731986 308.731986,463 301,463 L29,463 C21.2680135,463 15,456.731986 15,449 L15,290 C15,282.268014 21.2680135,276 29,276 L38.33,275.999572 L52.1402692,262.172013 L52.1402692,262.172013 Z" id="path-1"></path>
    <filter x="-6.7%" y="-7.9%" width="113.3%" height="119.8%" filterUnits="objectBoundingBox" id="filter-2">
      <feOffset dx="0" dy="4" in="SourceAlpha" result="shadowOffsetOuter1"></feOffset>
      <feGaussianBlur stdDeviation="6" in="shadowOffsetOuter1" result="shadowBlurOuter1"></feGaussianBlur>
      <feComposite in="shadowBlurOuter1" in2="SourceAlpha" operator="out" result="shadowBlurOuter1"></feComposite>
      <feColorMatrix values="0 0 0 0 0   0 0 0 0 0   0 0 0 0 0  0 0 0 0.06 0" type="matrix" in="shadowBlurOuter1"></feColorMatrix>
    </filter>
  </defs>
  <g id="页面-1" stroke="none" stroke-width="1" fill="none" fill-rule="evenodd">
    <g id="信息页-发起聊天" transform="translate(-47.000000, -311.000000)">
      <rect fill="#000000" x="0" y="0" width="750" height="1624"></rect>
      <rect id="矩形" fill="#FFFFFF" x="0" y="0" width="750" height="1624"></rect>
      <rect id="矩形" fill-opacity="0.1" fill="#FFFFFF" x="0" y="284" width="750" height="144"></rect>
      <g id="编组-5" transform="translate(32.000000, 298.000000)">
        <g id="位图" transform="translate(0.000000, 8.000000)">
          <rect id="矩形" fill="#006EFF" x="0" y="0" width="96" height="96" rx="8"></rect>
          <path d="M42.4156863,59.7575758 C42.5411765,59.6363636 42.7921569,59.6363636 42.917647,59.7575758 C42.917647,59.7575758 44.172549,60.8484849 47.0588235,60.8484849 C47.6862744,60.8484849 48.1882353,60.8484849 48.8156863,60.7272727 C52.9568628,60.2424242 53.9607843,58.5454545 53.9607843,58.5454545 C54.0862745,58.4242424 54.3372549,58.3030303 54.4627451,58.4242424 C54.5882353,58.5454545 54.7137255,58.6666666 54.7137255,58.9090909 C53.8352941,61.3333333 51.5764706,63.1515151 48.9411764,63.5151515 L48.0627451,63.5151515 C45.6784314,63.5151515 43.4196078,62.3030302 42.1647058,60.3636364 C42.2901961,60 42.2901961,59.8787878 42.4156863,59.7575758 L42.4156863,59.7575758 Z M47.5607843,21.3333333 C58.6039216,21.3333333 67.7647059,28.8484848 70.1490196,38.7878788 L70.2745098,38.7878788 C72.7843137,38.7878788 74.6666667,40.7272727 74.6666667,43.0303031 L74.6666667,51.5151515 C74.6666667,53.3333333 73.5372549,54.7878788 71.9058823,55.3939394 C70.1490196,64.969697 61.4901961,71.2727273 50.6980392,72.1212121 C50.1960784,73.5757576 48.8156863,74.6666667 47.0588235,74.6666667 C44.9254902,74.6666667 43.2941176,73.0909091 43.2941176,71.030303 C43.2941176,68.969697 45.0509803,67.3939394 47.0588235,67.3939394 C48.6901961,67.3939394 50.0705882,68.3636363 50.572549,69.6969697 C59.8588235,68.9696969 67.3882353,63.8787878 69.2705882,55.6363636 C68.1411764,55.3939394 67.1372549,54.7878788 66.5098039,53.8181818 C64.8784314,58.5454545 61.4901961,62.5454545 57.0980392,64.8484849 L56.972549,64.9696969 L56.5960784,64.9696969 C56.4915032,64.8686868 56.474074,64.8518518 56.4711692,64.7789001 L56.4705882,64.7272727 C56.4705882,64.6060606 56.4705882,64.6060606 56.5960784,64.4848485 C60.9882353,60.6060606 61.2392157,56.8484849 60.7372549,51.2727273 C60.3607843,46.4242424 57.3490196,41.8181818 55.9686275,39.7575758 L55.8431372,39.8787879 C55.717647,39.7575757 55.5921569,39.6363636 55.4666667,39.6363636 C55.2156863,39.6363636 55.0901961,39.7575758 54.9647058,40 C54.8392156,41.4545455 54.462745,42.4242424 54.2117647,42.9090909 C53.2078431,44.9696969 51.5764706,46.3030303 49.1921569,46.6666667 C45.427451,47.2727273 41.6627451,48.1212121 38.0235294,48.7272727 C35.6392156,49.0909091 33.6313725,51.6363636 34.1333333,54.3030303 C34.9926684,59.9947299 38.974432,64.1784384 40.2044901,65.1519921 L40.2153333,65.1603333 L40.2039215,65.1515151 C40.1568627,65.1212121 40.0941176,65.0909091 40.0313725,65.0909091 C39.9058824,65.0909091 39.9058823,65.2121212 39.7803922,65.2121212 C39.6549019,65.3333333 39.5294118,65.5757576 39.5294117,65.5757576 C34.6352941,63.5151515 30.745098,59.5151516 28.8627451,54.6666667 C28.1098039,55.6363636 26.8549019,56.2424243 25.6,56.2424242 C23.2156862,56.2424242 21.3333333,54.3030303 21.3333333,52 L21.3333333,43.6363636 C21.3333333,41.5757576 22.8392157,39.8787879 24.8470588,39.5151515 C26.8549019,29.2121212 36.2666666,21.3333333 47.5607843,21.3333333 Z M47.5607843,25.0909091 C38.0235294,25.0909091 29.9921569,31.8787879 28.4862745,40.7272727 C28.6117647,40.8484849 28.8627451,40.969697 28.9882352,41.2121212 C31.8745097,33.939394 39.1529411,28.7272727 47.6862745,28.7272727 C56.2196078,28.7272727 63.4980392,33.939394 66.3843137,41.3333333 L66.7607843,40.6060606 C65.0039216,31.7575757 57.0980392,25.0909091 47.5607843,25.0909091 Z" id="形状" fill="#FFFFFF" fill-rule="nonzero"></path>
        </g>
      </g>
      <g id="形状结合">
        <use fill="black" fill-opacity="1" filter="url(#filter-2)" xlink:href="#path-1"></use>
        <path stroke="#E0E0E0" stroke-width="2" d="M54.8888733,262.000133 C55.625226,261.979907 56.3673182,262.22911 56.9545645,262.748115 L56.9545645,262.748115 L71.1955708,276.999572 L301,277 C304.589851,277 307.839851,278.455075 310.192388,280.807612 C312.544925,283.160149 314,286.410149 314,290 L314,290 L314,449 C314,452.589851 312.544925,455.839851 310.192388,458.192388 C307.839851,460.544925 304.589851,462 301,462 L301,462 L29,462 C25.4101491,462 22.1601491,460.544925 19.8076118,458.192388 C17.4550746,455.839851 16,452.589851 16,449 L16,449 L16,290 C16,286.410149 17.4550746,283.160149 19.8076118,280.807612 C22.1601491,278.455075 25.4101491,277 29.0000458,277 L29.0000458,277 L38.7445991,276.999553 L52.8469102,262.879585 C53.4135391,262.313702 54.1483154,262.020475 54.8888733,262.000133 Z" stroke-linejoin="square" fill="#FFFFFF" fill-rule="evenodd"></path>
      </g>
      <g id="编组-3" transform="translate(47.000000, 305.000000)" stroke="#666666" stroke-width="4">
        <g id="编组-24" transform="translate(6.142857, 11.000000)">
          <path d="M18.7142857,22 C21.4757095,22 23.9757095,23.1192881 25.7853535,24.9289322 C27.5949976,26.7385763 28.7142857,29.2385763 28.7142857,32 L28.7142857,32 L2,32 L2.0057986,31.6562146 C2.09061716,29.145562 3.10093106,26.8695956 4.70635331,25.1587023 L4.92893219,24.9289322 C6.73857625,23.1192881 9.23857625,22 12,22 L12,22 Z" id="矩形"></path>
          <ellipse id="椭圆形" cx="15.3571429" cy="9" rx="7.21428571" ry="7"></ellipse>
        </g>
      </g>
    </g>
  </g>
</svg>
