<svg t="1660053550964" class="icon" viewBox="0 0 1024 1024" version="1.1" xmlns="http://www.w3.org/2000/svg" p-id="3181" width="200" height="200"><path d="M95.658667 461.354667a71.637333 71.637333 0 0 0 0 101.290666l365.696 365.696a71.637333 71.637333 0 0 0 101.290666 0l365.696-365.696a71.637333 71.637333 0 1 0-101.248-101.290666L512 776.448l-315.093333-315.093333a71.594667 71.594667 0 0 0-101.248 0z" p-id="3182" fill="#bfbfbf"></path><path d="M95.658667 95.658667a71.637333 71.637333 0 0 0 0 101.248l365.696 365.738666a71.594667 71.594667 0 0 0 101.290666 0l365.696-365.738666a71.637333 71.637333 0 0 0-101.248-101.248L512 410.709333 196.906667 95.658667a71.637333 71.637333 0 0 0-101.248 0z" p-id="3183" fill="#bfbfbf"></path></svg>
