<svg width="22" height="20" viewBox="0 0 22 20" fill="none" xmlns="http://www.w3.org/2000/svg">
<path fill-rule="evenodd" clip-rule="evenodd" d="M3.09661 19.8415C1.38654 19.8415 0 18.4764 0 16.7919V12.9796C0 12.5587 0.346831 12.2173 0.774001 12.2173H2.3226C2.75004 12.2173 3.0966 12.5587 3.0966 12.9796V15.267C3.0966 16.1093 3.78974 16.7919 4.6449 16.7919H17.0317C17.8869 16.7919 18.58 16.1093 18.58 15.267V12.9796C18.58 12.5587 18.9266 12.2173 19.3543 12.2173H20.9026C21.3301 12.2173 21.6766 12.5587 21.6766 12.9796V16.7919C21.6766 18.4764 20.2904 19.8415 18.58 19.8415H18.58H3.09661ZM5.67942 4.88325L9.2903 8.43944V0.762639C9.2903 0.341674 9.63693 0 10.0643 0H11.6126C12.0401 0 12.3869 0.341674 12.3869 0.762639V8.43944L15.9978 4.88325C16.311 4.57485 16.8189 4.57485 17.1321 4.88325L18.2668 6.00088C18.58 6.30935 18.58 6.80951 18.2668 7.11823L11.8728 13.4154C11.8452 13.4426 11.3477 13.7421 10.8471 13.7423C10.3411 13.7425 9.83204 13.4429 9.80436 13.4154L3.41009 7.11823C3.09687 6.80949 3.09687 6.30935 3.41009 6.00088L4.54488 4.88325H4.54487C4.85807 4.57485 5.3662 4.57485 5.67942 4.88325Z" fill="white"/>
</svg>
