<svg xmlns="http://www.w3.org/2000/svg" viewBox="0 0 62 62" class="design-iconfont">
  <g fill="none" fill-rule="evenodd">
    <path fill="#4D4D4D" d="M31 0A31 31 0 1 0 31 62A31 31 0 1 0 31 0Z"/>
    <path d="M14.7359124,0 C15.2881971,-1.01453063e-16 15.7359124,0.44771525 15.7359124,1 L15.735,21.344 L23.7580265,13.6968792 C24.1578097,13.3158576 24.790775,13.3310181 25.1718581,13.7307426 L26.5518275,15.1783906 C26.9328955,15.5781475 26.9177451,16.2111312 26.5179882,16.5921992 L14.4478609,28.0980396 C14.0646983,28.463289 13.4632705,28.466657 13.0760413,28.1057217 L0.731506115,16.5994137 C0.327506443,16.2228467 0.305267874,15.5900724 0.68183488,15.1860727 L2.04550464,13.7230605 C2.42208199,13.3190823 3.05484394,13.2968371 3.45886079,13.673373 L11.735,21.388 L11.7359124,1 C11.7359124,0.44771525 12.1836276,1.01453063e-16 12.7359124,0 L14.7359124,0 Z" transform="translate(17 17)" fill="#FFF" fill-rule="nonzero"/>
  </g>
</svg>
