<?xml version="1.0" encoding="UTF-8"?>
<svg xmlns="http://www.w3.org/2000/svg" xmlns:xlink="http://www.w3.org/1999/xlink" width="40px" height="40px" viewBox="0 0 40 40" version="1.1">
  <title>矩形</title>
  <defs>
    <path d="M467,0 C474.731986,-2.71135202e-14 481,6.2680135 481,14 L481,247 C481,254.731986 474.731986,261 467,261 L353.036,261 L340.862492,273.204941 C339.302377,274.769018 336.769719,274.77223 335.205642,273.212116 C335.203247,273.209727 335.200856,273.207335 335.198467,273.204941 L323.024,261 L14,261 C6.2680135,261 2.72325209e-15,254.731986 0,247 L0,14 C8.29461588e-16,6.2680135 6.2680135,3.19669972e-15 14,0 L467,0 Z" id="path-1"></path>
    <filter x="-10.1%" y="-14.0%" width="120.2%" height="135.4%" filterUnits="objectBoundingBox" id="filter-2">
      <feOffset dx="0" dy="10" in="SourceAlpha" result="shadowOffsetOuter1"></feOffset>
      <feGaussianBlur stdDeviation="14.5" in="shadowOffsetOuter1" result="shadowBlurOuter1"></feGaussianBlur>
      <feColorMatrix values="0 0 0 0 0   0 0 0 0 0   0 0 0 0 0  0 0 0 0.06 0" type="matrix" in="shadowBlurOuter1"></feColorMatrix>
    </filter>
  </defs>
  <g id="页面-1" stroke="none" stroke-width="1" fill="none" fill-rule="evenodd">
    <g id="消息状态" transform="translate(-660.000000, -327.000000)">
      <g id="编组-11" transform="translate(499.000000, 163.000000)">
        <g id="形状结合">
          <use fill="black" fill-opacity="1" filter="url(#filter-2)" xlink:href="#path-1"></use>
          <use fill="#FFFFFF" fill-rule="evenodd" xlink:href="#path-1"></use>
        </g>
        <g id="编组-19" transform="translate(8.000000, 1.000000)" fill="#444444" fill-rule="nonzero">
          <g id="编组-13" transform="translate(119.000000, 131.000000)">
            <g id="编组-21" transform="translate(34.000000, 32.000000)">
              <path d="M9.94902685,18.825399 C9.94902685,19.1015414 9.72516923,19.325399 9.44902685,19.325399 C9.31552791,19.325399 9.18757266,19.2720125 9.09366105,19.1771306 L2.13687841,12.1484693 C1.94403281,11.9536312 1.94403281,11.6398441 2.13687841,11.445006 L9.09366105,4.41634471 C9.28791708,4.2200816 9.60449539,4.21845454 9.8007585,4.41271056 C9.89564042,4.50662217 9.94902685,4.63457741 9.94902685,4.76807636 L9.94824421,9.73507632 L22.6994692,9.73558854 C31.0812313,9.73558854 38,15.6504194 38,23.1330579 C38,30.5145797 31.2669616,36.3703807 23.0384554,36.5272976 L22.6994692,36.5305273 L10.4390092,36.5305273 C9.88672441,36.5305273 9.43900916,36.082812 9.43900916,35.5305273 L9.43900916,33.408229 C9.43900916,32.8559443 9.88672441,32.408229 10.4390092,32.408229 L22.6994692,32.408229 C28.9648068,32.408229 33.9198585,28.1721729 33.9198585,23.1330579 C33.9198585,18.1779281 29.1285988,13.9993117 23.0116273,13.861401 L22.6994692,13.8578868 L9.94824421,13.8570763 L9.94902685,18.825399 Z" id="路径"></path>
            </g>
          </g>
        </g>
      </g>
    </g>
  </g>
</svg>
