<?xml version="1.0" encoding="UTF-8"?>
<svg xmlns="http://www.w3.org/2000/svg" xmlns:xlink="http://www.w3.org/1999/xlink" width="40px" height="40px" viewBox="0 0 40 40" version="1.1">
  <title>编组</title>
  <defs>
    <path d="M467,0 C474.731986,-2.71135202e-14 481,6.2680135 481,14 L481,247 C481,254.731986 474.731986,261 467,261 L353.036,261 L340.862492,273.204941 C339.302377,274.769018 336.769719,274.77223 335.205642,273.212116 C335.203247,273.209727 335.200856,273.207335 335.198467,273.204941 L323.024,261 L14,261 C6.2680135,261 2.72325209e-15,254.731986 0,247 L0,14 C8.29461588e-16,6.2680135 6.2680135,3.19669972e-15 14,0 L467,0 Z" id="path-1"></path>
    <filter x="-10.1%" y="-14.0%" width="120.2%" height="135.4%" filterUnits="objectBoundingBox" id="filter-2">
      <feOffset dx="0" dy="10" in="SourceAlpha" result="shadowOffsetOuter1"></feOffset>
      <feGaussianBlur stdDeviation="14.5" in="shadowOffsetOuter1" result="shadowBlurOuter1"></feGaussianBlur>
      <feColorMatrix values="0 0 0 0 0   0 0 0 0 0   0 0 0 0 0  0 0 0 0.06 0" type="matrix" in="shadowBlurOuter1"></feColorMatrix>
    </filter>
  </defs>
  <g id="页面-1" stroke="none" stroke-width="1" fill="none" fill-rule="evenodd">
    <g id="消息状态" transform="translate(-660.000000, -196.000000)">
      <g id="编组-11" transform="translate(499.000000, 163.000000)">
        <g id="形状结合">
          <use fill="black" fill-opacity="1" filter="url(#filter-2)" xlink:href="#path-1"></use>
          <use fill="#FFFFFF" fill-rule="evenodd" xlink:href="#path-1"></use>
        </g>
        <g id="编组-19" transform="translate(8.000000, 1.000000)" fill-rule="nonzero" stroke="#444444" stroke-width="4">
          <g id="编组-13" transform="translate(119.000000, 0.000000)">
            <g id="编组-17" transform="translate(34.000000, 32.000000)">
              <g id="编组" transform="translate(0.000000, 0.249660)">
                <path d="M23.1265517,6.28055724 L35.7271185,19.5748426 L23.0577232,32.8831329 L23.0577232,25.1147287 C22.2832234,25.0144246 21.6206186,24.9731478 21.1119625,24.9593482 C19.8469875,24.9250298 17.622079,25.0087745 15.0567889,25.7301995 C10.5501298,27.0035633 6.83444935,29.6335962 4.00998374,33.593477 C3.98525766,32.7188606 3.9976824,31.6416134 4.10230378,30.4471653 C4.26498285,28.6221312 4.60551504,26.8911737 5.12965716,25.3080362 C5.77312173,23.3656805 6.68732788,21.6451437 7.85433875,20.1962611 C11.1297915,16.1439451 16.3122766,14.2888953 23.1265517,14.4503809 L23.1265517,14.4503809 L23.1265517,6.28055724 Z" id="路径"></path>
              </g>
            </g>
          </g>
        </g>
      </g>
    </g>
  </g>
</svg>
