<?xml version="1.0" encoding="UTF-8"?>
<svg xmlns="http://www.w3.org/2000/svg" xmlns:xlink="http://www.w3.org/1999/xlink" width="24px" height="23px" viewBox="0 0 24 23" version="1.1">
  <title>路径</title>
  <g id="页面-2备份" stroke="none" stroke-width="1" fill="none" fill-rule="evenodd">
    <g id="评价" transform="translate(-1145.000000, -442.000000)" fill="#E5E7E9" fill-rule="nonzero">
      <g id="编组-12" transform="translate(954.000000, 401.000000)">
        <g id="编组-25" transform="translate(20.000000, 41.000000)">
          <g id="编组-9" transform="translate(54.000000, 0.000000)">
            <path d="M140.958975,8.69899984 C140.859347,8.39163419 140.59508,8.16747802 140.276778,8.12077882 L133.008172,7.05943334 L129.757605,0.434939378 C129.473074,-0.144979793 128.527455,-0.144979793 128.242925,0.434939378 L124.992357,7.05943334 L117.723751,8.12077882 C117.405449,8.16747802 117.141182,8.39163419 117.041554,8.69899984 C116.941926,9.00636549 117.024668,9.34344882 117.255163,9.56930313 L122.514327,14.7248949 L121.272357,22.006574 C121.218322,22.3249777 121.348345,22.6467776 121.60839,22.8369707 C121.86928,23.028862 122.213755,23.0526361 122.497441,22.9015005 L129.000265,19.4644393 L135.502243,22.9015005 C135.625512,22.9668794 135.7606,22.9991443 135.894844,22.9991443 C136.069615,22.9991443 136.244386,22.9448034 136.391295,22.8369707 C136.65134,22.6467776 136.781363,22.3249777 136.727327,22.006574 L135.485357,14.7248949 L140.744522,9.56930313 C140.975017,9.34344882 141.057758,9.00636549 140.958975,8.69899984 L140.958975,8.69899984 Z" id="路径"></path>
          </g>
        </g>
      </g>
    </g>
  </g>
</svg>
