<?xml version="1.0" encoding="UTF-8"?>
<svg xmlns="http://www.w3.org/2000/svg" xmlns:xlink="http://www.w3.org/1999/xlink" width="252px" height="92px" viewBox="0 0 252 92" version="1.1">
  <title>编组 11</title>
  <defs>
    <linearGradient x1="0%" y1="52.3062875%" x2="56.0483078%" y2="52.6853591%" id="linearGradient-1">
      <stop stop-color="#EDF5FF" offset="0%"></stop>
      <stop stop-color="#F5F9FF" offset="100%"></stop>
    </linearGradient>
    <path d="M4,0 L228,0 C230.209139,-4.05812251e-16 232,1.790861 232,4 L232,68 C232,70.209139 230.209139,72 228,72 L4,72 C1.790861,72 2.705415e-16,70.209139 0,68 L0,4 C-2.705415e-16,1.790861 1.790861,4.05812251e-16 4,0 Z" id="path-2"></path>
    <filter x="-6.9%" y="-19.4%" width="113.8%" height="144.4%" filterUnits="objectBoundingBox" id="filter-4">
      <feOffset dx="0" dy="2" in="SourceAlpha" result="shadowOffsetOuter1"></feOffset>
      <feGaussianBlur stdDeviation="5" in="shadowOffsetOuter1" result="shadowBlurOuter1"></feGaussianBlur>
      <feColorMatrix values="0 0 0 0 0.278928222   0 0 0 0 0.408004401   0 0 0 0 0.60161867  0 0 0 0.281052809 0" type="matrix" in="shadowBlurOuter1" result="shadowMatrixOuter1"></feColorMatrix>
      <feOffset dx="0" dy="2" in="SourceAlpha" result="shadowOffsetOuter2"></feOffset>
      <feGaussianBlur stdDeviation="3" in="shadowOffsetOuter2" result="shadowBlurOuter2"></feGaussianBlur>
      <feColorMatrix values="0 0 0 0 1   0 0 0 0 1   0 0 0 0 1  0 0 0 0.709383558 0" type="matrix" in="shadowBlurOuter2" result="shadowMatrixOuter2"></feColorMatrix>
      <feMerge>
        <feMergeNode in="shadowMatrixOuter1"></feMergeNode>
        <feMergeNode in="shadowMatrixOuter2"></feMergeNode>
      </feMerge>
    </filter>
    <linearGradient x1="0%" y1="3.17377732%" x2="115.312974%" y2="115.99274%" id="linearGradient-5">
      <stop stop-color="#D4E7FF" offset="0%"></stop>
      <stop stop-color="#A9CBFF" offset="100%"></stop>
    </linearGradient>
    <linearGradient x1="50%" y1="0%" x2="50%" y2="72.5432672%" id="linearGradient-6">
      <stop stop-color="#FFFFFF" offset="0%"></stop>
      <stop stop-color="#F5F9FF" offset="100%"></stop>
    </linearGradient>
    <path d="M4,0 L228,0 C230.209139,-4.05812251e-16 232,1.790861 232,4 L232,68 C232,70.209139 230.209139,72 228,72 L4,72 C1.790861,72 2.705415e-16,70.209139 0,68 L0,4 C-2.705415e-16,1.790861 1.790861,4.05812251e-16 4,0 Z" id="path-7"></path>
  </defs>
  <g id="new" stroke="none" stroke-width="1" fill="none" fill-rule="evenodd">
    <g id="展开折叠菜单，可切换场景" transform="translate(-20.000000, -970.000000)">
      <g id="编组-30" transform="translate(0.000000, 29.000000)">
        <g id="编组-11" transform="translate(30.000000, 949.000000)">
          <mask id="mask-3" fill="white">
            <use xlink:href="#path-2"></use>
          </mask>
          <g id="v">
            <use fill="black" fill-opacity="1" filter="url(#filter-4)" xlink:href="#path-2"></use>
            <use fill="url(#linearGradient-1)" fill-rule="evenodd" xlink:href="#path-2"></use>
          </g>
          <path d="M37.5081967,10.9348887 L37.5081967,33.4576271 L68,33.4576271 L68,6 L37.5081967,10.9348887 Z M37.5081967,61.1481125 L68,66 L68,38.5423729 L37.5081967,38.5423729 L37.5081967,61.1481125 Z M6,32.440678 L30.3934426,32.440678 L30.3934426,11.0847458 L6,15.1901801 L6,32.440678 Z M6,56.8947745 L30.3934426,60.9152542 L30.3934426,39.559322 L6,39.559322 L6,56.8947745 Z" id="形状" fill="url(#linearGradient-5)" mask="url(#mask-3)"></path>
          <mask id="mask-8" fill="white">
            <use xlink:href="#path-7"></use>
          </mask>
          <path stroke="#96C3FF" d="M228,0.5 C228.966498,0.5 229.841498,0.891750844 230.474874,1.52512627 C231.108249,2.15850169 231.5,3.03350169 231.5,4 L231.5,4 L231.5,68 C231.5,68.9664983 231.108249,69.8414983 230.474874,70.4748737 C229.841498,71.1082492 228.966498,71.5 228,71.5 L228,71.5 L4,71.5 C3.03350169,71.5 2.15850169,71.1082492 1.52512627,70.4748737 C0.891750844,69.8414983 0.5,68.9664983 0.5,68 L0.5,68 L0.5,4 C0.5,3.03350169 0.891750844,2.15850169 1.52512627,1.52512627 C2.15850169,0.891750844 3.03350169,0.5 4,0.5 L4,0.5 Z"></path>
        </g>
      </g>
    </g>
  </g>
</svg>
