<?xml version="1.0" encoding="UTF-8"?>
<svg xmlns="http://www.w3.org/2000/svg" xmlns:xlink="http://www.w3.org/1999/xlink" width="45px" height="33px" viewBox="0 0 45 33" version="1.1">
  <title>编组 8</title>
  <g id="web" stroke="none" stroke-width="1" fill="none" fill-rule="evenodd">
    <g id="登录" transform="translate(-32.000000, -37.000000)">
      <g id="Group-1322" transform="translate(32.000000, 37.200000)">
        <g id="编组-8" transform="translate(0.000000, -0.000108)">
          <path d="M41.4141377,14.5526416 C39.557447,12.6651244 36.9696233,11.4755334 34.0927508,11.4755334 C31.6058158,11.4752249 29.4648729,12.3302 27.5956485,13.8477731 C26.7806481,14.5092911 25.9258802,15.3013233 24.850612,16.3426588 C24.3164594,16.8597784 8.83160619,31.839892 8.83160619,31.839892 C9.64335713,31.9551332 10.7597855,31.9895358 11.7552094,31.995861 C12.68781,32.001569 30.4793295,31.999872 31.2240793,31.999872 C32.7230178,31.999872 33.6986353,31.998175 34.7465151,31.9218104 C37.1497374,31.7470203 39.4200404,30.8682874 41.2552227,29.0716364 C45.3305342,25.081547 45.3918101,18.6056739 41.4141377,14.5526416 M38.4377692,26.2004814 C37.6479909,26.9797089 36.2392641,27.864767 33.9267178,27.9429829 C32.8573296,27.9793911 31.608601,27.9832479 31.0371568,27.9832479 L18.6114565,27.9832479 C23.132411,23.6054731 27.0760413,19.7866256 27.5233863,19.3537385 C27.9332849,18.9566425 28.8550539,18.0774468 29.6500933,17.3637848 C31.3953733,15.7968447 32.9668835,15.4815129 34.077896,15.4918491 C35.8191528,15.5082019 37.4027325,16.2172358 38.5346346,17.361625 C40.9559611,19.8290504 40.8987083,23.7723953 38.4377692,26.2004814" id="Fill-10" fill="#00A3FF"></path>
          <path d="M16.4306689,13.5894293 C14.6104961,12.2312191 12.5726082,11.4722012 10.262383,11.4754306 C7.38551042,11.4754306 4.79753206,12.6650318 2.94084133,14.5527033 C-1.03667638,18.6057356 -0.97540048,25.0814544 3.09991109,29.0713896 C4.73610142,30.6735036 6.71828395,31.5451401 8.83214777,31.8393367 L12.8191044,27.9822297 C12.1744696,27.9796071 11.2492963,27.9708136 10.4282612,27.9430446 C8.11586963,27.8646745 6.70714287,26.9799249 5.91720987,26.2005431 C3.45627069,23.7724571 3.39901795,19.8289578 5.82049917,17.3613782 C6.95240121,16.2171432 8.53598092,15.5082636 10.277083,15.4920651 C11.3681345,15.4875912 12.8489687,15.8033859 14.5221412,17.1862795 C15.3208942,17.8464091 17.0943364,19.4006989 17.8723546,20.1001679 C17.9119673,20.1358047 17.9596264,20.1388901 18.0060475,20.1010935 L20.7512388,17.430492 C20.7987431,17.3846732 20.7959578,17.3225016 20.7490725,17.2803854 C19.4288553,16.0904859 17.5571551,14.4257375 16.4306689,13.5894293" id="Fill-11" fill="#00C8DC"></path>
          <path d="M35.172135,9.15742793 C33.2778432,3.82285861 28.176934,0 22.1774663,0 C15.2955328,0 9.59254146,5.04546371 8.55967117,11.6176025 C9.11316585,11.5247308 9.68167004,11.4753638 10.2623985,11.4753638 C11.070281,11.4742839 11.8441213,11.5683898 12.5877879,11.7467281 C12.6023332,11.7498136 12.6168785,11.7515106 12.6312691,11.7550588 C13.5637149,7.31758081 17.4983705,4.02156086 22.1774663,4.02156086 C26.074366,4.02156086 29.4931279,6.36495159 31.0344644,9.68565505 C31.0587581,9.73795323 31.0997635,9.75523169 31.141852,9.74366129 C32.3009878,9.42616965 33.6908366,9.24150614 35.0331811,9.34024018 C35.163934,9.34980504 35.2142235,9.2763716 35.172135,9.15742793" id="Fill-12" fill="#006EFF"></path>
        </g>
      </g>
    </g>
  </g>
</svg>
