<?xml version="1.0" encoding="UTF-8"?>
<svg width="28px" height="28px" viewBox="0 0 28 28" version="1.1" xmlns="http://www.w3.org/2000/svg" xmlns:xlink="http://www.w3.org/1999/xlink">
    <!-- Generator: Sketch 61.2 (89653) - https://sketch.com -->
    <title>语音</title>
    <desc>Created with Sketch.</desc>
    <g id="浅色版本" stroke="none" stroke-width="1" fill="none" fill-rule="evenodd">
        <g id="在线客服" transform="translate(-8.000000, -737.000000)">
            <g id="编组-3" transform="translate(8.000000, 737.000000)">
                <g id="编组-13备份">
                    <circle id="椭圆形备份-25" stroke="#000000" stroke-width="1.5" cx="14" cy="14" r="13.25"></circle>
                    <path d="M16.7254202,6.49944534 C18.7422695,8.41282782 20,11.1185808 20,14.1180925 C20,17.0259755 18.8179377,19.6577731 16.908112,21.5591864 L15.8511317,20.4948571 C17.487349,18.8651761 18.5,16.6098929 18.5,14.1180925 C18.5,11.5480628 17.4227672,9.22963431 15.6951946,7.58969985 L16.7254202,6.49944534 Z M13.6344329,9.76991965 C14.7836334,10.8629724 15.5,12.4068742 15.5,14.1180925 C15.5,15.7789367 14.8251887,17.2821704 13.7347892,18.3685703 L12.6769909,17.3050548 C13.4942624,16.4903245 14,15.3632691 14,14.1180925 C14,12.836496 13.4642454,11.6800317 12.6044838,10.8604471 L13.6344329,9.76991965 Z M9.5,12.6180925 C10.3284271,12.6180925 11,13.2896653 11,14.1180925 C11,14.9465196 10.3284271,15.6180925 9.5,15.6180925 C8.67157288,15.6180925 8,14.9465196 8,14.1180925 C8,13.2896653 8.67157288,12.6180925 9.5,12.6180925 Z" id="形状结合备份-2" fill="#000000"></path>
                </g>
            </g>
        </g>
    </g>
</svg>