<?xml version="1.0" encoding="UTF-8"?>
<svg width="16px" height="16px" viewBox="0 0 16 16" version="1.1" xmlns="http://www.w3.org/2000/svg" xmlns:xlink="http://www.w3.org/1999/xlink">
    <!-- Generator: Sketch 61.2 (89653) - https://sketch.com -->
    <title>用户协议</title>
    <desc>Created with Sketch.</desc>
    <defs>
        <rect id="path-1" x="0" y="0" width="16" height="16"></rect>
    </defs>
    <g id="浅色版本" stroke="none" stroke-width="1" fill="none" fill-rule="evenodd">
        <g id="1-个人中心" transform="translate(-28.000000, -308.000000)">
            <g id="编组-14" transform="translate(28.000000, 308.000000)">
                <g id="编组-8">
                    <g id="矩形-+-矩形-+-矩形-+-矩形-蒙版">
                        <mask id="mask-2" fill="white">
                            <use xlink:href="#path-1"></use>
                        </mask>
                        <g id="蒙版"></g>
                        <path d="M12,1 C12.7244847,1 13.3589975,1.38521595 13.7098883,1.96199799 L12,3.67 L12,3 L3,3 L3,13 L12,13 L12,9.327 L14,7.328 L14,13 C14,14.0543618 13.1841222,14.9181651 12.1492623,14.9945143 L12,15 L3,15 C1.8954305,15 1,14.1045695 1,13 L1,13 L1,3 C1,1.8954305 1.8954305,1 3,1 L3,1 Z" id="形状结合" fill="#006EFF" fill-rule="nonzero" mask="url(#mask-2)"></path>
                        <polygon id="矩形" fill="#006EFF" opacity="0.4" mask="url(#mask-2)" transform="translate(11.000000, 7.500000) rotate(-315.000000) translate(-11.000000, -7.500000) " points="10 2 12 2 12 12 11 13 10 12"></polygon>
                        <rect id="矩形" fill="#006EFF" opacity="0.4" mask="url(#mask-2)" x="5" y="5" width="4" height="2"></rect>
                    </g>
                </g>
            </g>
        </g>
    </g>
</svg>