<svg width="22" height="22" viewBox="0 0 22 22" fill="none" xmlns="http://www.w3.org/2000/svg">
    <path fill-rule="evenodd" clip-rule="evenodd" d="M3.0953 3.63869L4.83761 1.99897C5.30268 1.53368 6.05669 1.53368 6.52175 1.99897L9.33484 4.81345C9.7999 5.27875 9.7999 6.03314 9.33484 6.49843L8.08851 7.74538C8.62352 8.87213 9.37202 9.89687 10.304 10.7579C11.3362 11.7115 12.5505 12.4246 13.8602 12.8634L15 11.7231C15.4651 11.2578 16.2191 11.2578 16.6841 11.7231L19.27 14.3102C19.7351 14.7755 19.7351 15.5299 19.27 15.9952L17.9178 17.7399C17.7136 18.0035 17.4171 18.18 17.088 18.234V18.234L16.4926 18.3333C12.8196 18.3021 9.65816 16.8791 6.95737 14.384C4.22574 11.8604 2.49783 8.93546 2.20215 5.2273V5.2273C2.20215 4.72205 2.41814 4.2409 2.79569 3.90514L3.0953 3.63869Z" stroke="#1C66E5" stroke-width="1.5"/>
</svg>
