<svg width="19" height="19" viewBox="0 0 19 19" fill="none" xmlns="http://www.w3.org/2000/svg">
<path d="M9.5 0C4.26143 0 0 4.26143 0 9.5C0 14.7386 4.26143 19 9.5 19C14.7386 19 19 14.7386 19 9.5C19 4.26143 14.7386 0 9.5 0ZM11.5581 7.19285C11.5581 6.63032 12.0141 6.175 12.576 6.175C13.1378 6.175 13.5938 6.63032 13.5938 7.19285V8.55C13.5938 9.11253 13.1378 9.56785 12.576 9.56785C12.0141 9.56785 11.5581 9.11185 11.5581 8.55V7.19285ZM5.45096 7.19285C5.45096 6.63032 5.90628 6.175 6.46882 6.175C7.03136 6.175 7.48668 6.63032 7.48668 7.19285V8.55C7.48668 9.11253 7.03136 9.56785 6.46882 9.56785C5.90628 9.56785 5.45096 9.11185 5.45096 8.55V7.19285Z" fill="url(#paint0_linear_0_17)"/>
<defs>
<linearGradient id="paint0_linear_0_17" x1="9.11687" y1="26.8441" x2="50.6493" y2="-23.8052" gradientUnits="userSpaceOnUse">
<stop stop-color="#1C66E5"/>
<stop offset="1" stop-color="#CCE2FF"/>
</linearGradient>
</defs>
</svg>
