<svg width="24" height="25" viewBox="0 0 24 25" fill="none" xmlns="http://www.w3.org/2000/svg">
    <path fill-rule="evenodd" clip-rule="evenodd"
          d="M8.77132 3.80739C8.77132 3.14062 9.31184 2.6001 9.97861 2.6001H14.0154C14.6821 2.6001 15.2227 3.14062 15.2227 3.80739V5.45195C15.591 5.62551 15.9428 5.82788 16.2752 6.05611L17.7269 5.22467C18.3026 4.89491 19.0366 5.09157 19.3704 5.66503L21.3815 9.12065C21.7185 9.69975 21.5195 10.4425 20.9381 10.7755L19.4997 11.5994C19.5156 11.7976 19.5237 11.9979 19.5237 12.2001C19.5237 12.4029 19.5155 12.6037 19.4995 12.8023L20.9352 13.6246C21.5166 13.9576 21.7156 14.7004 21.3786 15.2795L19.3675 18.7351C19.0337 19.3086 18.2998 19.5052 17.724 19.1755L16.274 18.345C15.9437 18.5717 15.5941 18.7729 15.2283 18.9456V20.5928C15.2283 21.2596 14.6878 21.8001 14.0211 21.8001H9.9843C9.31753 21.8001 8.777 21.2596 8.777 20.5928V18.9509C8.40761 18.7772 8.05474 18.5745 7.72139 18.3458L6.27278 19.1755C5.69702 19.5053 4.96304 19.3086 4.6293 18.7351L2.61819 15.2795C2.28116 14.7004 2.48019 13.9576 3.06161 13.6246L4.49478 12.8038C4.47872 12.6047 4.47054 12.4033 4.47054 12.2001C4.47054 11.9974 4.47868 11.7967 4.49465 11.5981L3.05864 10.7756C2.47722 10.4426 2.2782 9.69978 2.61522 9.12068L4.62633 5.66506C4.96008 5.0916 5.69405 4.89493 6.26981 5.2247L7.72007 6.05535C8.0521 5.82747 8.4035 5.6254 8.77132 5.45205V3.80739Z"
          fill="#147AFF" style="fill:#147AFF;fill:color(display-p3 0.0784 0.4784 1.0000);fill-opacity:1;"/>
    <circle cx="11.9973" cy="12.2004" r="3.05" stroke="white" style="stroke:white;stroke-opacity:1;"
            stroke-width="1.5"/>
</svg>
