<?xml version="1.0" encoding="UTF-8"?>
<svg width="18px" height="18px" viewBox="0 0 18 18" version="1.1" xmlns="http://www.w3.org/2000/svg" xmlns:xlink="http://www.w3.org/1999/xlink">
    <title>画板</title>
    <g id="画板" stroke="none" stroke-width="1" fill="none" fill-rule="evenodd">
        <g id="at" fill-rule="nonzero">
            <g id="编组-11">
                <circle id="蒙版" fill="#006EFF" cx="9" cy="9" r="9"></circle>
                <path d="M9.66185229,2.28113733 C6.35797576,1.9652543 3.31197412,4.08255376 2.47142946,7.27925624 C1.63088481,10.4759587 3.24414254,13.8075738 6.27970227,15.1439012 C7.13080638,15.5270729 8.05149341,15.7333128 8.98542228,15.75 C10.4722047,15.75 11.9176115,15.2625575 13.0981167,14.3627071 C13.3947741,14.1374908 13.4522747,13.7156728 13.2266384,13.4198867 C13.1178721,13.276076 12.9558003,13.1816064 12.776601,13.1575656 C12.5974017,13.1335248 12.415994,13.1819143 12.2728721,13.2919325 C10.3435542,14.7428224 7.68158841,14.7434418 5.75158944,13.29345 C3.82159048,11.8434583 3.09194171,9.29474777 3.96409619,7.04962006 C4.83625067,4.80449236 7.09854886,3.40780813 9.50627338,3.62802361 C12.3207581,3.95233736 14.4329906,6.34319268 14.3968623,9.16372615 L14.3968623,9.62166747 C14.3952895,9.9342631 14.2661407,10.232791 14.0390751,10.4486938 C13.8120095,10.6645966 13.5065396,10.7793212 13.1928169,10.7665208 C12.550363,10.6962989 12.071833,10.14342 12.0970003,9.50044771 L12.0970003,6.59117338 C12.0970003,6.21924101 11.7941523,5.91773024 11.4205703,5.91773024 C11.0787978,5.91484427 10.78856,6.16623611 10.7441403,6.50362577 C10.1146233,5.91340542 9.28194317,5.58565993 8.41722108,5.58774312 C6.79570933,5.59984582 5.40245718,6.73673734 5.07217831,8.31729266 C4.74189943,9.89784798 5.56412488,11.4936147 7.04624976,12.1485503 C8.52837464,12.8034859 10.2686288,12.3400523 11.2244056,11.0358981 C11.622024,11.6482852 12.275384,12.0499682 13.0034289,12.1296342 C13.7314737,12.2093002 14.4568676,11.9584868 14.9785921,11.4466984 C15.4798496,10.9719157 15.7593539,10.3104139 15.7497223,9.62166747 L15.7497223,9.16372615 C15.7810534,5.6593071 13.1575247,2.69329944 9.66185229,2.28113733 Z M8.43074968,11.0965079 C7.27638137,11.0965079 6.34058097,10.1648397 6.34058097,9.01556866 C6.34058097,7.86629763 7.27638137,6.93462938 8.43074968,6.93462938 C9.58511798,6.93462938 10.5209184,7.86629763 10.5209184,9.01556866 C10.5172055,10.1633051 9.58357657,11.0928115 8.43074968,11.0965079 L8.43074968,11.0965079 Z" id="形状" fill="#FFFFFF"></path>
            </g>
        </g>
    </g>
</svg>