<?xml version="1.0" encoding="UTF-8"?>
<svg xmlns="http://www.w3.org/2000/svg" xmlns:xlink="http://www.w3.org/1999/xlink" width="48px" height="48px" viewBox="0 0 48 48" version="1.1">
  <title>ic_back_white</title>
  <g id="页面-1" stroke="none" stroke-width="1" fill="none" fill-rule="evenodd">
    <g id="02.-查看信息-示例好友" transform="translate(-32.000000, -200.000000)">
      <g id="编组-6" transform="translate(0.000000, 176.000000)">
        <g id="ic_back_white" transform="translate(32.000000, 24.000000)">
          <g id="ic_back_black" fill="#444444" fill-rule="nonzero">
            <path d="M9.51231071,24 L23.5198286,38.7290411 C23.785378,39.0082689 23.7753168,39.4496082 23.4973187,39.7164448 L21.6255915,41.5130226 C21.3466827,41.7807332 20.9035602,41.7716553 20.6358496,41.4927466 C20.6351032,41.491969 20.6343586,41.4911896 20.6336157,41.4904085 L4.45876399,24.4823948 C4.2017544,24.2121467 4.2017544,23.7878533 4.45876399,23.5176052 L20.6336157,6.50959152 C20.900035,6.22944906 21.3431109,6.21832422 21.6232533,6.48474351 C21.6240344,6.48548634 21.6248138,6.48623097 21.6255915,6.48697741 L23.4973187,8.28355524 C23.7753168,8.55039175 23.785378,8.99173114 23.5198286,9.27095893 L9.51231071,24 L9.51231071,24 Z" id="Path-2"></path>
          </g>
          <rect id="矩形" x="0" y="0" width="48" height="48"></rect>
        </g>
      </g>
    </g>
  </g>
</svg>
