<?xml version="1.0" encoding="UTF-8"?>
<svg xmlns="http://www.w3.org/2000/svg" xmlns:xlink="http://www.w3.org/1999/xlink" width="40px" height="40px" viewBox="0 0 40 40" version="1.1">
  <title>编组 12</title>
  <defs>
    <path d="M467,0 C474.731986,-2.71135202e-14 481,6.2680135 481,14 L481,247 C481,254.731986 474.731986,261 467,261 L353.036,261 L340.862492,273.204941 C339.302377,274.769018 336.769719,274.77223 335.205642,273.212116 C335.203247,273.209727 335.200856,273.207335 335.198467,273.204941 L323.024,261 L14,261 C6.2680135,261 2.72325209e-15,254.731986 0,247 L0,14 C8.29461588e-16,6.2680135 6.2680135,3.19669972e-15 14,0 L467,0 Z" id="path-1"></path>
    <filter x="-10.1%" y="-14.0%" width="120.2%" height="135.4%" filterUnits="objectBoundingBox" id="filter-2">
      <feOffset dx="0" dy="10" in="SourceAlpha" result="shadowOffsetOuter1"></feOffset>
      <feGaussianBlur stdDeviation="14.5" in="shadowOffsetOuter1" result="shadowBlurOuter1"></feGaussianBlur>
      <feColorMatrix values="0 0 0 0 0   0 0 0 0 0   0 0 0 0 0  0 0 0 0.06 0" type="matrix" in="shadowBlurOuter1"></feColorMatrix>
    </filter>
  </defs>
  <g id="页面-1" stroke="none" stroke-width="1" fill="none" fill-rule="evenodd">
    <g id="消息状态" transform="translate(-541.000000, -328.000000)">
      <g id="编组-11" transform="translate(499.000000, 163.000000)">
        <g id="形状结合">
          <use fill="black" fill-opacity="1" filter="url(#filter-2)" xlink:href="#path-1"></use>
          <use fill="#FFFFFF" fill-rule="evenodd" xlink:href="#path-1"></use>
        </g>
        <g id="编辑功能" transform="translate(8.000000, 131.583780)" fill-rule="nonzero">
          <g id="编组-17" transform="translate(34.000000, 32.416220)">
            <g id="编组" transform="translate(0.000000, 3.000000)">
              <path d="M30,2 L30,24.7410578 L11.7126857,24.7410578 L8.99940621,27.5321142 L6.28736501,24.7420913 L2,24.7420913 L2,2 L30,2 Z" id="路径" stroke="#444444" stroke-width="4"></path>
              <path d="M38,12.0541319 C38.5522847,12.0541319 39,12.5038667 39,13.0586428 L39,13.0586428 L39,32.7691572 C39,33.3239333 38.5522847,33.7736682 38,33.7736682 L38,33.7736682 L33.5577151,33.7736682 L30.6995611,36.7141728 C30.3044253,37.101771 29.671305,37.0942155 29.2854474,36.6972972 L29.2854474,36.6972972 L26.4422849,33.7726347 L15,33.7726347 C14.4477153,33.7726347 14,33.3228998 14,32.7681237 L14,32.7681237 L14,26.7401319 L18,26.7401319 L18,29.7536155 L28.1270436,29.7545907 L30.001,31.6812721 L31.8726235,29.7556243 L35,29.75462 L35,16.0721758 L32,16.0721319 L32,12.0541319 Z" id="形状结合" fill="#444444"></path>
            </g>
          </g>
        </g>
        <g id="编组-19" transform="translate(8.000000, 1.000000)"></g>
      </g>
    </g>
  </g>
</svg>
