<svg width="36" height="36" viewBox="0 0 36 36" fill="none" xmlns="http://www.w3.org/2000/svg">
    <path fill-rule="evenodd" clip-rule="evenodd"
          d="M5.06503 7.75421L7.91609 5.07104C8.6771 4.30965 9.91095 4.30965 10.672 5.07104L15.2752 9.67656C16.0362 10.4379 16.0362 11.6724 15.2752 12.4338L13.2357 14.4743C14.1112 16.318 15.336 17.9949 16.8611 19.4039C18.5502 20.9643 20.5372 22.1312 22.6804 22.8492L24.5455 20.9832C25.3065 20.2218 26.5403 20.2218 27.3013 20.9832L31.5328 25.2167C32.2938 25.9781 32.2938 27.2126 31.5328 27.974L28.4493 31.1501C28.4322 31.1501 28.4665 31.1502 28.4493 31.1501C28.1325 31.4671 27.7245 31.6772 27.2824 31.7509L26.9878 31.8C20.9775 31.7489 15.8043 29.4204 11.3848 25.3374C6.91485 21.2078 4.08735 16.4217 3.60352 10.3538C3.60352 9.52698 3.95696 8.73965 4.57476 8.19022L5.06503 7.75421Z"
          fill="#147AFF" style="fill:#147AFF;fill:color(display-p3 0.0784 0.4784 1.0000);fill-opacity:1;"/>
</svg>
