<svg width="15" height="15" viewBox="0 0 15 15" fill="none" xmlns="http://www.w3.org/2000/svg">
    <g clip-path="url(#clip0_4_28891)">
        <path d="M0.755496 13.5112H14.0522C14.4692 13.5112 14.8077 13.7998 14.8077 14.1574C14.8077 14.5138 14.4692 14.8047 14.0522 14.8047H0.755496C0.338462 14.8047 0 14.515 0 14.1574C0 13.8009 0.338462 13.51 0.755496 13.51V13.5112ZM7.92727 3.36166L2.34265 8.67386V10.9091H4.69254L10.2772 5.59693L7.92727 3.36166ZM8.88826 2.4464L11.2394 4.68281L12.2004 3.76755L9.85046 1.53228L8.88826 2.4464V2.4464ZM1.20397 7.92762L9.31375 0.211128V0.211128C9.60842 -0.0698735 10.0868 -0.0704489 10.3822 0.209844C10.3826 0.210271 10.3831 0.210699 10.3835 0.211128L13.588 3.25932C13.8831 3.53993 13.8832 3.99495 13.5882 4.27564C13.5881 4.27568 13.5881 4.27573 13.588 4.27577L5.47704 11.9923C5.33503 12.1273 5.14235 12.203 4.94154 12.2027H1.73703C1.32025 12.2021 0.982745 11.8805 0.982745 11.484V8.43699C0.982745 8.24612 1.06132 8.0633 1.20395 7.92877L1.20397 7.92762Z" fill="#0365F9" style="fill:#0365F9;fill:color(display-p3 0.0118 0.3961 0.9765);fill-opacity:1;"/>
    </g>
    <defs>
        <clipPath id="clip0_4_28891">
            <rect width="15" height="15" fill="white" style="fill:white;fill-opacity:1;"/>
        </clipPath>
    </defs>
</svg>
