<svg width="29" height="20" viewBox="0 0 29 20" fill="none" xmlns="http://www.w3.org/2000/svg">
    <g opacity="0.5">
        <mask id="path-1-inside-1_2209_2749" fill="white">
            <path fill-rule="evenodd" clip-rule="evenodd" d="M1.03039 8.39344L8.77818 0H26.7782C27.8828 0 28.7782 0.895431 28.7782 2V17.5C28.7782 18.6046 27.8828 19.5 26.7782 19.5H8.77818L1.03039 11.1066C0.323202 10.3404 0.323202 9.15956 1.03039 8.39344Z"/>
        </mask>
        <path d="M8.77818 0V-1.5C8.35954 -1.5 7.95994 -1.32504 7.67598 -1.01742L8.77818 0ZM1.03039 8.39344L2.1326 9.41086L2.1326 9.41086L1.03039 8.39344ZM8.77818 19.5L7.67598 20.5174C7.95994 20.825 8.35954 21 8.77818 21V19.5ZM1.03039 11.1066L2.1326 10.0891L2.1326 10.0891L1.03039 11.1066ZM7.67598 -1.01742L-0.0718122 7.37602L2.1326 9.41086L9.88039 1.01742L7.67598 -1.01742ZM8.77818 1.5H26.7782V-1.5H8.77818V1.5ZM26.7782 1.5C27.0543 1.5 27.2782 1.72386 27.2782 2H30.2782C30.2782 0.067003 28.7112 -1.5 26.7782 -1.5V1.5ZM27.2782 2V17.5H30.2782V2H27.2782ZM27.2782 17.5C27.2782 17.7761 27.0543 18 26.7782 18V21C28.7112 21 30.2782 19.433 30.2782 17.5H27.2782ZM26.7782 18H8.77818V21H26.7782V18ZM-0.071812 12.124L7.67598 20.5174L9.88039 18.4826L2.1326 10.0891L-0.071812 12.124ZM-0.0718119 7.37602C-1.3094 8.71674 -1.3094 10.7833 -0.0718116 12.124L2.1326 10.0891C1.9558 9.89761 1.9558 9.60239 2.1326 9.41086L-0.0718119 7.37602Z" fill="#979797" style="fill:#979797;fill:color(display-p3 0.5922 0.5922 0.5922);fill-opacity:1;" mask="url(#path-1-inside-1_2209_2749)"/>
        <path fill-rule="evenodd" clip-rule="evenodd" d="M21.5433 13.542C21.9338 13.1514 21.9338 12.5183 21.5433 12.1277L19.1479 9.7324L21.6405 7.23981C22.0213 6.85905 22.0213 6.24172 21.6405 5.86096C21.2597 5.48019 20.6424 5.48019 20.2616 5.86096L17.7691 8.35354L15.3737 5.95823C14.9832 5.56771 14.3501 5.56771 13.9595 5.95823C13.569 6.34876 13.569 6.98192 13.9595 7.37244L16.3548 9.76775L13.8623 12.2603C13.4816 12.641 13.4816 13.2584 13.8623 13.6391C14.2431 14.0199 14.8604 14.0199 15.2412 13.6391L17.7337 11.1466L20.129 13.542C20.5196 13.9325 21.1527 13.9325 21.5433 13.542Z" fill="#979797" style="fill:#979797;fill:color(display-p3 0.5922 0.5922 0.5922);fill-opacity:1;"/>
    </g>
</svg>
