<svg width="19" height="19" viewBox="0 0 19 19" fill="none" xmlns="http://www.w3.org/2000/svg">
<mask id="path-1-inside-1_3672_12944" fill="white">
<path fill-rule="evenodd" clip-rule="evenodd" d="M2.86102 6.53764C2.86102 10.1483 5.788 13.0753 9.39866 13.0753C13.0093 13.0753 15.9363 10.1483 15.9363 6.53764C15.9363 2.92698 13.0093 0 9.39866 0C5.788 0 2.86102 2.92698 2.86102 6.53764ZM2.45162 14.0968C1.09763 14.0968 0 15.1944 0 16.5484C0 17.9024 1.09762 19 2.45161 19H16.3441C17.6981 19 18.7957 17.9024 18.7957 16.5484C18.7957 15.1944 17.6981 14.0968 16.3441 14.0968H2.45162Z"/>
</mask>
<path d="M9.39866 11.543C6.63425 11.543 4.39328 9.30206 4.39328 6.53764H1.32876C1.32876 10.9945 4.94176 14.6075 9.39866 14.6075V11.543ZM14.404 6.53764C14.404 9.30206 12.1631 11.543 9.39866 11.543V14.6075C13.8556 14.6075 17.4686 10.9945 17.4686 6.53764H14.404ZM9.39866 1.53226C12.1631 1.53226 14.404 3.77323 14.404 6.53764H17.4686C17.4686 2.08074 13.8556 -1.53226 9.39866 -1.53226V1.53226ZM4.39328 6.53764C4.39328 3.77323 6.63425 1.53226 9.39866 1.53226V-1.53226C4.94176 -1.53226 1.32876 2.08074 1.32876 6.53764H4.39328ZM1.53226 16.5484C1.53226 16.0406 1.94387 15.629 2.45162 15.629V12.5645C0.251383 12.5645 -1.53226 14.3481 -1.53226 16.5484H1.53226ZM2.45161 17.4677C1.94387 17.4677 1.53226 17.0561 1.53226 16.5484H-1.53226C-1.53226 18.7486 0.251375 20.5323 2.45161 20.5323V17.4677ZM16.3441 17.4677H2.45161V20.5323H16.3441V17.4677ZM17.2635 16.5484C17.2635 17.0561 16.8519 17.4677 16.3441 17.4677V20.5323C18.5443 20.5323 20.328 18.7486 20.328 16.5484H17.2635ZM16.3441 15.629C16.8519 15.629 17.2635 16.0406 17.2635 16.5484H20.328C20.328 14.3481 18.5443 12.5645 16.3441 12.5645V15.629ZM2.45162 15.629H16.3441V12.5645H2.45162V15.629Z" fill="white" fill-opacity="0.55" mask="url(#path-1-inside-1_3672_12944)"/>
</svg>
