<?xml version="1.0" encoding="UTF-8"?>
<svg width="95px" height="82px" viewBox="0 0 95 82" version="1.1" xmlns="http://www.w3.org/2000/svg" xmlns:xlink="http://www.w3.org/1999/xlink">
    <title>编组 7@1x</title>
    <defs>
        <linearGradient x1="50%" y1="0%" x2="50%" y2="100%" id="linearGradient-1">
            <stop stop-color="#F2F7FF" offset="0%"></stop>
            <stop stop-color="#E1ECFF" offset="100%"></stop>
        </linearGradient>
        <linearGradient x1="50%" y1="-37.7602741%" x2="50%" y2="100%" id="linearGradient-2">
            <stop stop-color="#F5F9FF" offset="0%"></stop>
            <stop stop-color="#FFFFFF" offset="100%"></stop>
        </linearGradient>
        <circle id="path-3" cx="14" cy="14.7342746" r="14"></circle>
        <circle id="path-5" cx="14.375" cy="14.130108" r="14"></circle>
        <path d="M2.1454489,0.957839245 C2.31562069,1.7461231 2.59223005,2.95674521 2.01309774,3.18719164 C1.62700953,3.3408226 0.977790476,3.52245906 0.0654405789,3.73210102 C-0.324084609,5.88384257 1.02533271,6.95971335 4.11369253,6.95971335 C8.74623227,6.95971335 7.91133743,4.56859162 7.91133743,3.5473327 C6.66746557,3.14979967 6.461542,3.14979967 6.00709569,2.96573207 C5.70413147,2.84302034 5.70413147,1.85444298 6.00709569,2.03438604e-15 C3.31921664,0.11303693 2.03200104,0.432316678 2.1454489,0.957839245 Z" id="path-7"></path>
        <linearGradient x1="50%" y1="0%" x2="50%" y2="100%" id="linearGradient-9">
            <stop stop-color="#3074FD" offset="0%"></stop>
            <stop stop-color="#1B56E2" offset="100%"></stop>
        </linearGradient>
    </defs>
    <g id="登录页" stroke="none" stroke-width="1" fill="none" fill-rule="evenodd">
        <g id="实时音视频-账号注销" transform="translate(-140.000000, -148.000000)">
            <g id="编组-7" transform="translate(140.000000, 148.000000)">
                <g id="编组-6" transform="translate(0.000000, 1.000000)">
                    <path d="M31.1299127,0.507861522 L92.7469203,29.1517466 C94.1937204,29.8243203 94.8516944,31.5036893 94.2747726,32.9687788 L94.1999659,33.14267 L94.1999659,33.14267 L74.755913,74.7347105 C74.0553027,76.2333595 72.2737416,76.8820038 70.7735855,76.1846265 L9.15657793,47.5407415 C7.70977777,46.8681678 7.05180374,45.1887987 7.62872556,43.7237092 L7.70353227,43.5498181 L7.70353227,43.5498181 L27.1475852,1.95777752 C27.8481954,0.459128562 29.6297566,-0.189515729 31.1299127,0.507861522 Z" id="矩形" fill="url(#linearGradient-1)" opacity="0.775251116"></path>
                    <path d="M71,26 L3,26 C2.44771525,26 1.94771525,26.2238576 1.58578644,26.5857864 C1.22385763,26.9477153 1,27.4477153 1,28 L1,74 C1,74.5522847 1.22385763,75.0522847 1.58578644,75.4142136 C1.94771525,75.7761424 2.44771525,76 3,76 L71,76 C71.5522847,76 72.0522847,75.7761424 72.4142136,75.4142136 C72.7761424,75.0522847 73,74.5522847 73,74 L73,28 C73,27.4477153 72.7761424,26.9477153 72.4142136,26.5857864 C72.0522847,26.2238576 71.5522847,26 71,26 Z" id="矩形" stroke="#BBD2F5" stroke-width="2" fill="#E1ECFF"></path>
                    <g id="avatar" transform="translate(10.000000, 32.000000)">
                        <mask id="mask-4" fill="white">
                            <use xlink:href="#path-3"></use>
                        </mask>
                        <use id="Oval" fill="url(#linearGradient-2)" xlink:href="#path-3"></use>
                        <g id="Path" mask="url(#mask-4)">
                            <g transform="translate(-0.375000, 0.604167)">
                                <mask id="mask-6" fill="white">
                                    <use xlink:href="#path-5"></use>
                                </mask>
                                <g id="蒙版" stroke="none" fill="none"></g>
                                <g id="编组-5" stroke="none" stroke-width="1" fill="none" fill-rule="evenodd" mask="url(#mask-6)">
                                    <g transform="translate(-1.625000, 4.130108)">
                                        <path d="M11.0161998,8.57268156 C11.63163,10.3278032 11.63163,14.423087 15.9396411,14.423087 C20.2476522,14.423087 20.2476522,8.57268156 20.2476522,7.98764102 C20.2476522,7.40260048 19.632222,2.72227616 14.7087808,3.3073167 C9.7853395,3.89235724 10.4007697,6.81755994 11.0161998,8.57268156 Z" id="路径-5" fill="#FFCFBF"></path>
                                        <path d="M11.2795206,9.77047826 C11.4055398,7.96882068 12.0682782,7.20858583 12.6803436,6.63773239 C13.0883872,6.25716343 13.3412852,5.87659447 13.4390377,5.49602552 C14.9734596,6.25716343 16.3527359,6.63773239 17.5768666,6.63773239 C18.8009974,6.63773239 19.6170845,7.39887031 20.0251281,8.92114615 C21.6932077,5.46048937 21.6027378,3.04195737 19.7537183,1.66555014 C16.980189,-0.399060695 14.6631684,-0.177077281 13.4390377,0.393776158 C12.6229505,0.774345118 12.1660307,1.14310354 12.0682782,1.50005144 C11.3262625,1.29183839 10.6854608,1.49186279 10.1458732,2.10012465 C9.33649174,3.01251742 9.15965217,4.11080756 9.15965217,5.49602552 C9.15965217,6.88124347 10.7993384,9.19962482 11.2795206,9.77047826 Z" id="路径-6" fill="#2A2B2A"></path>
                                        <g id="路径-9" stroke-width="1" fill="none" transform="translate(11.570087, 11.824891)">
                                            <mask id="mask-8" fill="white">
                                                <use xlink:href="#path-7"></use>
                                            </mask>
                                            <use id="蒙版" fill="#FFCFBF" xlink:href="#path-7"></use>
                                            <polygon fill="#EFEFEF" mask="url(#mask-8)" points="4.10810432 5.14619559 4.10810432 6.90411607 2.6115031 6.19466048"></polygon>
                                            <polygon id="路径-9备份" fill="#EFEFEF" mask="url(#mask-8)" transform="translate(4.856405, 6.025156) scale(-1, 1) translate(-4.856405, -6.025156) " points="5.60470554 5.14619559 5.60470554 6.90411607 4.10810432 6.19466048"></polygon>
                                        </g>
                                        <path d="M11.7177434,15.5437132 C10.5428751,15.9669817 6.95751452,16.3948106 5.67576604,17.3567096 C4.39401755,18.3186087 4.84989591,20.5155421 4.82367645,20.7174242 C4.61824741,22.2991673 3.56499777,23.7532411 3.41864286,24.3204545 C3.17687543,25.257449 2.09776967,30.6265351 0.181325572,40.4277128 L27.7441409,40.9429565 C27.7441409,35.8324086 27.7441409,32.6947458 27.7441409,31.5299683 C27.7441409,29.782802 28.1758157,18.4412857 26.1020949,17.3567096 C24.0283741,16.2721336 20.2078416,15.4245993 20.2078416,15.4245993 C20.2078416,15.4245993 19.0997136,17.5556677 16.0364391,17.5556677 C12.9731646,17.5556677 11.9264547,16.9735088 11.7177434,15.5437132 Z" id="路径-8" fill="url(#linearGradient-9)"></path>
                                        <polygon id="路径-7" fill="#FFFFFF" points="12.2615877 15.3536087 11.088 15.7169094 13.7743232 18.6104348 15.6678261 16.9820217"></polygon>
                                        <polygon id="路径-7备份" fill="#FFFFFF" transform="translate(17.937834, 16.948939) scale(-1, 1) translate(-17.937834, -16.948939) " points="17.0426088 15.1640951 15.6678261 15.4245993 18.3677254 18.7337822 20.2078416 16.9820217"></polygon>
                                    </g>
                                </g>
                            </g>
                        </g>
                    </g>
                    <path d="M64,67 L64,70 L10,70 L10,67 L64,67 Z M64,50 L64,54 L42,54 L42,50 L64,50 Z M64,40 L64,44 L42,44 L42,40 L64,40 Z" id="形状" fill="#BBD2F5"></path>
                </g>
                <g id="编组-8" transform="translate(57.000000, 60.000000)">
                    <circle id="椭圆形" stroke="#296BF4" stroke-width="2" fill="#296BF4" cx="11" cy="11" r="10"></circle>
                    <rect id="矩形" fill="#FFFFFF" transform="translate(11.000000, 9.000000) rotate(-270.000000) translate(-11.000000, -9.000000) " x="7" y="8" width="8" height="2"></rect>
                    <rect id="矩形" fill="#FFFFFF" transform="translate(11.000000, 16.000000) scale(-1, 1) rotate(270.000000) translate(-11.000000, -16.000000) " x="10" y="15" width="2" height="2"></rect>
                </g>
            </g>
        </g>
    </g>
</svg>