<svg width="21" height="21" viewBox="0 0 21 21" fill="none" xmlns="http://www.w3.org/2000/svg">
    <path d="M10.3293 20.6586C9.76587 20.6586 9.39026 20.2829 9.39026 19.7195V0.939026C9.39026 0.375611 9.76587 0 10.3293 0C10.8927 0 11.2683 0.375611 11.2683 0.939026V19.7195C11.2683 20.2829 10.8927 20.6586 10.3293 20.6586ZM15.0244 16.9024C14.461 16.9024 14.0854 16.5268 14.0854 15.9634V4.69511C14.0854 4.1317 14.461 3.75609 15.0244 3.75609C15.5878 3.75609 15.9634 4.1317 15.9634 4.69511V15.9634C15.9634 16.5268 15.5878 16.9024 15.0244 16.9024ZM0.939026 14.0854C0.375611 14.0854 0 13.7098 0 13.1463V7.51219C0 6.94877 0.375611 6.57316 0.939026 6.57316C1.50244 6.57316 1.87805 6.94877 1.87805 7.51219V13.1463C1.87805 13.7098 1.50244 14.0854 0.939026 14.0854ZM19.7195 14.0854C19.1561 14.0854 18.7805 13.7098 18.7805 13.1463V7.51219C18.7805 6.94877 19.1561 6.57316 19.7195 6.57316C20.2829 6.57316 20.6586 6.94877 20.6586 7.51219V13.1463C20.6586 13.7098 20.2829 14.0854 19.7195 14.0854ZM5.63415 16.9024C5.07073 16.9024 4.69512 16.5268 4.69512 15.9634V4.69511C4.69512 4.1317 5.07073 3.75609 5.63415 3.75609C6.19756 3.75609 6.57317 4.1317 6.57317 4.69511V15.9634C6.57317 16.5268 6.19756 16.9024 5.63415 16.9024Z" fill="black" fill-opacity="0.9"/>
</svg>
