<?xml version="1.0" encoding="UTF-8"?>
<svg width="64px" height="64px" viewBox="0 0 64 64" version="1.1" xmlns="http://www.w3.org/2000/svg" xmlns:xlink="http://www.w3.org/1999/xlink">
    <!-- Generator: Sketch 61.2 (89653) - https://sketch.com -->
    <title>音频通话</title>
    <desc>Created with Sketch.</desc>
    <g id="浅色版本" stroke="none" stroke-width="1" fill="none" fill-rule="evenodd">
        <g id="在线客服-更多功能" transform="translate(-20.000000, -677.000000)">
            <g id="编组-20" transform="translate(20.000000, 677.000000)">
                <g id="编组-15">
                    <rect id="矩形备份-7" fill="#FFFFFF" x="0" y="0" width="64" height="64" rx="4"></rect>
                    <g id="编组-5" transform="translate(22.000000, 17.000000)" fill="#444444">
                        <path d="M19,15 C19.5522847,15 20,15.4477153 20,16 C20,21.1849719 16.0538953,25.4482817 11.0010997,25.9505155 L11,29 L13,29 C13.5522847,29 14,29.4477153 14,30 C14,30.5522847 13.5522847,31 13,31 L7,31 C6.44771525,31 6,30.5522847 6,30 C6,29.4477153 6.44771525,29 7,29 L9,29 L8.99989907,25.9506147 C3.94662476,25.4488436 0,21.1853136 0,16 C0,15.4477153 0.44771525,15 1,15 C1.55228475,15 2,15.4477153 2,16 C2,20.418278 5.581722,24 10,24 C14.418278,24 18,20.418278 18,16 C18,15.4477153 18.4477153,15 19,15 Z M10,0 C13.3137085,-6.08718376e-16 16,2.6862915 16,6 L16,16 C16,19.3137085 13.3137085,22 10,22 C6.6862915,22 4,19.3137085 4,16 L4,6 C4,2.6862915 6.6862915,6.08718376e-16 10,0 Z" id="形状结合"></path>
                    </g>
                </g>
            </g>
        </g>
    </g>
</svg>
