<?xml version="1.0" encoding="UTF-8"?>
<svg xmlns="http://www.w3.org/2000/svg" xmlns:xlink="http://www.w3.org/1999/xlink" width="128px" height="128px" viewBox="0 0 128 128" version="1.1">
  <title>编组 5</title>
  <g id="当前版" stroke="none" stroke-width="1" fill="none" fill-rule="evenodd">
    <g id="更多" transform="translate(-223.000000, -1355.000000)">
      <g id="编组-7" transform="translate(47.000000, 1147.000000)">
        <g id="编组-5" transform="translate(176.000000, 208.000000)">
          <rect id="矩形备份-45" fill="#FFFFFF" x="0" y="0" width="128" height="128" rx="20"></rect>
          <g id="编组-4" transform="translate(37.999754, 44.000000)" fill="#5C6168">
            <path d="M48,0 C50.209139,-4.05812251e-16 52,1.790861 52,4 L52,36 C52,38.209139 50.209139,40 48,40 L4,40 C1.790861,40 2.705415e-16,38.209139 0,36 L0,4 C-2.705415e-16,1.790861 1.790861,4.05812251e-16 4,0 L48,0 Z M44.9997538,30 L32.9997538,30 C32.447469,30 31.9997538,30.4477153 31.9997538,31 L31.9997538,31 L31.9997538,33 C31.9997538,33.5522847 32.447469,34 32.9997538,34 L32.9997538,34 L44.9997538,34 C45.5520385,34 45.9997538,33.5522847 45.9997538,33 L45.9997538,33 L45.9997538,31 C45.9997538,30.4477153 45.5520385,30 44.9997538,30 L44.9997538,30 Z M44.9997538,22 L24.9997538,22 C24.447469,22 23.9997538,22.4477153 23.9997538,23 L23.9997538,23 L23.9997538,25 C23.9997538,25.5522847 24.447469,26 24.9997538,26 L24.9997538,26 L44.9997538,26 C45.5520385,26 45.9997538,25.5522847 45.9997538,25 L45.9997538,25 L45.9997538,23 C45.9997538,22.4477153 45.5520385,22 44.9997538,22 L44.9997538,22 Z M14.9997538,6 L6.99975375,6 C6.447469,6 5.99975375,6.44771525 5.99975375,7 L5.99975375,7 L5.99975375,15 C5.99975375,15.5522847 6.447469,16 6.99975375,16 L6.99975375,16 L14.9997538,16 C15.5520385,16 15.9997538,15.5522847 15.9997538,15 L15.9997538,15 L15.9997538,7 C15.9997538,6.44771525 15.5520385,6 14.9997538,6 L14.9997538,6 Z" id="形状结合" transform="translate(26.000000, 20.000000) scale(-1, 1) translate(-26.000000, -20.000000) "></path>
          </g>
        </g>
      </g>
    </g>
  </g>
</svg>
