<?xml version="1.0" encoding="UTF-8"?>
<svg xmlns="http://www.w3.org/2000/svg" xmlns:xlink="http://www.w3.org/1999/xlink" width="128px" height="128px" viewBox="0 0 128 128" version="1.1">
  <title>编组 5</title>
  <defs>
    <filter color-interpolation-filters="auto" id="filter-1">
      <feColorMatrix in="SourceGraphic" type="matrix" values="0 0 0 0 0.360784 0 0 0 0 0.380392 0 0 0 0 0.407843 0 0 0 1.000000 0"></feColorMatrix>
    </filter>
  </defs>
  <g id="当前版" stroke="none" stroke-width="1" fill="none" fill-rule="evenodd">
    <g id="更多" transform="translate(-575.000000, -1355.000000)">
      <g id="编组-7" transform="translate(47.000000, 1147.000000)">
        <g id="编组-5" transform="translate(528.000000, 208.000000)">
          <rect id="矩形备份-45" fill="#FFFFFF" x="0" y="0" width="128" height="128" rx="20"></rect>
          <g filter="url(#filter-1)" id="编组">
            <g transform="translate(43.000000, 43.000000)">
              <path d="M41.5702853,5.2567644 C41.6993089,5.54495856 41.802734,5.8812968 41.8805607,6.26480407 C41.9605104,6.64940828 42,7.04894326 42,7.46462784 C42,7.88031241 41.9200503,8.29593604 41.7611213,8.71265663 C41.6011612,9.12828027 41.3463289,9.52897314 40.9965639,9.9124804 C40.6148312,10.2959877 40.2725274,10.6323869 39.9697132,10.9194231 C39.6668989,11.2076173 39.4046055,11.4636341 39.1817411,11.6875346 C38.9269088,11.9435514 38.6880301,12.1674519 38.4651657,12.3591751 L29.5317822,3.38536109 C29.913515,3.0339702 30.3677363,2.60975376 30.893415,2.11380873 C31.4190937,1.61786369 31.8562696,1.22679964 32.2070658,0.937569466 C32.6527947,0.586178576 33.1144772,0.338754536 33.5921739,0.19413945 C34.0698706,0.0506213185 34.5401062,-0.0136723669 35.0017887,0.00241628995 C35.4634712,0.0185049468 35.9092001,0.0902335417 36.3389149,0.218820912 C36.7686296,0.346311329 37.1429012,0.489829461 37.4617296,0.650533203 C38.1302624,1.00296011 38.8703131,1.61786369 39.6827918,2.49737693 C40.4955132,3.3778043 41.124617,4.29692976 41.5702853,5.2567644 L41.5702853,5.2567644 Z M4.35798449,28.676303 C4.54882053,28.4834829 4.99454948,28.0281861 5.69511066,27.3083406 C6.39567184,26.5884951 7.27214673,25.700389 8.3224729,24.6452413 L11.8102958,21.1423019 L15.6787596,17.2547583 L25.9492085,6.93650549 L34.882592,15.9585245 L24.6120824,26.2767164 L20.7905087,30.163163 C19.5173787,31.4111918 18.3700574,32.5552538 17.3506678,33.5943738 C16.33237,34.6345298 15.4878629,35.4904586 14.8193301,36.16216 C14.1507974,36.8338614 13.7530504,37.2184047 13.625058,37.3137178 C13.3073215,37.6019119 12.9405111,37.9061338 12.5268105,38.2253474 C12.11311,38.5456579 11.6823034,38.8016748 11.2365745,38.9934589 C10.7908455,39.2173593 10.138327,39.4894648 9.27780566,39.8097754 C8.4183762,40.128989 7.51842593,40.4407676 6.57904672,40.7449895 C5.63966751,41.0492114 4.74820962,41.313821 3.9037025,41.5377215 C3.06028725,41.760525 2.43118343,41.9051401 2.01742226,41.9694338 C1.15690092,42.0647469 0.584332126,41.9373174 0.29747146,41.5848296 C0.0106107941,41.2334387 -0.0682470756,40.6410836 0.0585927748,39.8097754 C0.122588969,39.3619744 0.273996079,38.7139185 0.512814104,37.8654856 C0.761782483,36.984025 1.01627603,36.1041489 1.2762796,35.2259099 C1.54712605,34.3142802 1.80941946,33.4754762 2.06534358,32.7074256 C2.32017582,31.9393142 2.52702608,31.4111918 2.68589435,31.1230586 C2.8767304,30.6752577 3.0921337,30.2682268 3.33101239,29.8997113 C3.57001239,29.5322317 3.91225555,29.1241039 4.35798449,28.676303 L4.35798449,28.676303 Z M20.7861823,37.7272694 L23.7861823,37.7272694 C24.0623247,37.7272694 24.2861823,37.951127 24.2861823,38.2272694 L24.2861823,41.4994172 C24.2861823,41.7755596 24.0623247,41.9994172 23.7861823,41.9994172 L20.7861823,41.9994172 C20.5100399,41.9994172 20.2861823,41.7755596 20.2861823,41.4994172 L20.2861823,38.2272694 C20.2861823,37.951127 20.5100399,37.7272694 20.7861823,37.7272694 Z M29.465704,37.7272694 L32.7372529,37.7272694 C33.0133952,37.7272694 33.2372529,37.951127 33.2372529,38.2272694 L33.2372529,41.4994172 C33.2372529,41.7755596 33.0133952,41.9994172 32.7372529,41.9994172 L29.465704,41.9994172 C29.1895617,41.9994172 28.965704,41.7755596 28.965704,41.4994172 L28.965704,38.2272694 C28.965704,37.951127 29.1895617,37.7272694 29.465704,37.7272694 Z M38.179438,37.7272694 L41.4509868,37.7272694 C41.7271292,37.7272694 41.9509868,37.951127 41.9509868,38.2272694 L41.9509868,41.4994172 C41.9509868,41.7755596 41.7271292,41.9994172 41.4509868,41.9994172 L38.179438,41.9994172 C37.9032956,41.9994172 37.679438,41.7755596 37.679438,41.4994172 L37.679438,38.2272694 C37.679438,37.951127 37.9032956,37.7272694 38.179438,37.7272694 Z" id="形状" fill="#595A5A" fill-rule="nonzero"></path>
            </g>
          </g>
        </g>
      </g>
    </g>
  </g>
</svg>
