<?xml version="1.0" encoding="UTF-8"?>
<svg xmlns="http://www.w3.org/2000/svg" xmlns:xlink="http://www.w3.org/1999/xlink" width="128px" height="128px" viewBox="0 0 128 128" version="1.1">
  <title>编组 5</title>
  <g id="当前版" stroke="none" stroke-width="1" fill="none" fill-rule="evenodd">
    <g id="更多" transform="translate(-223.000000, -1147.000000)">
      <g id="编组-7" transform="translate(47.000000, 1147.000000)">
        <g id="编组-5" transform="translate(176.000000, 0.000000)">
          <rect id="矩形备份-45" fill="#FFFFFF" x="0" y="0" width="128" height="128" rx="20"></rect>
          <g id="编组-4" transform="translate(37.999754, 44.000000)" fill="#5C6168">
            <path d="M14.7827779,20.3047469 C15.3170315,19.8659839 16.0901816,19.8418682 16.6534183,20.2642957 L16.6534183,20.2642957 L42.967,40 L4.00024625,40 C1.79110725,40 0.000246247657,38.209139 0.000246247657,36 L0.000887612509,34.9779328 C0.151240169,34.8917402 0.292787062,34.7844307 0.421213562,34.6560042 L0.421213562,34.6560042 L14.6721151,20.4051026 Z M48.0002462,0 C50.2093852,-4.05812251e-16 52.0002462,1.790861 52.0002462,4 L52.0002462,36 C52.0002462,37.742383 50.8862004,39.2245667 49.331551,39.7731088 L19.0534183,17.0642957 L18.8514268,16.9197066 C16.6722771,15.4321507 13.7258341,15.6945294 11.843688,17.5766755 L11.843688,17.5766755 L0,29.42 L0.000246247657,4 C0.000246247657,1.790861 1.79110725,4.05812251e-16 4.00024625,0 L48.0002462,0 Z M39.0002462,8 C36.7911072,8 35.0002462,9.790861 35.0002462,12 C35.0002462,14.209139 36.7911072,16 39.0002462,16 C41.2093852,16 43.0002462,14.209139 43.0002462,12 C43.0002462,9.790861 41.2093852,8 39.0002462,8 Z" id="形状结合" transform="translate(26.000123, 20.000000) scale(-1, 1) translate(-26.000123, -20.000000) "></path>
          </g>
        </g>
      </g>
    </g>
  </g>
</svg>
