<?xml version="1.0" encoding="UTF-8"?>
<svg xmlns="http://www.w3.org/2000/svg" xmlns:xlink="http://www.w3.org/1999/xlink" width="128px" height="128px" viewBox="0 0 128 128" version="1.1">
  <title>编组 6</title>
  <g id="当前版" stroke="none" stroke-width="1" fill="none" fill-rule="evenodd">
    <g id="更多" transform="translate(-575.000000, -1147.000000)">
      <g id="编组-7" transform="translate(47.000000, 1147.000000)">
        <g id="编组-6" transform="translate(528.000000, 0.000000)">
          <rect id="矩形备份-47" fill="#FFFFFF" x="0" y="0" width="128" height="128" rx="20"></rect>
          <g id="编组-8" transform="translate(36.000000, 38.000000)" fill="#5C6168">
            <g id="编组" transform="translate(0.000000, 7.000000)">
              <path d="M4,0 L36.8333254,0 C39.0424644,-4.05812251e-16 40.8333254,1.790861 40.8333254,4 L40.8333254,33 C40.8333254,35.209139 39.0424644,37 36.8333254,37 L4,37 C1.790861,37 2.705415e-16,35.209139 0,33 L0,4 C-2.705415e-16,1.790861 1.790861,4.05812251e-16 4,0 Z M55,6.13115896 C55.5522847,6.13115896 56,6.57887421 56,7.13115896 L56,7.13115896 L56,30.0746984 C56,30.2644936 55.945988,30.4503696 55.8442748,30.6106089 C55.5482997,31.076889 54.9303697,31.2149484 54.4640895,30.9189733 L54.4640895,30.9189733 L45.1666578,25.0173513 L45.1666578,11.80315 L54.4897047,6.27115974 C54.6441465,6.17951904 54.8204163,6.13115896 55,6.13115896 Z M11.9999986,7.5625 C12.5522834,7.5625 12.9999986,8.01021525 12.9999986,8.5625 L12.9999986,13.125 C12.9999986,13.6772847 12.5522834,14.125 11.9999986,14.125 L7.4999986,14.125 C6.94771385,14.125 6.4999986,13.6772847 6.4999986,13.125 L6.4999986,8.5625 C6.4999986,8.01021525 6.94771385,7.5625 7.4999986,7.5625 L11.9999986,7.5625 Z" id="Fill-2"></path>
            </g>
          </g>
        </g>
      </g>
    </g>
  </g>
</svg>
