<svg width="16" height="17" viewBox="0 0 16 17" fill="none" xmlns="http://www.w3.org/2000/svg">
    <path d="M14.9941 8.5C14.9941 4.63401 11.8601 1.5 7.99414 1.5C4.12815 1.5 0.994142 4.634 0.994141 8.5C0.994138 12.366 4.12815 15.5 7.99414 15.5C11.8601 15.5 14.9941 12.366 14.9941 8.5ZM5.80249 7.1315C5.80249 5.92262 6.78511 4.94 7.99399 4.94C9.20288 4.94 10.1855 5.92262 10.1855 7.1315C10.1855 8.10163 9.4429 8.85248 8.701 9.15455C8.58005 9.20488 8.49403 9.32451 8.49403 9.47008V10.2675H7.49403V9.47008C7.49403 8.91041 7.83289 8.431 8.32041 8.2298L8.32296 8.22875C8.81772 8.02775 9.1855 7.57185 9.1855 7.1315C9.1855 6.4749 8.65059 5.94 7.99399 5.94C7.33739 5.94 6.80249 6.4749 6.80249 7.1315H5.80249ZM7.46673 11.6734C7.46673 11.3823 7.70277 11.1462 7.99395 11.1462C8.28513 11.1462 8.52117 11.3823 8.52117 11.6734C8.52117 11.9646 8.28513 12.2007 7.99395 12.2007C7.70277 12.2007 7.46673 11.9646 7.46673 11.6734Z" fill="#1C66E5" style="fill:#1C66E5;fill:color(display-p3 0.1098 0.4000 0.8980);fill-opacity:1;"/>
</svg>
