<svg width="40" height="37" viewBox="0 0 40 37" fill="none" xmlns="http://www.w3.org/2000/svg">
    <path d="M26.8179 14.0162C26.8179 14.1191 26.709 14.2993 26.491 14.5566C26.2731 14.814 26.0396 15.1176 25.7906 15.4676C25.5415 15.8176 25.308 16.1985 25.0901 16.6103C24.8722 17.0221 24.7632 17.4441 24.7632 17.8765C24.7632 18.3088 24.8722 18.7257 25.0901 19.1272C25.308 19.5287 25.5415 19.8941 25.7906 20.2235C26.0396 20.5529 26.2731 20.8257 26.491 21.0419C26.709 21.2581 26.8179 21.3971 26.8179 21.4588V24.7015C26.8179 25.0515 26.6882 25.4478 26.4288 25.8904C26.1693 26.3331 25.8476 26.75 25.4637 27.1412C25.0797 27.5324 24.6542 27.8566 24.1873 28.114C23.7203 28.3713 23.2792 28.5 22.8642 28.5H7.39151C6.83113 28.5 6.31745 28.4022 5.85047 28.2066C5.38349 28.011 4.97358 27.7382 4.62075 27.3882C4.26793 27.0382 3.99292 26.6265 3.79575 26.1529C3.59859 25.6794 3.5 25.1647 3.5 24.6088V11.2985C3.5 10.8868 3.5934 10.4596 3.78019 10.0169C3.96698 9.57427 4.2316 9.16765 4.57406 8.79706C4.91651 8.42647 5.32123 8.11765 5.78821 7.87059C6.25519 7.62353 6.76887 7.5 7.32925 7.5H22.8019C23.3623 7.5 23.8863 7.59779 24.3741 7.79338C24.8618 7.98897 25.2873 8.25662 25.6505 8.59632C26.0137 8.93603 26.2991 9.34265 26.5066 9.81618C26.7141 10.2897 26.8179 10.7941 26.8179 11.3294V14.0162ZM36.5 11.1132V25.2265C36.5 25.6794 36.3807 26.0809 36.142 26.4309C35.9033 26.7809 35.5453 26.9559 35.0679 26.9559C34.9019 26.9559 34.6891 26.8941 34.4297 26.7706C34.1703 26.6471 33.9108 26.5029 33.6514 26.3382C33.392 26.1735 33.1481 26.0088 32.9198 25.8441C32.6915 25.6794 32.5255 25.5456 32.4217 25.4426C32.1519 25.2162 31.742 24.825 31.192 24.2691C30.642 23.7132 30.0868 23.0853 29.5264 22.3853C28.966 21.6853 28.4731 20.9647 28.0476 20.2235C27.6222 19.4824 27.4094 18.8029 27.4094 18.1853C27.4094 17.5676 27.6377 16.8625 28.0943 16.0699C28.5509 15.2772 29.1009 14.5 29.7443 13.7382C30.3877 12.9765 31.0623 12.2713 31.7679 11.6228C32.4736 10.9743 33.0651 10.4853 33.5425 10.1559C33.7292 10.0324 33.9835 9.88309 34.3052 9.70809C34.6269 9.53309 34.9123 9.44559 35.1613 9.44559C35.7217 9.44559 36.0849 9.6 36.2509 9.90882C36.417 10.2176 36.5 10.5985 36.5 11.0515V11.1132Z" fill="#147AFF" style="fill:#147AFF;fill:color(display-p3 0.0784 0.4784 1.0000);fill-opacity:1;"/>
</svg>
