<svg width="40" height="37" viewBox="0 0 40 37" fill="none" xmlns="http://www.w3.org/2000/svg">
    <path fill-rule="evenodd" clip-rule="evenodd" d="M30 16C30 18.5916 29.1785 20.9913 27.7816 22.9529L32.3137 27.485C33.0948 28.266 33.0948 29.5324 32.3137 30.3134C31.5327 31.0945 30.2663 31.0945 29.4853 30.3134L24.9532 25.7814C22.9916 27.1784 20.5917 28 18 28C11.3726 28 6 22.6274 6 16C6 9.37258 11.3726 4 18 4C24.6274 4 30 9.37258 30 16ZM18 22C21.3137 22 24 19.3137 24 16C24 12.6863 21.3137 10 18 10C14.6863 10 12 12.6863 12 16C12 19.3137 14.6863 22 18 22Z" fill="#147AFF" style="fill:#147AFF;fill:color(display-p3 0.0784 0.4784 1.0000);fill-opacity:1;"/>
</svg>
