<svg width="25" height="20" viewBox="0 0 25 20" fill="none" xmlns="http://www.w3.org/2000/svg">
<path d="M9.64563 0.534977C10.3499 -0.178378 11.4912 -0.178274 12.1955 0.534977L17.2844 5.68934C17.3663 5.77241 17.4403 5.86346 17.5051 5.96082C17.837 6.24404 18.048 6.66847 18.0481 7.14248V18.4561C18.0481 19.3088 17.3654 20.0001 16.5236 20.0001H8.45128C7.44534 20.0001 6.62996 19.1723 6.62996 18.1514C6.63006 17.1306 7.44535 16.3027 8.45128 16.3027H6.85848C5.96058 16.3027 5.23249 15.5577 5.23249 14.6387C5.23269 13.7771 5.87266 13.0685 6.69246 12.9834H5.85554C4.8385 12.9834 4.01383 12.1484 4.01372 11.1181C4.01372 10.0877 4.83843 9.25188 5.85554 9.25188H1.80373C0.807834 9.25188 0.00024773 8.43452 0 7.42569C0 6.41664 0.807681 5.59852 1.80373 5.59852H11.3038C11.3609 5.59861 11.418 5.60082 11.4747 5.60633C11.5271 5.60082 11.5802 5.59852 11.6339 5.59852H12.0929L9.64563 3.11899C8.94129 2.40552 8.94126 1.24848 9.64563 0.534977ZM22.468 5.99696C23.3378 5.99696 24.0433 6.66902 24.0433 7.49795V18.4961C24.0431 19.3249 23.3377 19.9971 22.468 19.9971H20.6184C19.7487 19.9971 19.0434 19.3249 19.0432 18.4961V7.49795C19.0432 6.66902 19.7486 5.99696 20.6184 5.99696H22.468Z" fill="black" fill-opacity="0.55"/>
</svg>
