<svg width="14" height="14" viewBox="0 0 14 14" fill="none" xmlns="http://www.w3.org/2000/svg">
    <path d="M7.21191 0C10.8657 0 13.9999 3.1339 14 7.21191C14 10.8658 10.8658 14 7.21191 14C3.1339 13.9999 0 10.8657 0 7.21191C0.000105899 3.13397 3.13397 0.000105896 7.21191 0ZM7 9.04199C6.61355 9.042 6.30005 9.35482 6.2998 9.74121C6.2998 10.1278 6.6134 10.4414 7 10.4414C7.3866 10.4414 7.7002 10.1278 7.7002 9.74121C7.69995 9.35482 7.38645 9.04199 7 9.04199ZM6.82422 3.5C6.53893 3.50009 6.31181 3.73848 6.3252 4.02344L6.5332 8.40039H7.4668L7.6748 4.02344C7.68819 3.73848 7.46108 3.50008 7.17578 3.5H6.82422Z"
          fill="#E54545"/>
</svg>
