<svg width="24" height="16" viewBox="0 0 24 16" fill="none" xmlns="http://www.w3.org/2000/svg">
<path d="M2.3597 0.759503L2.3595 0H2.3597V0.759503ZM0.759602 2.3596H9.85073e-05V2.35958L0.759602 2.3596ZM14.755 0.759503V0H14.755L14.755 0.759503ZM16.3551 2.3596L17.1146 2.35958V2.3596H16.3551ZM14.755 15.2405L14.755 16H14.755V15.2405ZM2.3597 15.2405V16H2.3595L2.3597 15.2405ZM6.80101 4.59361L7.56052 4.59358V4.59361H6.80101ZM4.9784 3.0746L4.97834 2.3151H4.9784V3.0746ZM3.4594 4.59361H2.69989V4.59358L3.4594 4.59361ZM4.9784 6.41622V7.17572H4.97834L4.9784 6.41622ZM18.8615 9.84581L18.4295 10.4705L18.102 10.244V9.84581H18.8615ZM22.4112 12.3004L21.9792 12.9251H21.9792L22.4112 12.3004ZM18.8615 4.29513H18.102V3.88171L18.4492 3.65728L18.8615 4.29513ZM22.4216 1.99391L22.8339 2.63176L22.8339 2.63176L22.4216 1.99391ZM2.3597 0.759503L2.3599 1.51901C1.8955 1.51913 1.51912 1.89568 1.5191 2.35962L0.759602 2.3596L9.85073e-05 2.35958C0.000129412 1.05639 1.05686 0.000345198 2.3595 0L2.3597 0.759503ZM14.755 0.759503V1.51901H2.3597V0.759503V0H14.755V0.759503ZM16.3551 2.3596L15.5956 2.35962C15.5956 1.89537 15.2193 1.51902 14.755 1.51901L14.755 0.759503L14.755 0C16.0582 3.19907e-05 17.1146 1.05644 17.1146 2.35958L16.3551 2.3596ZM16.3551 13.6404H15.5956V2.3596H16.3551H17.1146V13.6404H16.3551ZM14.755 15.2405L14.755 14.481C15.2193 14.481 15.5956 14.1046 15.5956 13.6404H16.3551H17.1146C17.1146 14.9436 16.0582 16 14.755 16L14.755 15.2405ZM2.3597 15.2405V14.481H14.755V15.2405V16H2.3597V15.2405ZM0.759602 13.6404H1.5191C1.5191 14.1043 1.89547 14.4809 2.3599 14.481L2.3597 15.2405L2.3595 16C1.05686 15.9997 9.85073e-05 14.9436 9.85073e-05 13.6404H0.759602ZM0.759602 2.3596H1.5191V13.6404H0.759602H9.85073e-05V2.3596H0.759602ZM5.28201 3.0746V2.3151C6.5404 2.3151 7.56047 3.33527 7.56052 4.59358L6.80101 4.59361L6.04151 4.59364C6.04149 4.17415 5.70142 3.83411 5.28201 3.83411V3.0746ZM4.9784 3.0746V2.3151H5.28201V3.0746V3.83411H4.9784V3.0746ZM3.4594 4.59361L2.69989 4.59358C2.69994 3.33525 3.72012 2.31521 4.97834 2.3151L4.9784 3.0746L4.97847 3.83411C4.559 3.83414 4.21891 4.17426 4.2189 4.59364L3.4594 4.59361ZM3.4594 4.89721H2.69989V4.59361H3.4594H4.2189V4.89721H3.4594ZM4.9784 6.41622L4.97834 7.17572C3.72013 7.17561 2.69989 6.15562 2.69989 4.89721H3.4594H4.2189C4.2189 5.31657 4.55895 5.65668 4.97847 5.65672L4.9784 6.41622ZM5.28201 6.41622V7.17572H4.9784V6.41622V5.65672H5.28201V6.41622ZM6.80101 4.89721H7.56052C7.56052 6.1556 6.54039 7.17572 5.28201 7.17572V6.41622V5.65672C5.70147 5.65672 6.04151 5.31667 6.04151 4.89721H6.80101ZM6.80101 4.59361H7.56052V4.89721H6.80101H6.04151V4.59361H6.80101ZM18.8615 9.84581L19.2935 9.22111L22.8432 11.6757L22.4112 12.3004L21.9792 12.9251L18.4295 10.4705L18.8615 9.84581ZM18.8615 4.29513H19.621V9.84581H18.8615H18.102V4.29513H18.8615ZM22.4216 1.99391L22.8339 2.63176L19.2738 4.93298L18.8615 4.29513L18.4492 3.65728L22.0093 1.35606L22.4216 1.99391ZM23.0388 2.32987H22.2793C22.2793 2.61467 22.5947 2.78637 22.8339 2.63176L22.4216 1.99391L22.0093 1.35606C22.7808 0.85734 23.7983 1.41117 23.7983 2.32987H23.0388ZM23.0388 11.9714H22.2793V2.32987H23.0388H23.7983V11.9714H23.0388ZM22.4112 12.3004L22.8432 11.6757C22.6047 11.5108 22.2793 11.6815 22.2793 11.9714H23.0388H23.7983C23.7983 12.9064 22.7483 13.4569 21.9792 12.9251L22.4112 12.3004Z" fill="#1C66E5"/>
</svg>
