<svg width="19" height="19" viewBox="0 0 19 19" fill="none" xmlns="http://www.w3.org/2000/svg">
<mask id="path-1-inside-1_0_40" fill="white">
<path d="M16.3444 14.0969C17.6984 14.0969 18.7965 15.1949 18.7965 16.5489C18.7964 17.9028 17.6984 19 16.3444 19H2.45206C1.09812 19 0.000122929 17.9028 0 16.5489C0 15.1949 1.09805 14.0969 2.45206 14.0969H16.3444ZM9.39924 0C13.0098 0.000215213 15.9364 2.92757 15.9364 6.53817C15.9362 10.1486 13.0097 13.0751 9.39924 13.0753C5.78865 13.0753 2.86129 10.1487 2.86107 6.53817C2.86107 2.92744 5.78851 0 9.39924 0Z"/>
</mask>
<path d="M18.7965 16.5489L20.3288 16.5491V16.5489H18.7965ZM16.3444 19V20.5323V19ZM0 16.5489H-1.53229V16.5491L0 16.5489ZM9.39924 0L9.39934 -1.53229H9.39924V0ZM15.9364 6.53817L17.4687 6.53826V6.53817H15.9364ZM9.39924 13.0753V14.6076H9.39934L9.39924 13.0753ZM2.86107 6.53817H1.32878V6.53826L2.86107 6.53817ZM16.3444 14.0969V15.6292C16.8522 15.6292 17.2642 16.0412 17.2642 16.5489H18.7965H20.3288C20.3288 14.3487 18.5447 12.5646 16.3444 12.5646V14.0969ZM18.7965 16.5489L17.2642 16.5488C17.2642 17.0559 16.8528 17.4677 16.3444 17.4677V19V20.5323C18.544 20.5323 20.3286 18.7498 20.3288 16.5491L18.7965 16.5489ZM16.3444 19V17.4677H2.45206V19V20.5323H16.3444V19ZM2.45206 19V17.4677C1.94371 17.4677 1.53234 17.0559 1.53229 16.5488L0 16.5489L-1.53229 16.5491C-1.53209 18.7498 0.252535 20.5323 2.45206 20.5323V19ZM0 16.5489H1.53229C1.53229 16.0412 1.94431 15.6292 2.45206 15.6292V14.0969V12.5646C0.251786 12.5646 -1.53229 14.3487 -1.53229 16.5489H0ZM2.45206 14.0969V15.6292H16.3444V14.0969V12.5646H2.45206V14.0969ZM9.39924 0L9.39915 1.53229C12.1633 1.53246 14.4041 3.77362 14.4041 6.53817H15.9364H17.4687C17.4687 2.08153 13.8563 -1.53202 9.39934 -1.53229L9.39924 0ZM15.9364 6.53817L14.4041 6.53808C14.404 9.3023 12.1634 11.5429 9.39915 11.5431L9.39924 13.0753L9.39934 14.6076C13.8559 14.6074 17.4684 10.9949 17.4687 6.53826L15.9364 6.53817ZM9.39924 13.0753V11.5431C6.63469 11.5431 4.39353 9.30222 4.39336 6.53808L2.86107 6.53817L1.32878 6.53826C1.32905 10.9952 4.9426 14.6076 9.39924 14.6076V13.0753ZM2.86107 6.53817H4.39336C4.39336 3.7737 6.63477 1.53229 9.39924 1.53229V0V-1.53229C4.94225 -1.53229 1.32878 2.08118 1.32878 6.53817H2.86107Z" fill="#666666" mask="url(#path-1-inside-1_0_40)"/>
</svg>
