<svg width="19" height="19" viewBox="0 0 19 19" fill="none" xmlns="http://www.w3.org/2000/svg">
<path d="M16.0986 17.7695C16.11 17.8687 16.1342 17.9615 16.165 18.0459C16.1459 18.055 16.1269 18.064 16.1074 18.0723C16.0897 17.9668 16.0873 17.8654 16.0986 17.7695ZM3.40527 0.911133C3.61969 0.696609 3.96722 0.696608 4.18164 0.911133L7.25098 3.98145C7.46525 4.19611 7.46525 4.54413 7.25098 4.75879L5.89062 6.11914L5.51758 6.49316L5.74414 6.97168C6.36838 8.28618 7.24176 9.48167 8.3291 10.4863C9.53365 11.5992 10.951 12.4323 12.4795 12.9443L12.9199 13.0918L13.248 12.7627L14.4922 11.5186C14.7066 11.3045 15.0543 11.3042 15.2686 11.5186L18.0889 14.3418C18.3034 14.5565 18.3034 14.9045 18.0889 15.1191L18.0811 15.127L16.0332 17.2363C15.9325 17.3371 15.8026 17.4043 15.6621 17.4277L15.5332 17.4482C11.7634 17.4004 8.50881 15.9392 5.69629 13.3408C2.83029 10.693 1.06331 7.67785 0.750977 3.87793C0.757799 3.55001 0.899921 3.23901 1.14551 3.02051L1.47266 2.72949L1.48828 2.71582L3.38867 0.926758L3.39746 0.918945L3.40527 0.911133ZM16.6484 17.0215C16.6497 17.0217 16.6507 17.0237 16.6523 17.0244C16.6401 17.022 16.6314 17.02 16.627 17.0195C16.6342 17.0202 16.642 17.0208 16.6484 17.0215Z" stroke="#666666" stroke-width="1.5"/>
</svg>
