<svg width="24" height="25" viewBox="0 0 24 25" fill="none" xmlns="http://www.w3.org/2000/svg">
    <path d="M14.0157 2.59961C14.6821 2.59975 15.2224 3.14025 15.2227 3.80664V5.45215C15.5904 5.62543 15.9416 5.82789 16.2735 6.05566L17.7266 5.22461C18.3021 4.89505 19.0362 5.09123 19.3702 5.66406L21.3819 9.12012C21.7188 9.69912 21.5197 10.4423 20.9386 10.7754L19.4962 11.5996C19.512 11.7974 19.5235 11.9974 19.5235 12.1992C19.5235 12.4012 19.512 12.6018 19.4962 12.7998L20.9356 13.624C21.5168 13.9571 21.7158 14.7003 21.379 15.2793L19.3673 18.7344C19.0335 19.3078 18.2995 19.5046 17.7237 19.1748L16.2716 18.3438C15.9419 18.5699 15.5936 18.7709 15.2286 18.9434V20.5928C15.2283 21.2592 14.688 21.7996 14.0216 21.7998H9.98445C9.31789 21.7997 8.77768 21.2593 8.77742 20.5928V18.9482C8.40852 18.7747 8.05568 18.5731 7.72273 18.3447L6.27254 19.1748C5.6968 19.5045 4.9627 19.3078 4.62898 18.7344L2.61824 15.2793C2.28148 14.7002 2.4803 13.957 3.0616 13.624L4.49715 12.8008C4.48123 12.6025 4.47078 12.4015 4.47078 12.1992C4.4708 11.9968 4.48119 11.796 4.49715 11.5977L3.05867 10.7754C2.47744 10.4423 2.27833 9.69914 2.61531 9.12012L4.62605 5.66504C4.9598 5.09185 5.69397 4.89511 6.26961 5.22461L7.72176 6.05469C8.05338 5.82719 8.40424 5.62527 8.77156 5.45215V3.80664C8.7719 3.14023 9.31213 2.59972 9.97859 2.59961H14.0157ZM10.2716 6.40332L9.41121 6.80859C9.11755 6.947 8.83645 7.10947 8.57039 7.29199L7.79402 7.82422L6.97762 7.35742L5.77644 6.6709L4.05965 9.61914L5.24129 10.2949L6.06844 10.7686L5.99226 11.7178C5.97856 11.8881 5.9708 12.0474 5.97078 12.1992C5.97078 12.3508 5.97857 12.5101 5.99226 12.6807L6.06844 13.6289L5.24324 14.1016L4.06258 14.7783L5.77937 17.7285L6.97762 17.043L7.795 16.5752L8.57137 17.1074C8.83634 17.2892 9.11884 17.451 9.41609 17.5908L10.2774 17.9961V20.2998H13.7286V17.9932L14.588 17.5869C14.8789 17.4494 15.1577 17.2883 15.4229 17.1064L16.1993 16.5742L17.0167 17.042L18.2169 17.7285L19.9346 14.7783L18.7511 14.1016L17.9249 13.6289L18.0011 12.6797C18.0152 12.5033 18.0235 12.3461 18.0235 12.1992C18.0235 12.0526 18.0152 11.8962 18.0011 11.7197L17.9249 10.7695L18.752 10.2969L19.9366 9.61914L18.2198 6.66992L17.0186 7.35742L16.2012 7.8252L15.4249 7.29199C15.1581 7.10892 14.8764 6.94683 14.5831 6.80859L13.7227 6.40332V4.09961H10.2716V6.40332ZM11.9971 8.40039C14.0957 8.40043 15.7968 10.1016 15.797 12.2002C15.7967 14.2987 14.0957 16 11.9971 16C9.8987 15.9999 8.19757 14.2986 8.19734 12.2002C8.19745 10.1017 9.89862 8.4005 11.9971 8.40039ZM11.9971 9.90039C10.727 9.9005 9.69745 10.9301 9.69734 12.2002C9.69757 13.4702 10.7271 14.4999 11.9971 14.5C13.2672 14.5 14.2967 13.4702 14.297 12.2002C14.2968 10.9301 13.2673 9.90043 11.9971 9.90039Z"
          fill="white" fill-opacity="0.55"/>
</svg>
