<svg width="24" height="24" viewBox="0 0 24 24" fill="none" xmlns="http://www.w3.org/2000/svg">
    <path d="M11.998 2C17.5209 2 21.998 6.47718 21.998 12C21.998 14.4304 21.1301 16.6577 19.6885 18.3906L20.4492 20.5361C20.5611 20.8531 20.2555 21.1581 19.9385 21.0459L17.7236 20.2617C17.704 20.2548 17.6866 20.2438 17.6689 20.2344C16.0572 21.3465 14.1044 22 11.998 22C6.4752 22 1.99805 17.5228 1.99805 12C1.99808 6.47718 6.47522 2 11.998 2ZM11.998 3.5C7.30365 3.5 3.49808 7.30561 3.49805 12C3.49805 16.6944 7.30363 20.5 11.998 20.5C13.7892 20.5 15.4469 19.9456 16.8174 19L17.5684 18.4814L18.2588 18.8496L17.9893 18.0879L18.5352 17.4316C19.7613 15.9577 20.498 14.0667 20.498 12C20.498 7.30561 16.6924 3.5 11.998 3.5ZM7.00195 10.5C7.83038 10.5 8.50195 11.1716 8.50195 12C8.50195 12.8284 7.83038 13.5 7.00195 13.5C6.17353 13.5 5.50195 12.8284 5.50195 12C5.50195 11.1716 6.17353 10.5 7.00195 10.5ZM12 10.5C12.8284 10.5 13.5 11.1716 13.5 12C13.5 12.8284 12.8284 13.5 12 13.5C11.1716 13.5 10.5 12.8284 10.5 12C10.5 11.1716 11.1716 10.5 12 10.5ZM16.998 10.5C17.8265 10.5 18.498 11.1716 18.498 12C18.498 12.8284 17.8265 13.5 16.998 13.5C16.1696 13.5 15.498 12.8284 15.498 12C15.498 11.1716 16.1696 10.5 16.998 10.5Z"
          fill="white" fill-opacity="0.55"/>
</svg>
