<svg width="24" height="25" viewBox="0 0 24 25" fill="none" xmlns="http://www.w3.org/2000/svg">
    <path d="M14.0157 2.59961C14.6821 2.59975 15.2224 3.14025 15.2227 3.80664V5.45215C15.5904 5.62543 15.9416 5.82789 16.2735 6.05566L17.7266 5.22461C18.3021 4.89505 19.0362 5.09123 19.3702 5.66406L21.3819 9.12012C21.7188 9.69912 21.5197 10.4423 20.9386 10.7754L19.4962 11.5996C19.512 11.7974 19.5235 11.9974 19.5235 12.1992C19.5235 12.4012 19.512 12.6018 19.4962 12.7998L20.9356 13.624C21.5168 13.9571 21.7158 14.7003 21.379 15.2793L19.3673 18.7344C19.0335 19.3078 18.2995 19.5046 17.7237 19.1748L16.2716 18.3438C15.9419 18.5699 15.5936 18.7709 15.2286 18.9434V20.5928C15.2283 21.2592 14.688 21.7996 14.0216 21.7998H9.98445C9.31789 21.7997 8.77768 21.2593 8.77742 20.5928V18.9482C8.40852 18.7747 8.05568 18.5731 7.72273 18.3447L6.27254 19.1748C5.6968 19.5045 4.9627 19.3078 4.62898 18.7344L2.61824 15.2793C2.28148 14.7002 2.4803 13.957 3.0616 13.624L4.49715 12.8008C4.48123 12.6025 4.47078 12.4015 4.47078 12.1992C4.4708 11.9968 4.48119 11.796 4.49715 11.5977L3.05867 10.7754C2.47744 10.4423 2.27833 9.69914 2.61531 9.12012L4.62605 5.66504C4.9598 5.09185 5.69397 4.89511 6.26961 5.22461L7.72176 6.05469C8.05338 5.82719 8.40424 5.62527 8.77156 5.45215V3.80664C8.7719 3.14023 9.31213 2.59972 9.97859 2.59961H14.0157ZM11.9971 8.40039C9.89852 8.40046 8.19734 10.1016 8.19734 12.2002C8.19747 14.2987 9.8986 15.9999 11.9971 16C14.0958 16 15.7968 14.2988 15.797 12.2002C15.797 10.1015 14.0958 8.40039 11.9971 8.40039Z"
          fill="#4086FF"/>
</svg>
