<svg width="24" height="24" viewBox="0 0 24 24" fill="none" xmlns="http://www.w3.org/2000/svg">
    <mask id="path-1-inside-1_5496_12398" fill="white">
        <path d="M18.8008 16.3998C20.1263 16.3998 21.2012 17.4747 21.2012 18.8002C21.2011 20.1256 20.1262 21.1996 18.8008 21.1996H5.20117C3.87576 21.1996 2.8009 20.1256 2.80078 18.8002C2.80078 17.4747 3.87569 16.3998 5.20117 16.3998H18.8008ZM12.002 2.60001C15.5364 2.60022 18.4014 5.46589 18.4014 9.0004C18.4012 12.5347 15.5363 15.3996 12.002 15.3998C8.46744 15.3998 5.60177 12.5349 5.60156 9.0004C5.60156 5.46576 8.46731 2.60001 12.002 2.60001Z"/>
    </mask>
    <path d="M21.2012 18.8002L22.7012 18.8003V18.8002H21.2012ZM18.8008 21.1996V22.6996V21.1996ZM2.80078 18.8002H1.30078V18.8003L2.80078 18.8002ZM12.002 2.60001L12.002 1.10001H12.002V2.60001ZM18.4014 9.0004L19.9014 9.00049V9.0004H18.4014ZM12.002 15.3998V16.8998H12.002L12.002 15.3998ZM5.60156 9.0004H4.10156V9.00049L5.60156 9.0004ZM18.8008 16.3998V17.8998C19.2978 17.8998 19.7012 18.3031 19.7012 18.8002H21.2012H22.7012C22.7012 16.6463 20.9547 14.8998 18.8008 14.8998V16.3998ZM21.2012 18.8002L19.7012 18.8001C19.7011 19.2965 19.2984 19.6996 18.8008 19.6996V21.1996V22.6996C20.954 22.6996 22.701 20.9547 22.7012 18.8003L21.2012 18.8002ZM18.8008 21.1996V19.6996H5.20117V21.1996V22.6996H18.8008V21.1996ZM5.20117 21.1996V19.6996C4.70353 19.6996 4.30083 19.2965 4.30078 18.8001L2.80078 18.8002L1.30078 18.8003C1.30098 20.9547 3.04799 22.6996 5.20117 22.6996V21.1996ZM2.80078 18.8002H4.30078C4.30078 18.3031 4.70412 17.8998 5.20117 17.8998V16.3998V14.8998C3.04726 14.8998 1.30078 16.6463 1.30078 18.8002H2.80078ZM5.20117 16.3998V17.8998H18.8008V16.3998V14.8998H5.20117V16.3998ZM12.002 2.60001L12.0019 4.10001C14.7078 4.10017 16.9014 6.2941 16.9014 9.0004H18.4014H19.9014C19.9014 4.63767 16.3651 1.10027 12.002 1.10001L12.002 2.60001ZM18.4014 9.0004L16.9014 9.00031C16.9012 11.7063 14.7078 13.8996 12.0019 13.8998L12.002 15.3998L12.002 16.8998C16.3647 16.8996 19.9011 13.3632 19.9014 9.00049L18.4014 9.0004ZM12.002 15.3998V13.8998C9.29566 13.8998 7.10172 11.7062 7.10156 9.00031L5.60156 9.0004L4.10156 9.00049C4.10182 13.3635 7.63922 16.8998 12.002 16.8998V15.3998ZM5.60156 9.0004H7.10156C7.10156 6.29418 9.29574 4.10001 12.002 4.10001V2.60001V1.10001C7.63889 1.10001 4.10156 4.63733 4.10156 9.0004H5.60156Z" fill="white" fill-opacity="0.55" mask="url(#path-1-inside-1_5496_12398)"/>
</svg>
