<svg width="24" height="24" viewBox="0 0 24 24" fill="none" xmlns="http://www.w3.org/2000/svg">
    <path d="M2.57969 4.3L2.57949 3.55H2.57969V4.3ZM0.999609 5.88008H0.249609V5.88006L0.999609 5.88008ZM14.8199 4.3V3.55H14.8199L14.8199 4.3ZM16.4 5.88008L17.15 5.88006V5.88008H16.4ZM14.8199 18.5998L14.8199 19.3498H14.8199V18.5998ZM2.57969 18.5998V19.3498H2.57949L2.57969 18.5998ZM6.96543 8.08614L7.71543 8.08611V8.08614H6.96543ZM5.16562 6.58614L5.16556 5.83614H5.16562V6.58614ZM3.66562 8.08614H2.91562V8.08611L3.66562 8.08614ZM5.16562 9.88594V10.6359H5.16556L5.16562 9.88594ZM18.875 13.2726L18.4484 13.8895L18.125 13.6658V13.2726H18.875ZM22.3803 15.6965L21.9537 16.3134H21.9537L22.3803 15.6965ZM18.875 7.79139H18.125V7.38314L18.4679 7.16152L18.875 7.79139ZM22.3905 5.51897L22.7977 6.14883L22.7977 6.14883L22.3905 5.51897ZM2.57969 4.3L2.57989 5.05C2.1213 5.05012 1.74962 5.42197 1.74961 5.8801L0.999609 5.88008L0.249609 5.88006C0.24964 4.59317 1.29314 3.55034 2.57949 3.55L2.57969 4.3ZM14.8199 4.3V5.05H2.57969V4.3V3.55H14.8199V4.3ZM16.4 5.88008L15.65 5.8801C15.65 5.42166 15.2783 5.05001 14.8199 5.05L14.8199 4.3L14.8199 3.55C16.1068 3.55003 17.15 4.59322 17.15 5.88006L16.4 5.88008ZM16.4 17.0197H15.65V5.88008H16.4H17.15V17.0197H16.4ZM14.8199 18.5998L14.8199 17.8498C15.2784 17.8498 15.65 17.4782 15.65 17.0197H16.4H17.15C17.15 18.3066 16.1068 19.3498 14.8199 19.3498L14.8199 18.5998ZM2.57969 18.5998V17.8498H14.8199V18.5998V19.3498H2.57969V18.5998ZM0.999609 17.0197H1.74961C1.74961 17.4778 2.12127 17.8497 2.57989 17.8498L2.57969 18.5998L2.57949 19.3498C1.29315 19.3495 0.249609 18.3067 0.249609 17.0197H0.999609ZM0.999609 5.88008H1.74961V17.0197H0.999609H0.249609V5.88008H0.999609ZM5.46543 6.58614V5.83614C6.70808 5.83614 7.71538 6.84354 7.71543 8.08611L6.96543 8.08614L6.21543 8.08616C6.21541 7.67193 5.8796 7.33614 5.46543 7.33614V6.58614ZM5.16562 6.58614V5.83614H5.46543V6.58614V7.33614H5.16562V6.58614ZM3.66562 8.08614L2.91562 8.08611C2.91567 6.84352 3.92309 5.83624 5.16556 5.83614L5.16562 6.58614L5.16569 7.33614C4.75146 7.33617 4.41564 7.67204 4.41562 8.08616L3.66562 8.08614ZM3.66562 8.38594H2.91562V8.08614H3.66562H4.41562V8.38594H3.66562ZM5.16562 9.88594L5.16556 10.6359C3.92309 10.6358 2.91562 9.6286 2.91562 8.38594H3.66562H4.41562C4.41562 8.80005 4.75142 9.1359 5.16569 9.13594L5.16562 9.88594ZM5.46543 9.88594V10.6359H5.16562V9.88594V9.13594H5.46543V9.88594ZM6.96543 8.38594H7.71543C7.71543 9.62858 6.70807 10.6359 5.46543 10.6359V9.88594V9.13594C5.87964 9.13594 6.21543 8.80015 6.21543 8.38594H6.96543ZM6.96543 8.08614H7.71543V8.38594H6.96543H6.21543V8.08614H6.96543ZM18.875 13.2726L19.3016 12.6557L22.8069 15.0796L22.3803 15.6965L21.9537 16.3134L18.4484 13.8895L18.875 13.2726ZM18.875 7.79139H19.625V13.2726H18.875H18.125V7.79139H18.875ZM22.3905 5.51897L22.7977 6.14883L19.2821 8.42126L18.875 7.79139L18.4679 7.16152L21.9834 4.8891L22.3905 5.51897ZM23 5.85072H22.25C22.25 6.13196 22.5615 6.30151 22.7977 6.14883L22.3905 5.51897L21.9834 4.8891C22.7453 4.39662 23.75 4.94352 23.75 5.85072H23ZM23 15.3716H22.25V5.85072H23H23.75V15.3716H23ZM22.3803 15.6965L22.8069 15.0796C22.5714 14.9168 22.25 15.0853 22.25 15.3716H23H23.75C23.75 16.2949 22.7132 16.8385 21.9537 16.3134L22.3803 15.6965Z" fill="#1C66E5"/>
</svg>
