<svg width="26" height="20" viewBox="0 0 26 20" fill="none" xmlns="http://www.w3.org/2000/svg">
<path d="M2 0C0.89543 0 0 0.895431 0 2V18C0 19.1046 0.895432 20 2 20H24C25.1046 20 26 19.1046 26 18V2C26 0.895431 25.1046 1.44957e-07 24 0H2ZM9.50879 14.999C9.78481 14.999 10.0086 15.223 10.0088 15.499V16.499C10.0088 16.7752 9.78493 16.999 9.50879 16.999H3.50879C3.23265 16.999 3.00879 16.7752 3.00879 16.499V15.499C3.00899 15.2231 3.23277 14.999 3.50879 14.999H9.50879ZM13.5068 11.002C13.783 11.002 14.0068 11.2258 14.0068 11.502V12.501C14.0068 12.7771 13.783 13.002 13.5068 13.002H3.50684C3.23086 13.002 3.0071 12.7779 3.00684 12.502V11.502C3.00684 11.2258 3.23069 11.002 3.50684 11.002H13.5068ZM22.5088 2.99805C22.7848 2.99805 23.0096 3.22204 23.0098 3.49805V7.49805C23.0098 7.77419 22.7849 7.99805 22.5088 7.99805H18.5098C18.2336 7.99805 18.0098 7.77419 18.0098 7.49805V3.49805C18.0099 3.22204 18.2337 2.99805 18.5098 2.99805H22.5088Z" fill="black" fill-opacity="0.55"/>
</svg>
