<svg width="20" height="24" viewBox="0 0 20 24" fill="none" xmlns="http://www.w3.org/2000/svg">
<path d="M9.98929 0C15.5221 0 20 4.40902 20 9.8567C20 12.5487 18.9021 15.0076 17.1152 16.7882L9.98929 23.7409L2.88491 16.767C1.09805 14.9864 2.29351e-05 12.5487 2.29351e-05 9.83551C-0.0214271 4.40902 4.45648 0 9.98929 0ZM6.54474 8.77565C6.67391 10.429 8.00867 11.7433 9.68789 11.8704C11.7116 12.04 13.4123 10.4502 13.4123 8.50008C13.4123 6.63473 11.8623 5.10853 9.96776 5.10853C7.98714 5.10853 6.37251 6.78311 6.54474 8.77565Z" fill="black" fill-opacity="0.55"/>
</svg>
